/* XPM */
static char *render_ccg_lookup_background[] = {
/* columns rows colors chars-per-pixel */
"32 32 256 2",
"   c #0A0C05",
".  c #110D03",
"X  c #17150B",
"o  c #1A1B14",
"O  c #201A0C",
"+  c #211B10",
"@  c #242015",
"#  c #2B281E",
"$  c #2D2619",
"%  c #35291A",
"&  c #2C2D28",
"*  c #39352B",
"=  c #383A35",
"-  c #2E332C",
";  c #1B711D",
":  c #225B17",
">  c #384F39",
",  c #30731F",
"<  c #2A661B",
"1  c #2E6D23",
"2  c #267722",
"3  c #327C28",
"4  c #3E4440",
"5  c #4D1F09",
"6  c #45331F",
"7  c #403E36",
"8  c #403327",
"9  c #702E14",
"0  c #70372B",
"q  c #4E4418",
"w  c #43433B",
"e  c #5A4A3B",
"r  c #5D5634",
"t  c #65471C",
"y  c #6B5738",
"u  c #734F22",
"i  c #755638",
"p  c #614B34",
"a  c #554E44",
"s  c #54514F",
"d  c #4E514D",
"f  c #567A4E",
"g  c #685A49",
"h  c #6C5E54",
"j  c #785C43",
"k  c #67645B",
"l  c #786756",
"z  c #78634D",
"x  c gray45",
"c  c #797C7B",
"v  c #716C64",
"b  c #727E83",
"n  c #2C8329",
"m  c #399628",
"M  c #359633",
"N  c #3C8B32",
"B  c #34A827",
"V  c #43813C",
"C  c #7B8515",
"Z  c #739F31",
"A  c #48B44B",
"S  c #6A9452",
"D  c #7FAD69",
"F  c #41C851",
"G  c #7DC650",
"H  c #28A7E1",
"J  c #4083A4",
"K  c #7E8181",
"L  c #6799AD",
"P  c #529793",
"I  c #59D4FE",
"U  c #8E0000",
"Y  c #9B0100",
"T  c #910B03",
"R  c #9B140A",
"E  c #82301E",
"W  c #903413",
"Q  c #883830",
"!  c #A30000",
"~  c #A10C08",
"^  c #B10000",
"/  c #B11F0F",
"(  c #B0180F",
")  c #A72B1A",
"_  c #B72417",
"`  c #AD361C",
"'  c #AD3D2F",
"]  c #B83D2D",
"[  c #884928",
"{  c #934739",
"}  c #985A35",
"|  c #8B562F",
" . c #926833",
".. c #AE501C",
"X. c #B54D17",
"o. c #A7572C",
"O. c #A25D37",
"+. c #BF4F25",
"@. c #A16833",
"#. c #804846",
"$. c #826449",
"%. c #826958",
"&. c #94685A",
"*. c #886D61",
"=. c #897767",
"-. c #957268",
";. c #AE7046",
":. c #AA7553",
">. c #B97646",
",. c #B57E58",
"<. c #BD766A",
"1. c #C81813",
"2. c #D41C16",
"3. c #C6170F",
"4. c #C33123",
"5. c #FF1717",
"6. c #E2241D",
"7. c #FC2A23",
"8. c #FF3730",
"9. c #C8451E",
"0. c #D44130",
"q. c #C1653C",
"w. c #F1522F",
"e. c #F37732",
"r. c #DD5941",
"t. c #CA6D51",
"y. c #D3786A",
"u. c #F15245",
"i. c #E66956",
"p. c #F46A50",
"a. c #EF6E61",
"s. c #F0766A",
"d. c #869117",
"f. c #9CA91E",
"g. c #AA9B1B",
"h. c #B8A31D",
"j. c #AFBE22",
"k. c #A7B521",
"l. c #BFA536",
"z. c #86837B",
"x. c #968669",
"c. c #95837A",
"v. c #85BB4A",
"b. c #AC8B5B",
"n. c #BB8652",
"m. c #A9876C",
"M. c #AE8F71",
"N. c #B0BE43",
"B. c #B6A668",
"V. c #B3C222",
"C. c #B4CD51",
"Z. c #C3AC1D",
"A. c #D6B719",
"S. c #C3AB22",
"D. c #CFB926",
"F. c #F69831",
"G. c #C8976A",
"H. c #D39472",
"J. c #D5B054",
"K. c #C6BF7B",
"L. c #E89057",
"P. c #F88D59",
"I. c #E38C7C",
"U. c #E48779",
"Y. c #EC8C6C",
"T. c #E5995F",
"R. c #CCC023",
"E. c #D2C52B",
"W. c #D2E22F",
"Q. c #D6E635",
"!. c #D8C650",
"~. c #F1DA54",
"^. c #FFDA70",
"/. c #EED563",
"(. c #E6E255",
"). c #D1CC6F",
"_. c #848484",
"`. c #8B8B8B",
"'. c #858B8B",
"]. c #8A9D8A",
"[. c #8A9195",
"{. c #9A8A84",
"}. c #97948D",
"|. c #929291",
" X c #959A95",
".X c #9B9C9C",
"XX c #999997",
"oX c #909DA7",
"OX c #9FB096",
"+X c #9EAD8B",
"@X c #9BA2A4",
"#X c #9FAFB6",
"$X c #81B1A8",
"%X c #A49C94",
"&X c #AD9A8B",
"*X c #A6A698",
"=X c #B0B196",
"-X c #A2A2A1",
";X c #A3AAAC",
":X c #AAADAA",
">X c #A6A7A8",
",X c #ADB7B5",
"<X c #BAABA8",
"1X c #B7B4A7",
"2X c #B3B4B3",
"3X c #BBBAB6",
"4X c #BCBDBC",
"5X c #B6B7B6",
"6X c #A4ACB3",
"7X c #97B9C1",
"8X c #BBBDC0",
"9X c #BDC293",
"0X c #ADD884",
"qX c #BDC0BB",
"wX c #B9EB99",
"eX c #A6FFA8",
"rX c #BEC3C3",
"tX c #B3DAC5",
"yX c #A5E3F8",
"uX c #C49285",
"iX c #CBBB98",
"pX c #C1BBB9",
"aX c #CBB9AA",
"sX c #FB9684",
"dX c #EDA08F",
"fX c #CACE9F",
"gX c #D7CA97",
"hX c #C3C6A6",
"jX c #C5C7AB",
"kX c #C1C0BC",
"lX c #CFD9B1",
"zX c #CFD1A8",
"xX c #C1ECB8",
"cX c #FFF39F",
"vX c #FFF9B7",
"bX c #F9E3B7",
"nX c #C1C1C1",
"mX c #C3C6C8",
"MX c #C6CACA",
"NX c #CBCCC7",
"BX c #CBCCCC",
"VX c #C4C8C5",
"CX c #CBCFD0",
"ZX c #CFD0CF",
"AX c #C7D5D7",
"SX c #D2D2D2",
"DX c #DDDDDD",
"FX c #DADAD7",
"GX c #D3E3C5",
"HX c #C8EDC1",
"JX c #DEE1E1",
"KX c #EAE9C3",
"LX c #FFFFCC",
"PX c #FFFADB",
"IX c #E2E2E2",
"UX c #FBFBFB",
/* pixels */
"nXnXnXnXnXnXnXnXnXnXnXnXnXnX8XrX8XnXnXnXkXVXkXnXnXnXnXnXnXnXnXnX",
"nXnXnXnXnXnXnXnXnXnXrX3X&X<.t.t.t.m.v.OXqXVXnXnXnXnXnXnXnXnXkXnX",
"nXnXnXnXnXnXnXnXVXnX%Xj 9 T ! U R W M V S OXnXpXnXnXnXnXnXnXnXnX",
"nXnXnXnXnXnXpXnXrXz.0 5 E _ U.I.Y.G.G v.Z S +X8XnXnXnXnXnXnXnXnX",
"nXnXnXnXnXnXnXnX%Xy r q 9 ( t.i.i.L.(.!.S.Z.S.iXnXnXnXnXnXnX8XnX",
"nXnXnXnXnXnXrX4Xf 1 2 ; t Y Y ! ^ X.R.h.g.Z.A.J.3XnXnXnXnXnXnXnX",
"nXnXnXnX8X8XnX].: 1 2 2 t ~ T T R ..R.Z.Z./.cXvXlXnXnXnXnXnXnXnX",
"nXnXnXnXnX8X8XS < 3 n n u ( R R ~ ..E.D.A.~.LXUXKXnXnXnXnXnXnXnX",
"nXnXnXnXnXnXnXV 3 N N M | 1.( _ _ W  . .@.n.G.L.T.nXnXnXnXnXnXnX",
"nXnXnXnX8XnXnXn N A A F  .2.3.3.2./ [ [ | [ o.+._ nXnXnXnXnXnXnX",
"nXnXnXnXnXnXmXN.C.t.@.t.r.u.G.B.B.b.o.| @.[ [ ) ) nXnXnXnXnXnXnX",
"nXnXnXnXnXnXnX!.(.w.5.7.8.a.wXeXeX0Xt.>.;.@.o./ { nXnXnXnXnXnXnX",
"nXnXnXnXnXnX8X).(.L.u.r.i.s.lXxXxXfXH.G.M.,.>.} c.nXnXnXnXnXnXnX",
"nXnXnXNXnXnX<XK.=X}.*X>X:X5X5X4XpX3XkXkXrXVXVX,XXXnXnXnXnXnXnXnX",
"nXnXnXaXU.a.sXaX_.z.,XVXmXrXCXBXBXMXVXZXAXSXJXrXc 5XmXnXnXnXnXnX",
"nX> #.sXU.s.sX<X- X w k =.[.>X:XrXMXNXCXSXFX4X=.v .X-.pXnXnXnXnX",
"kX> *.s.p.p.sX{.4 d $ X O O + % qXMXrX,X%Xl y i i [.0 #.mXnXnXnX",
"VX3Xl @.9.u.sX-.o + * 7 + + . > rXMX;X* % 6 %.%.$.{.Q Q Q nXnXnX",
"kXnX5X:.t.P.sX-.    X & 7 & . c rXrX;Xs + % r =.i g %.&.&. XnXnX",
"nXnXqXqXL.P.s.-.x.o . .   X @ @XrX8X#XK - + e j h g *.-.=.{.M.<X",
"nXnXnXnXpXG.M.s iXy X  X*Xy & ;X8X#X[.b 4 # e h a h *.z.=.,.i l ",
"nXnXnXnXnXnX,X*.y.n.* bXLXgXo .X#X[.@X6X|.d = * e z k :XGXM.<XqX",
"nXnXnXpXnXnXnXy.0.] 4.w.T.gXL 7X4XXX,X4XqXqX'.* * c.&X2X4XnXqXnX",
"nXnXnXnXnXnXnXqXz.l ' 7.F.^.PXAXVX-X2XrXrXAX*X%X XVXnXnXnXnXnXnX",
"nXnXnXnXnXnXnXnXnX}.Q 6.F.J.KXGXSX1X1X8XBXSXMXmXnXnXnXnXnXnXnXnX",
"nXnXnXnXnXnXnXnXnXnXpXuXM.P tXGXAXnX5XBXMXnXnX8XnXnXnXnXnXnXnXnX",
"nXrXnXnXnXnXnXpXnXnXnX8XL H I yXAXnXnXnXnXnXnXnXnXnXnXnXnXnXnXnX",
"nXnXnXnXnXnXnXnXnXnXnXnXoXJ L #X8XnXnXnXnXnXnXnXpXnXnXnXnXnXnXnX",
"hXjXjXjXjXjXhXNXSXSXSXSXSXSXZXZXSXSXSXSXSXSXSXSXSXSXSXSXSXCXZXZX",
"W.Q.Q.Q.Q.Q.Q.9X>X|.-X-X`.`..X|.|._.`.`.=.K [.XX|._._.x 2X2Xx SX",
"k.C C C d.C V.9X.X-X5X-X`.`.>X-X-X.XXX|.`.|.-X.X.X-X.XXX:XnX-XIX",
"V.f.k.f.k.f.V.fX8XpXFXmXZXZXDXBX8XnX5XMXmXDXMXnXnXZXSXDXIXIXBXUX"
};
