/* XPM */
static char *render_ccg_texture_floatAdjust[] = {
/* columns rows colors chars-per-pixel */
"32 32 233 2",
"   c gray44",
".  c #767676",
"X  c #7E7E7D",
"o  c #6262C8",
"O  c #707BCA",
"+  c #7A8415",
"@  c #7B8515",
"#  c #7D8716",
"$  c #1094FA",
"%  c #1295F9",
"&  c #1996F7",
"*  c #1B97F6",
"=  c #228CEF",
"-  c #2098F5",
";  c #279AF3",
":  c #2D9CF0",
">  c #339DEF",
",  c #369EED",
"<  c #309CF0",
"1  c #40A0EB",
"2  c #42A1EA",
"3  c #44A1E9",
"4  c #4CA1E5",
"5  c #4FA4E5",
"6  c #49A2E8",
"7  c #52A5E5",
"8  c #65AADE",
"9  c #66AADE",
"0  c #6FACDB",
"q  c #72ADDB",
"w  c #78AFD8",
"e  c #7FB0D6",
"r  c #62A9E0",
"t  c #B6517A",
"y  c #FD0769",
"u  c #FB0B6C",
"i  c #FB0E6C",
"p  c #FC096A",
"a  c #FC0C6C",
"s  c #F01573",
"d  c #F41170",
"f  c #F71972",
"g  c #F61E74",
"h  c #F81470",
"j  c #F81771",
"k  c #EE317D",
"l  c #EF327E",
"z  c #ED367F",
"x  c #EE347F",
"c  c #F32477",
"v  c #F52075",
"b  c #F32778",
"n  c #F12B7A",
"m  c #F22979",
"M  c #F02D7B",
"N  c #F82378",
"B  c #BF4D9B",
"V  c #B35F81",
"C  c #A17788",
"Z  c #A37CB6",
"A  c #D72A84",
"S  c #ED3680",
"D  c #ED3981",
"F  c #C6549A",
"G  c #DE6696",
"H  c #DD6B98",
"J  c #DC6D99",
"K  c #DB729C",
"L  c #D9769E",
"P  c #DA749D",
"I  c #D8789F",
"U  c #D57FA2",
"Y  c #D67CA0",
"T  c #D77DA1",
"R  c #D67FA2",
"E  c #E74B89",
"W  c #E54F8B",
"Q  c #E64D8A",
"!  c #E84285",
"~  c #EB4084",
"^  c #EA4285",
"/  c #E94486",
"(  c #E84988",
")  c #E3568F",
"_  c #E4548E",
"`  c #E05F93",
"'  c #ED5492",
"]  c #F14389",
"[  c #F1468A",
"{  c #E06294",
"}  c #818C16",
"|  c #8C9718",
" . c #96A31D",
".. c #9FAC1F",
"X. c #9FAD1F",
"o. c #A5B321",
"O. c #A7B521",
"+. c #A9B721",
"@. c #AFBE23",
"#. c #AFBF22",
"$. c #B3C222",
"%. c #D2E22F",
"&. c #D4E435",
"*. c #D5E534",
"=. c #D6E636",
"-. c #D6E638",
";. c #D7E831",
":. c #D8E837",
">. c #808080",
",. c gray53",
"<. c #888888",
"1. c #898989",
"2. c #8A8989",
"3. c gray54",
"4. c #8B8B8B",
"5. c #8D8D8D",
"6. c #8E8E8E",
"7. c #97888E",
"8. c #909090",
"9. c gray57",
"0. c #929292",
"q. c #959595",
"w. c #989797",
"e. c #989898",
"r. c #9C9C9B",
"t. c gray61",
"y. c #9D9D9D",
"u. c gray62",
"i. c #9F9F9F",
"p. c #9C9CA1",
"a. c #A780B5",
"s. c #A0A0A0",
"d. c gray63",
"f. c #A2A2A2",
"g. c #A5A5A5",
"h. c gray65",
"j. c #A5A4AB",
"k. c #A9A9A9",
"l. c gray69",
"z. c #B2B2B2",
"x. c gray70",
"c. c #B4B4B4",
"v. c #B4B5B5",
"b. c gray",
"n. c gray75",
"m. c #81B1D5",
"M. c #88B0D2",
"N. c #8BB3D3",
"B. c #98AFCC",
"V. c #9AB7CD",
"C. c #9EB8CC",
"Z. c #94B5D0",
"A. c #A499C0",
"S. c #A1B9CB",
"D. c #A3B9CB",
"F. c #A6BACA",
"G. c #AFBCC7",
"H. c #A8BBC9",
"J. c #ADBCC8",
"K. c #B1BDC6",
"L. c #B3BEC5",
"P. c #B6BEC5",
"I. c #B9BFC3",
"U. c #BABFC3",
"Y. c #B8BFC4",
"T. c #BCBCC0",
"R. c #BFBFC1",
"E. c #BEC392",
"W. c #BDC195",
"Q. c #BFC1C1",
"!. c #BFC0C2",
"~. c #CF96AD",
"^. c #CD9AAF",
"/. c #CE98AE",
"(. c #D382A3",
"). c #D581A3",
"_. c #D388A6",
"`. c #D38BA7",
"'. c #D18FA9",
"]. c #D28DA8",
"[. c #D091AB",
"{. c #D094AC",
"}. c #DD95B1",
"|. c #C7AFB8",
" X c #CBA1B2",
".X c #CAA3B3",
"XX c #C9A8B5",
"oX c #C8AAB6",
"OX c #C8ADB7",
"+X c #C2B6BB",
"@X c #C5B3BB",
"#X c #C5B6BC",
"$X c #C3BABE",
"%X c #C2BCBF",
"&X c #C4B8BD",
"*X c #C2BFC0",
"=X c #CACE9F",
"-X c #C3C6A4",
";X c #C3C6A6",
":X c #C4C6A7",
">X c #C4C7A7",
",X c #C5C7AB",
"<X c #C5C7AC",
"1X c #C0C1C1",
"2X c #C1C0C1",
"3X c #C1C1C1",
"4X c gray76",
"5X c #C0C0C5",
"6X c #C0C0C6",
"7X c #C1C0C6",
"8X c #C5C5C5",
"9X c gray78",
"0X c #CECFC7",
"qX c #CACACA",
"wX c #CBCBCB",
"eX c #CBCCCC",
"rX c #CECECE",
"tX c gray81",
"yX c #CFD0CF",
"uX c #D5C9CE",
"iX c #D0D0D0",
"pX c gray82",
"aX c #D2D2D2",
"sX c LightGray",
"dX c gray83",
"fX c #D5D5D5",
"gX c #D9D8D9",
"hX c #DDDDDD",
"jX c gray87",
"kX c #DFDFDF",
"lX c gray88",
"zX c gray90",
"xX c gray97",
/* pixels */
"3X3X3X3X3X3X3X3X3X3X3X3X3X3X3X3X3X3X3X3X3X3X3X3X3X3X3X3X3X3X3X3X",
"3X3X3X3X3X3X3X3X3X3X3X3X3X3X3X3X3X3X3X3X3X3X3X3X3X3X3X3X3X3X3X3X",
"3X3X$X`.$X3X3X3X3X3X3X3X3X3X3X3X3X3X3X3X3X3X3X3X3X3X3X3X3X3X3X3X",
"3X%Xc S m #X3X3X3X3X3X3X3X3X3X3X3X3X3X3X3X3X3X3X3X3X3X3X3X3X3X3X",
"3X) H 3XT / 3X3X3X3X3X3X3X3X3X3X3X3X3X3X3X3X3X3X3X3X3X3X3X3X3X3X",
"oXj %X3X3Xm ~.3X3X3X3X3X3X3X3X3X3X3X3X3X3X3X3X3X3X3X3X3X3X3X3X3X",
"W K 3X3X!.`.D !.3X3X3X3X3X3X3X3X3X3X3X3X3X3X3X3X3X3X3X3X3X3X3X3X",
"p $X3X3X!.!.g A.!.3X3X3X3X3X3X3X3X3X3X3X3X3X3X3X3X3XK.T ^  X3X3X",
"W 3X3X3X3X3XH B P.3X3X3X3X3X3X3X3X3X3X3X3X3X3X3X3XS.Z S ).f XX3X",
"~.3X3X3X3X3X|.d M.3X3X3X3X3X3X3X3X3X3X3X3X3X3X3X3X4 s XX3X/.m %X",
"%X3X3X3X3X3X3XM O !.3X3X3X3X3X3X3X3X3X3X3X3X3X3XK.o ! 3X3X3XQ P ",
"3X3X3X3X3X3X3XG F 8 3X3X3X3X3X3X3X3X3X3X3X3X3X3X8 A ~.n.3X3XOXh ",
"3X3X3X3X3X3X3X~.M > C.3X3X3X3X3X3X3X3X3X3X3X3XG.= a %X3X3X3X3X( ",
"3X3X3X3X3X3X3X%Xy B.> 3X3X3X3X3X3X3X3X3X3X3X3X3 Z D 3X3X3X3X3X].",
"3X3X3X3X3X3X3X3XM ~., m.3X3X3X3X3X3X3X3X3X3XZ.< { { 3X3X3X3X3X%X",
"3X3X3X3X3X3X3X3XW K L.% K.3X3X3X3X3X3X3X3XU.- S.~ ).3X3X3X3X3X3X",
"3X3X3X3X3X3X3X3XL W 3XN., !.3X3X3X3X3X3X3X3 w %XN .X3X3X3X3X3X3X",
"3X3X3X3X3X3X3X3X Xv 3X3Xq 5 !.3X3X3X3XU.7 9 %X*Xp %X3X3X3X3X3X3X",
"3X3X3X3X3X3X3X3X<Xu @X3X3X0 ; e K.H.w * 0 3X3X/.m 3X3X3X3X3X3X3X",
"3X3X3X3X3X3X3X3XU./ T 3X3X3XV.2 % * 3 F.3X3X3XH _ 3X3X3X3X3X3X3X",
"3X3X3X3X3X3X3X3X*XT ] U.3X3X3X3X3X3X3X3X3X3X3X^ ).3X3X3X3X3X3X3X",
"3X3X3X3X3X3X3X3X*X*Xy *X3X3X3X3X3X3X3X3X3X3Xn.i @X3X3X3X3X3X3X3X",
"3X3X3X3X3X3X3X3X3X7XD ).3X3X3X3X3X3X3X3X3X3X~.M %X4X3X3X3X3X3X3X",
"3X3X3X3X3X3X3X3X3X7X^.m 3X3X3X3X3X3X3X3X3X3X( L 3X4X3X3X3X3X3X3X",
"3X3X3X3X3X3X3X3X3X3X3Xz ].3X3X3X3X3X3X3X3X|.i $X3X3X3X3X3X3X3X3X",
"3X3X3X3X3X3X3X3X3X3X3XXXf #X3X3X3X3X3X3X3XW L 3X3X3X3X7X3X3X3X3X",
"3X3X3X3X3X3X3X3X3X3X3X3XT / 3X3X3X3X3X3X'.l 3X3X3X*X*X7X3X3X3X3X",
"7X7X7X7X!.7X7X!.n.n.%X3X!.I z +Xn.n.n.(.l +Xn.n.<XU.U.*Xn.n.n.3X",
">X>X,X,X,X;X;X0XpXpXsXsXsXsX}.p [ ' N ] uXpXpXsXsXsXsXpXpXtXpXrX",
"%.-.=.&.&.:.;.W.j.0.g.f.6.<.r.7.V t C <.X >.6.e.0.<.<.  x.x.. sX",
"O.# + } | + @.E.t.p.c.g.4.6.k.f.f.r.q.0.4.0.f.i.r.f.i.e.x.n.f.kX",
"$.X.o.X.+. .$.=XU.n.gX9XtXrXlXqXn.3Xv.wX8XhX9X3X3XeXpXhXhXzXtXxX"
};
