/* XPM */
static char *render_ccg_base_surface[] = {
/* columns rows colors chars-per-pixel */
"32 32 79 1",
"  c #1E4318",
". c #20451A",
"X c #24481E",
"o c #254920",
"O c #284A22",
"+ c #32522D",
"@ c #355531",
"# c #385733",
"$ c #395834",
"% c #3E5C3A",
"& c #6F7815",
"* c #747D16",
"= c #475F43",
"- c #485E44",
"; c #446140",
": c #496345",
"> c #4C6648",
", c #4E684A",
"< c #546D51",
"1 c #586D54",
"2 c #587054",
"3 c #5D7459",
"4 c #60765C",
"5 c #657A62",
"6 c #687D65",
"7 c #6A7A68",
"8 c #7B7D7C",
"9 c #778117",
"0 c #7A841C",
"q c #768474",
"w c #7F827E",
"e c #7D8C7C",
"r c #A1AD23",
"t c #AFBC24",
"y c #B1BE26",
"u c #909942",
"i c #808F7F",
"p c #81917F",
"a c #B1BB40",
"s c #A0A37B",
"d c #B1C025",
"f c #B9C62E",
"g c #BBC750",
"h c #C9D64D",
"j c #CAD750",
"k c #CCD56C",
"l c #838483",
"z c #8A8B8A",
"x c #8B9289",
"c c #93938E",
"v c #929C8F",
"b c #949494",
"n c #979798",
"m c #939D91",
"M c #9A9B94",
"N c #9B9A9B",
"B c #99A396",
"V c #9CA39A",
"C c #A0A89F",
"Z c #ABAD94",
"A c #ADB380",
"S c #A3A3A2",
"D c #A6ACA5",
"F c #A8ADA7",
"G c #A8A8A8",
"H c #B0B0AF",
"J c #B3B5B3",
"K c #B6B8B5",
"L c #B7BAB8",
"P c #B8BAB6",
"I c #BCBDBB",
"U c #BFC0BE",
"Y c #BFC1C0",
"T c #C0BFBE",
"R c #C0BFC0",
"E c #C3C6A9",
"W c #C9CDA4",
"Q c #C2C2BE",
"! c #C0C0C0",
/* pixels */
"bGGGGGGGGGGGGGGFGGGGFGGGGGGGGGGn",
"GR!YY!YY!!!!RIKHJKIRUYRR!RYY!!RG",
"GURY!!!RUUKVe6<,,<6eVLUUYRY!YYRG",
"GRRR!!YYKv3+X.     X#3mKR!!!!RRG",
"G!RY!RRF4+.           +5FI!!Y!YG",
"G!YR!UB>. ..           X:VI!!RRG",
"GYYYUB%.                .;VI!!!G",
"G!YYG>.                  .>F!!YG",
"G!YP6X                  . .4K!!G",
"GRUB+                   .  +vI!G",
"GUK3        .              .4K!G",
"GRC%                      . $C!G",
"GUpX                        Xe!G",
"GI6  .                      .6IG",
"GK<                          1PG",
"GK<.                  .      <PG",
"GL<                          <KG",
"GP3                          1LG",
"GU6                          6IG",
"GUeo                        XeRG",
"G!V%                        #VRG",
"GRP3                    .   3K!G",
"G!Rm+                      +mRRG",
"GRUL6X                    X5P!RG",
"GRYYF,.                  X>FURRF",
"GU!!RV;X                 %VRUR!G",
"G!Y!UIB:X              X,BIYYR!G",
"G!!!UUUF7@            +7FU!R!Y!G",
"ZEEEEEE!Pm4$oX     o#1eJR!R!!!Gc",
"ahhjhjkWIPKMq1;-;-17zSSHLHHGL!Gb",
"rdttdfgAcNSzzlzzlwl8lllzzzzlnHSb",
"*9&900usMNSNNNGNnnxbnNnnnNNSHKHN"
};
