/* XPM */
static char *render_ccg_simple_math[] = {
/* columns rows colors chars-per-pixel */
"32 32 98 2",
"   c #478FD9",
".  c #5090D7",
"X  c #5093D8",
"o  c #5996D6",
"O  c #5B98D8",
"+  c #6295D4",
"@  c #639AD6",
"#  c #649ED8",
"$  c #6D96D2",
"%  c #6D9AD3",
"&  c #7398CF",
"*  c #7C95CB",
"=  c #779FD3",
"-  c #6DA1D6",
";  c #6EA3D8",
":  c #75A4D4",
">  c #79A3D5",
",  c #7EA9D4",
"<  c #B5A1BD",
"1  c #BBA4BF",
"2  c #879FCE",
"3  c #8F96C7",
"4  c #8B9DC9",
"5  c #8CA6CD",
"6  c #81A7D4",
"7  c #82A9D5",
"8  c #89A3D0",
"9  c #8AACD1",
"0  c #8CB1D6",
"q  c #93A5CE",
"w  c #91A8CE",
"e  c #93ACD0",
"r  c #9FAFD0",
"t  c #93B4D4",
"y  c #9CB4D4",
"u  c #9DB9D4",
"i  c #A4A8CA",
"p  c #A9A4C5",
"a  c #A4B0CD",
"s  c #A0B8CE",
"d  c #A9B4CC",
"f  c #A4B6D0",
"g  c #A0B9D5",
"h  c #A9B6D0",
"j  c #BEA9C2",
"k  c #B2B3C7",
"l  c #B1B4C8",
"z  c #B2BCCC",
"x  c #BFB0C6",
"c  c #BFBFCB",
"v  c #B8BFD3",
"b  c #ABC0D1",
"n  c #B2C1CD",
"m  c #BBC5CC",
"M  c #BFC8CF",
"N  c #B1C4D3",
"B  c #B9C4D1",
"V  c #BECAD4",
"C  c #C49BB5",
"Z  c #CB95B4",
"A  c #CA9BB6",
"S  c #C3A1B6",
"D  c #C4A5BA",
"F  c #C3ACBA",
"G  c #CBA1B8",
"H  c #CAABBC",
"J  c #C4B3BD",
"K  c #C2B9BE",
"L  c #C9B1BE",
"P  c #D2A4BB",
"I  c #D1ACBE",
"U  c #C4B5C3",
"Y  c #C4BCC1",
"T  c #C9B5C0",
"R  c #CBBAC2",
"E  c #CCBFCD",
"W  c #D4B3C1",
"Q  c #D3BBC5",
"!  c #DBB9C5",
"~  c #C1C1C1",
"^  c #C4C5CD",
"/  c #CAC3C5",
"(  c #CEC3C8",
")  c #C8C8C6",
"_  c #CCCBC9",
"`  c #C2CCD1",
"'  c #CCCED2",
"]  c #CCD1D1",
"[  c #D3C4C8",
"{  c #D2CCCB",
"}  c #DBC4CA",
"|  c #DBCBCD",
" . c #D2D1CD",
".. c #D9D1CF",
"X. c #D6D5D0",
"o. c #DBD2D1",
"O. c #DAD9D3",
"+. c #E0C6CB",
/* pixels */
"~ ~ ~ ~ ~ ~ ~ 1 ~ ~ ~ ~ ~ ~ ~ ~ ~ ~ ~ ~ ~ ~ ~ ~ ~ ~ K ~ n ~ ~ ~ ",
"~ ~ ~ ~ ~ c ~ ) ~ ~ ~ ~ ~ ~ 1 ~ ~ ~ ~ ~ ~ ~ ~ ~ ~ ~ ~ ~ ~ ~ ~ ~ ",
"~ ~ ~ ~ ~ ~ ~ ) ~ ~ ~ ~ ~ ~ ~ ~ ~ ~ ~ ~ ~ ~ ~ ~ ~ ~ K ~ ~ ~ ~ K ",
"~ ~ ~ ) ) ) ) ) ) ) ) ) ~ ~ ~ ~ ~ ~ ~ ~ ~ ~ ~ ~ ~ ~ ~ ~ ~ ~ ~ ~ ",
"~ ~ ) ) _ _  ._ _ _ ) ) ) ~ ~ ~ ~ ~ ~ ~ ~ ~ ~ ~ ~ ~ k ~ ~ ~ ~ K ",
") ) _  . .X.X. . . ._ ) ) ~ ~ ~ ~ ~ ~ ~ ~ ~ ~ ~ ~ ~ ~ ~ ~ ~ ~ ~ ",
") )  .,   .           M ) ~ m ~ ~ ~ ~ ~ ~ ~ ~ ~ ~ ~ ~ ~ ~ ~ ~ ~ ",
") _ b   , o.O.X.| q o K / ) ) ) ~ ~ ) ~ ~ ~ ~ ~ ~ ~ ~ ~ ~ ~ ~ ~ ",
"~ _  .-   = +.} ! j * A R ) ) _ ) _ ) ) ) ~ ~ ~ ~ ~ ~ ) ~ ~ ~ ~ ",
") )  .[ %   > | } R G A R _ { { { { _ _ ) ) ~ ~ ~ ~ ~ ~ ) ) ) ) ",
"~ ) _ [ ! %   > X.{ R T (  .N #   X ` > n ) ) ) ~ ~ ) ) ) 9 n ) ",
"~ ) ) _ [ W $   i { _ _ o.g O ' X.| 9 s _ _ ) _ ~ ~ ) ) ) ) o ) ",
"~ ) ) _  .[ + 3 H R _ X.O.O u o.| d % Q Q [ _  ._ _ _ _  ._ o ~ ",
"~ ~ ) _  .t q G A R _ X.X       v O r Q ( - X ` X.t   n  . .X i ",
") ) _  .m t { L I [  .O.V   ( } v   E Q ^ V O 7 t s { _ _  .X < ",
") _  .X.t ..| Q { ....O.u X ! ! r @ W Q ....r   d { Q / _ m   < ",
"_ { ] 0 O.o.....X.t b X.s & ! +.6 = W Q X.o.r   q Q [ [ { t O G ",
"{ ] ;   X         : _ X.: 4 W { 7 5 I E X.t t q . U z { X.: 8 C ",
"-           X   , { [ +.# 5 W +.9 5 H d   t [ U . + E { ` O U Z ",
") / W W P P P P P I R )   s W ) z & G ( _ R L H G A H / : d C C ",
"U L G A Z Z Z Z A I } m X F F / R 4 < K K H H J H A S w d F C F ",
"Y 1 L J L J L K K [  ., 4 S F ~ ) F D K K J K ~ ~ K K ~ J S F K ",
"~ ~ ~ ~ ) ~ ) _ s . . 9 F C K ~ ) K F 1 / ~ ~ ~ ~ ~ ~ ~ J F 1 ~ ",
"~ ~ ~ ~ ~ ~ ~ ~ ~ / K F S S K ~ Y ~ K K ~ ~ ~ ~ ~ ~ ~ ) 1 ~ ~ ~ ",
"~ ~ ~ ~ 1 ~ ~ ) ~ K < < S F ~ ~ ~ ~ ~ ~ ~ ~ K ~ ~ ~ ~ ~ ~ ~ ~ ~ ",
"~ ~ ~ ~ ) ~ ~ ~ K ~ S F K ~ ~ ~ ~ ~ ~ ~ ~ k ~ ~ ~ ~ ~ ~ ~ 1 ~ ~ ",
"~ ~ ~ ~ ~ ~ ~ ~ ~ ~ ~ K ~ ~ ~ K ~ ~ ~ ~ ~ ~ ~ ~ ~ ~ ~ ~ ~ ~ ~ ~ ",
"~ ~ ~ ~ ~ ~ ~ ~ ~ ~ ~ ~ K ~ ~ ~ K ~ ~ ~ ~ ~ ~ ~ ~ ~ ~ ~ ~ ~ ~ ~ ",
"~ ~ ~ ~ ~ ~ ~ ~ ~ ~ ~ ~ ~ ~ ~ ~ ~ ~ ~ ~ ~ ~ K ~ ~ ~ ~ ~ ~ ~ ~ ~ ",
"~ 1 ~ ~ ~ ~ ~ ~ ~ ~ ~ ~ ~ ~ k ~ ~ ~ ~ ~ ~ ~ ~ ~ ~ ~ ~ ~ ~ ~ ~ ~ ",
"~ ~ ~ ~ ~ ~ ~ ~ ~ K ~ ~ ~ ~ ~ ~ ~ ~ ~ ~ ~ ~ ~ ~ ~ ~ ~ K ~ ~ ~ ~ ",
"~ ~ ~ ~ ~ ~ ~ ~ ~ ~ ~ ~ ~ ~ ~ ~ ~ ~ K ~ ~ ~ ~ K ~ ~ ~ ~ ~ ~ ~ ~ "
};
