/* XPM */
static char *render_lyrid_passthrough[] = {
/* columns rows colors chars-per-pixel */
"32 32 163 2",
"   c #333333",
".  c #37393C",
"X  c #35475C",
"o  c #444444",
"O  c #4E4E4E",
"+  c #535353",
"@  c #5B5B5B",
"#  c #526378",
"$  c #5C6D7F",
"%  c #646464",
"&  c #646668",
"*  c #64686C",
"=  c #6B6B6B",
"-  c #626C78",
";  c #6E6F71",
":  c #6F7275",
">  c #747474",
",  c #757678",
"<  c #7B7B7B",
"1  c #1757A2",
"2  c #36659A",
"3  c #3D6798",
"4  c #3B689C",
"5  c #2E66A7",
"6  c #2B65A9",
"7  c #2A6EBC",
"8  c #3D6BA1",
"9  c #3D6FA9",
"0  c #356FB2",
"q  c #3775BB",
"w  c #3C73B2",
"e  c #1A6BC9",
"r  c #166FD5",
"t  c #1B71D5",
"y  c #0972EC",
"u  c #0574F4",
"i  c #0076FD",
"p  c #0578FC",
"a  c #0B7AFA",
"s  c #1273E3",
"d  c #117CF8",
"f  c #2172CF",
"g  c #2974CA",
"h  c #4A719D",
"j  c #546981",
"k  c #5D7087",
"l  c #597596",
"z  c #5E7895",
"x  c #406FA4",
"c  c #4677AE",
"v  c #4973A3",
"b  c #4877AC",
"n  c #4B79AE",
"m  c #4D7BB0",
"M  c #5A7FAA",
"N  c #517EB3",
"B  c #707D8D",
"V  c #1C80F2",
"C  c #3F89DE",
"Z  c #2783EE",
"A  c #2C85EC",
"S  c #2F88EF",
"D  c #2183F4",
"F  c #2886F1",
"G  c #2D88F0",
"H  c #3386E4",
"J  c #368BED",
"K  c #3988E2",
"L  c #3B8DEB",
"P  c #5F84AF",
"I  c #5381B5",
"U  c #5584B9",
"Y  c #5886BB",
"T  c #5B89BE",
"R  c #7F8080",
"E  c #728397",
"W  c #7B8590",
"Q  c #7B8C9E",
"!  c #6989AE",
"~  c #668CB7",
"^  c #618ABA",
"/  c #6B8FB7",
"(  c #6890BE",
")  c #768FAC",
"_  c #7A93AF",
"`  c #7295BD",
"'  c #7893B1",
"]  c #4686D0",
"[  c #478AD7",
"{  c #538ACA",
"}  c #5D8CC1",
"|  c #5A8EC9",
" . c #548ED1",
".. c #5990CE",
"X. c #5492DA",
"o. c #4C93E6",
"O. c #5396E4",
"+. c #5C9AE1",
"@. c #618EC3",
"#. c #6290C5",
"$. c #6493C9",
"%. c #6C94C3",
"&. c #6896CC",
"*. c #6A98CE",
"=. c #6D9BD1",
"-. c #699EDC",
";. c #7197C2",
":. c #739AC5",
">. c #7099C9",
",. c #7A9DC6",
"<. c #719FD5",
"1. c #73A1D6",
"2. c #73A3D9",
"3. c #7BA6D7",
"4. c #7AA9DE",
"5. c #7DABE1",
"6. c #838383",
"7. c #8B8B8B",
"8. c #838B93",
"9. c #85919E",
"0. c #8E9094",
"q. c #8C959E",
"w. c #939393",
"e. c #9B9B9B",
"r. c #8493A4",
"t. c #8196AE",
"y. c #8C9AAB",
"u. c #929AA4",
"i. c #939EAB",
"p. c #9C9FA3",
"a. c #85A0BF",
"s. c #8DA2BB",
"d. c #97A2AE",
"f. c #9DA0A3",
"g. c #96A4B5",
"h. c #A3A3A3",
"j. c #A5A6A8",
"k. c #A5A9AD",
"l. c #AAAAAA",
"z. c #A1A8B1",
"x. c #B3B3B3",
"c. c #B6B9BB",
"v. c #BCBCBC",
"b. c #83A9D4",
"n. c #8BABD1",
"m. c #95AECB",
"M. c #92AFD0",
"N. c #97B1CE",
"B. c #9DB0C6",
"V. c #9BB2CC",
"C. c #82B1E6",
"Z. c #85B3E9",
"A. c #8AB9EE",
"S. c #8DBCF1",
"D. c #A0B4CB",
"F. c #A8B7C9",
"G. c #AEBAC7",
"H. c #ABB8C8",
"J. c #B4BCC5",
"K. c #BABEC3",
"L. c #96C4FA",
"P. c #BEC0C2",
"I. c #C0C0C0",
/* pixels */
"I.I.I.I.I.I.I.I.I.I.I.I.I.I.I.I.I.I.I.I.I.I.I.I.I.I.I.I.I.I.I.I.",
"I.I.I.I.I.I.I.I.I.I.I.v.x.x.l.x.l.x.x.x.v.I.I.I.I.I.I.I.I.I.I.I.",
"I.I.I.I.I.I.I.I.v.c.l.e.e.e.h.e.e.w.w.e.p.s.B.J.H.D.V.V.M.N.b.K.",
"I.I.I.I.I.I.v.v.l.e.w.w.e.h.h.h.w.6.6.7.) ] H Z p p p i i i i F.",
"I.I.I.I.I.I.x.e.7.w.w.e.e.h.j.h.w.R 6.w.h.i.| [ A a p i i i D F.",
"I.I.I.I.I.x.7.6.7.w.e.e.h.h.h.h.e.6.< 7.h.l.s.$. .H d i i i G H.",
"I.I.I.I.x.w.6.7.7.w.e.e.e.h.h.h.l.w.< R e.g.,.&.$...K a i i G I.",
"I.I.I.x.7., 6.6.7.w.w.e.e.e.h.l.l.e.6.< Q ` *.&.*.&...H a i L I.",
"I.I.I.h.< < R 7.7.w.w.e.e.h.h.j.l.l.0.z N #.*.*.&.&.$. .V i O.I.",
"I.I.x.w.< < 6.6.w.w.w.e.e.h.h.l.l.k.' n n T #.#.#.@.#.@.[ a -.P.",
"I.v.l.7.< < 6.7.w.w.e.e.e.h.h.h.p.( T I I U } } } } } T { d 2.P.",
"I.v.h.6.> < 6.7.7.w.w.w.e.w.w.q./ T $.#.Y T T $.$.#.` f.t.H n.P.",
"I.v.e.6.< < 6.6.7.7.7.7.w.w.r.( >.4.C.4.T } $.*.*.>.j.l.h.,.m.I.",
"v.x.w.6.< < R R 6.6.7.w.0.r.%.*.5.S.L.A.$.Y #.*.,.k.l.l.j.j.c.I.",
"I.l.w.6.> > < R 6.7.7.w._ #.$.*.5.A.L.A.*.Y } :.d.l.l.h.h.h.x.I.",
"I.h.7.6.; > < 6.7.w.w.) T T #.&.<.5.Z.C.*.Y ~ d.l.l.l.j.h.h.x.I.",
"v.e.= = = , < 6.6.8.! } Y } } $.&.=.1.1.*.^ 9.h.l.h.h.h.h.e.x.I.",
"v.w.O o @ , < < W P U Y T } } } #.$.&.&.` q.7.e.h.h.h.h.e.h.x.I.",
"I.e.o   + ; < B P I U U U } } } #.T #.%.i.w.7.e.h.h.h.h.h.h.v.I.",
"I.l.+   o % l b m m I U U U U } } } ( y.e.w.7.e.l.l.l.h.h.l.v.I.",
"I.x.=   . 5 g c n m N I U U Y } T ^ r.w.0.6.7.j.x.l.l.h.e.l.v.I.",
"I.I.7.X 1 u s q n n m I I I U I I E < < > ; 6.l.l.l.h.e.w.x.v.I.",
"P.P.a.e i i u t w b m m n n c v $ % = % = % = 7.e.e.w.7.e.v.I.I.",
"J.n.S p i i p u f 9 9 9 8 4 3 # % = = < < > % < 7.7.6.7.l.I.I.I.",
"n.S p p p i i i y e 6 2 2 3 j ; > < R 7.7.> = < 6.7.R e.x.I.I.I.",
"n.J p p i i i i i y r 7 9 k > < R 6.6.6.6.> % > < < 7.x.I.I.I.I.",
"P.D.o.a i i i i i i u r h : , < < < R R < = @ = = 6.l.I.I.I.I.I.",
"P.P.H.+.d i i i i i p 0 * = = > > > > < > = @ % 6.l.v.I.I.I.I.I.",
"I.I.I.J.-.d p i i i w - % % % = ; > > > < ; > w.x.I.I.I.I.I.I.I.",
"I.I.I.I.J.2.F p i X.u.7.> = % % = > > 6.0.h.x.v.I.I.I.I.I.I.I.I.",
"I.I.I.I.I.J.3.J O.G.v.v.x.h.w.w.w.e.l.l.I.I.I.I.I.I.I.I.I.I.I.I.",
"I.I.I.I.I.I.K.V.v.I.I.I.I.v.v.I.v.I.I.I.I.I.I.I.I.I.I.I.I.I.I.I."
};
