/* XPM */
static char *render_ccg_base_phong[] = {
/* columns rows colors chars-per-pixel */
"32 32 131 2",
"   c #1F321B",
".  c #21331D",
"X  c #233621",
"o  c #253822",
"O  c #283B26",
"+  c #2C3E29",
"@  c #2D402B",
"#  c #30432D",
"$  c #334530",
"%  c #364933",
"&  c #384735",
"*  c #394B35",
"=  c #3B4E39",
"-  c #3E513B",
";  c #414E3F",
":  c #40533D",
">  c #50643B",
",  c #54693F",
"<  c #6F7815",
"1  c #747D16",
"2  c #435541",
"3  c #465943",
"4  c #485245",
"5  c #495B45",
"6  c #4C5E49",
"7  c #515F4E",
"8  c #4E604B",
"9  c #51634E",
"0  c #5B6D47",
"q  c #536651",
"w  c #556852",
"e  c #5A6558",
"r  c #596B55",
"t  c #5B6D59",
"y  c #5D705B",
"u  c #606D5E",
"i  c #60735D",
"p  c #637560",
"a  c #667963",
"s  c #697766",
"d  c #6C756A",
"f  c #687B66",
"g  c #6B7D69",
"h  c #737D72",
"j  c #7B7D7C",
"k  c #778117",
"l  c #7A841C",
"z  c #6D816B",
"x  c #738263",
"c  c #71836E",
"v  c #738571",
"b  c #758873",
"n  c #798672",
"m  c #7B827A",
"M  c #788B76",
"N  c #7C8C7A",
"B  c #7C907A",
"V  c #A1AD23",
"C  c #AFBC24",
"Z  c #B1BE26",
"A  c #909942",
"S  c #808B75",
"D  c #808C7F",
"F  c #81937E",
"G  c #B1BB40",
"H  c #A0A37B",
"J  c #B1C025",
"K  c #B9C62E",
"L  c #BBC750",
"P  c #C9D64D",
"I  c #CAD750",
"U  c #CCD56C",
"Y  c #828483",
"T  c #828E80",
"R  c #878F88",
"E  c #888886",
"W  c #8A8B8A",
"Q  c #839381",
"!  c #859881",
"~  c #8B938A",
"^  c #899C86",
"/  c #8B9A89",
"(  c #93938E",
")  c #929C8F",
"_  c #949494",
"`  c #979798",
"'  c #929C91",
"]  c #9A9B94",
"[  c #9B9B9A",
"{  c #90A28D",
"}  c #95A393",
"|  c #98A696",
" . c #9DA39C",
".. c #9AAC97",
"X. c #9DAC9A",
"o. c #9EB09A",
"O. c #A0A59E",
"+. c #A1AC9F",
"@. c #ABAD94",
"#. c #ADB380",
"$. c #A3A4A2",
"%. c #A3AAA3",
"&. c #A8ADA6",
"*. c #A8A8A8",
"=. c #A2B5A0",
"-. c #AEB2AD",
";. c #A9BCA6",
":. c #ACBEAB",
">. c #B0B2AE",
",. c #B2B4B3",
"<. c #B4B9B3",
"1. c #B7B9B8",
"2. c #BBBCBB",
"3. c #BFBFC0",
"4. c #B2C5AE",
"5. c #BFC0BE",
"6. c #B9CCB7",
"7. c #BBCEB8",
"8. c #BFC0C0",
"9. c #C0BFBF",
"0. c #C0BFC0",
"q. c #C3C6A9",
"w. c #C9CDA4",
"e. c #C1C1BE",
"r. c #C0C0C0",
"t. c #C7DAC3",
"y. c #C8DAC5",
"u. c #CEE0CB",
"i. c #D2E4D0",
"p. c #DAECD7",
"a. c #E1F3DD",
/* pixels */
"_ *.*.*.*.*.*.*.*.*.*.*.*.*.*.*.*.*.*.*.*.*.*.*.*.*.*.*.*.*.*.[ ",
"*.0.r.r.r.r.5.r.8.8.8.r.8.8.2.1.1.2.2.0.0.0.0.r.0.0.r.r.r.r.0.*.",
"*.5.0.r.r.r.r.r.8.8.2.>.*.' Q T Q Q ~ O.>.2.5.8.8.r.r.r.8.r.0.*.",
"*.0.0.0.r.r.r.r.2.>.} N c z g g a p p f v / &.2.0.8.8.8.0.0.0.*.",
"*.r.8.8.r.r.5.2.X.Q v c z z z z g f a i y y z ' <.5.0.0.r.r.r.*.",
"*.8.8.5.r.5.<.| M z c c v c c z z g g a p y t a Q -.0.0.r.0.0.*.",
"*.8.5.8.5.<.} M c v b c v c c c z z z f a i y r p Q -.5.r.r.r.*.",
"*.r.8.5.2.| M z v c b b b b b c z z g f a i y r w t N <.r.0.r.*.",
"*.r.8.0.X.N z c b b b b b M M b z z z f a a y t w 8 w ~ 2.0.0.*.",
"*.8.r.>.B z c z c b b B ! ^ ^ ! M z g g a y y t w 8 5 r O.0.0.*.",
"*.8.5.| z z z z c b B ^ o.4.;...! b z a a y y t w 9 5 : b 5.0.*.",
"*.8.>.N f z z z c b Q ..7.i.u.4.{ M z f f y y r w 6 5 : w *.r.*.",
"*.0.%.g a g z z c b ! =.y.a.p.6.} M z a p y t r q 9 5 - - ~ 0.*.",
"*.0.) i i g z z z b F X.7.u.t.;.^ b g a p y t r q 6 3 - * h 2.*.",
"*.2.Q i a a g z c c b ^ X.;.=.{ B z a i y y r w 9 6 2 - $ s 2.*.",
"*.2.D t i a g f z g z M F ! F M z a i i t t w q 8 5 2 = @ u 1.*.",
"*.2.N t i p a a f g g z z v z g a p i y r r w q 6 3 2 % @ t 1.*.",
"*.2.D w t i i p a i a g a a i i i i t t r w q 6 5 2 = % O t 1.*.",
"*.2.~ w w t i i i i i i i i i i y t t w 0 8 8 8 3 - = # O d 3.*.",
"*.3.| t q r t t y i i i i i y t t r w w 8 8 8 8 - = % @ + R 2.*.",
"*.r.>.d 9 w w r t t y t t r t r w w w 8 8 8 : : = & # O 2 $.3.*.",
"*.0.2.Q 8 6 9 q w w r w r r w w w 8 8 8 8 : : - * $ + X d 1.3.*.",
"*.0.0.%.i 6 8 8 9 9 q q 9 9 9 9 8 8 8 8 : : - * $ + X = [ 8.3.*.",
"*.0.0.2./ y 5 5 5 8 8 8 8 8 8 5 8 : : : - - % $ + O # h 2.0.3.*.",
"*.0.r.r.<.b 0 : : 5 3 5 5 3 5 3 2 2 - = * & # + o + t -.0.0.0.*.",
"*.0.r.r.5.&.x , : : : : : : : - - = * % $ + + o + 7 O.0.0.0.0.*.",
"*.r.0.r.0.e.&.x > % % * * * * % % $ $ @ O o . + u %.2.0.r.0.r.*.",
"*.r.5.r.r.0.5.-.S 6 $ # # # # # @ O O X .   $ h -.0.0.0.0.r.0.*.",
"@.q.q.q.q.q.q.e.2.O.d : + O o . . . . o & u Y ,.r.0.0.0.r.8.*.~ ",
"Z P P P P P U w.9.1.,.[ j e 6 4 : 4 e d W $.$.*.1.1.*.*.2.0.*._ ",
"V K C Z K K L #.( [ [ W W E E E j Y Y j Y E E W W W W E [ *.*._ ",
"< 1 < k k l A H ] [ *.[ [ [ *.$.` ` W _ ` [ ` _ ` [ [ *.*.,.>.[ "
};
