/* XPM */
static char *mib_amb_occlusion_transp[] = {
/* columns rows colors chars-per-pixel */
"32 32 213 2",
"   c gray7",
".  c #131313",
"X  c #181717",
"o  c #191919",
"O  c #1B1B1B",
"+  c #1C1C1D",
"@  c #1E1E1E",
"#  c #1E1F1E",
"$  c gray12",
"%  c #201F20",
"&  c #232323",
"*  c gray15",
"=  c #272727",
"-  c #282828",
";  c #2C2C2C",
":  c #2D2E2D",
">  c #303130",
",  c #313131",
"<  c gray20",
"1  c #343534",
"2  c #373737",
"3  c gray22",
"4  c #3A3A3A",
"5  c gray23",
"6  c gray24",
"7  c #3F3F3F",
"8  c gray25",
"9  c #414141",
"0  c gray28",
"q  c #474848",
"w  c #4C4C4C",
"e  c gray30",
"r  c #4E4E4E",
"t  c #4E4E4F",
"y  c gray31",
"u  c gray32",
"i  c #535353",
"p  c #535453",
"a  c gray33",
"s  c #555555",
"d  c gray34",
"f  c gray35",
"g  c #5A5A5A",
"h  c #5B5B5B",
"j  c #5F6060",
"k  c #606161",
"l  c gray38",
"z  c gray39",
"x  c #676767",
"c  c #676867",
"v  c #6C6C6C",
"b  c #6D6D6D",
"n  c #6E6E6D",
"m  c gray43",
"M  c #727172",
"N  c #727272",
"B  c #737272",
"V  c gray45",
"C  c #747474",
"Z  c gray46",
"A  c #767676",
"S  c #777777",
"D  c gray47",
"F  c #797979",
"G  c gray49",
"H  c gray50",
"J  c #818181",
"K  c #848484",
"L  c gray52",
"P  c #888788",
"I  c #898989",
"U  c #8B8B8B",
"Y  c #8D8D8D",
"T  c gray56",
"R  c #90908F",
"E  c #909090",
"W  c gray57",
"Q  c #919292",
"!  c #939392",
"~  c #939393",
"^  c gray58",
"/  c #959595",
"(  c gray59",
")  c #979797",
"_  c #989898",
"`  c #999898",
"'  c #9A9A9A",
"]  c #9B9B9B",
"[  c #9C9D9D",
"{  c #9D9D9D",
"}  c gray62",
"|  c #9F9F9F",
" . c gray63",
".. c gray64",
"X. c #A4A4A3",
"o. c #A4A4A4",
"O. c gray65",
"+. c #A7A7A7",
"@. c #A8A8A7",
"#. c gray66",
"$. c #AAAAAA",
"%. c gray67",
"&. c #ACACAC",
"*. c gray68",
"=. c #AEAEAE",
"-. c #AEAFAE",
";. c #AFAFAF",
":. c #B1B0B0",
">. c gray70",
",. c #B4B4B4",
"<. c #B6B6B6",
"1. c #B7B7B7",
"2. c gray72",
"3. c #B9B8B9",
"4. c #B9B9B9",
"5. c gray73",
"6. c #BCBCBC",
"7. c gray74",
"8. c gray",
"9. c gray75",
"0. c #BFC0BF",
"q. c #C0C0C0",
"w. c #C1C1C1",
"e. c #C1C2C2",
"r. c #C2C1C2",
"t. c gray76",
"y. c #C3C3C3",
"u. c gray77",
"i. c #C5C5C5",
"p. c #C6C6C6",
"a. c gray78",
"s. c #C8C8C8",
"d. c gray79",
"f. c #CACACA",
"g. c #CBCBCB",
"h. c #CCCBCB",
"j. c gray80",
"k. c #CDCDCD",
"l. c #CECECE",
"z. c #CECFCE",
"x. c gray81",
"c. c #CFD0CF",
"v. c #D0D0D0",
"b. c gray82",
"n. c #D2D2D2",
"m. c #D2D3D3",
"M. c LightGray",
"N. c gray83",
"B. c #D5D4D4",
"V. c #D5D5D4",
"C. c #D5D5D5",
"Z. c gray84",
"A. c #D7D7D7",
"S. c #D8D8D7",
"D. c #D8D8D8",
"F. c gray85",
"G. c #D9D9DA",
"H. c #D9DADA",
"J. c #DADADA",
"K. c #DADBDA",
"L. c gray86",
"P. c gainsboro",
"I. c #DDDDDD",
"U. c #DEDDDE",
"Y. c gray87",
"T. c #DFDFDF",
"R. c #DFDFE0",
"E. c gray88",
"W. c #E0E1E0",
"Q. c #E0E1E1",
"!. c #E1E1E1",
"~. c #E1E1E2",
"^. c #E2E2E2",
"/. c gray89",
"(. c #E3E3E4",
"). c #E4E4E4",
"_. c gray90",
"`. c #E6E6E6",
"'. c #E6E7E6",
"]. c #E7E7E7",
"[. c gray91",
"{. c #E9E9E9",
"}. c #EAEAEA",
"|. c gray92",
" X c #ECECEC",
".X c #ECECED",
"XX c gray93",
"oX c #EEEEEE",
"OX c #EFEFEF",
"+X c gray94",
"@X c #F0F0F1",
"#X c #F1F1F1",
"$X c gray95",
"%X c #F3F3F3",
"&X c #F4F4F4",
"*X c #F5F5F4",
"=X c gray96",
"-X c #F5F6F6",
";X c #F6F5F5",
":X c #F6F6F6",
">X c gray97",
",X c #F8F8F7",
"<X c #F8F8F8",
"1X c #F8F9F9",
"2X c #F9F9F9",
"3X c #FAFAF9",
"4X c gray98",
"5X c #FBFBFB",
"6X c gray99",
"7X c #FCFDFD",
"8X c #FDFDFD",
"9X c #FEFEFE",
"0X c gray100",
/* pixels */
"w.w.w.w.w.w.w.w.w.w.u.h.D.).oX,X;XoX).D.h.a.q.w.w.w.w.w.w.w.w.w.",
"w.w.w.w.w.w.w.w.w.h.E.&X7X7X7X7X7X7X7X7X;X^.h.w.w.w.w.w.w.w.w.w.",
"w.w.w.w.w.w.w.w.B.oX5X7X7X7X7X7X7X7X7X7X7X5X XB.y.w.w.w.w.w.w.w.",
"w.w.w.w.w.w.w.N.$X5X7X7X7X7X7X7X7X7X7X7X7X7X5X+XN.u.w.w.w.w.w.w.",
"w.w.w.w.w.w.x. X4X4X5X7X7X7X7X7X7X7X7X7X7X7X6X>X|.n.w.w.w.w.w.w.",
"w.w.w.w.w.a.).;X,X4X7X7X7X7X7X7X7X7X7X7X7X7X4X,X;X(.a.w.w.w.w.w.",
"w.w.w.w.w.n. X;X4X6X7X7X7X7X7X7X7X7X7X7X7X7X6X,X%X XM.w.w.w.w.w.",
"w.w.w.w.a.Y. X$X,X6X7X7X7X7X7X7X7X7X7X7X7X7X4X,X%X XD.a.w.w.w.w.",
"w.w.w.w.a.W.|.$X&X<X4X6X6X7X7X7X7X7X6X6X6X4X;X%X$X[.R.a.w.w.w.w.",
"w.w.w.w.a.W.).oX$X;X<X4X6X6X7X7X7X7X6X6X4X<X;X$X X).L.a.w.w.w.w.",
"w.w.w.w.a.D.W.[. X$X&X>X4X4X4X4X7X7X4X<X;X;X$X X`.W.A.a.w.w.w.w.",
"w.w.w.w.a.M.D.W.)..X@X%X;X;X4X<X4X,X;X&X$XOX X`.W.D.l.y.w.w.w.w.",
"w.w.w.w.4.s.n.D.W.).[. X$XoX;X$X$X%X$X X X[.(.R.D.l.a.4.w.w.w.w.",
"w.w.w.w.*.6.a.x.N.D.W./.).[.[.|.[.[.[.).(.R.D.N.l.y.4.*.w.w.w.w.",
"w.w.w.w.+.*.4.w.g.v.N.D.Y.Y.R.W.E.T.E.L.D.N.x.s.w.1.%.O.w.w.w.w.",
"w.w.w.w.%.' +.:.4.w.a.s.x.n.n.n.n.n.n.x.s.a.8.4.;.O.) *.w.w.w.w.",
"w.w.w.w.<.U ! { +.*.<.4.6.6.w.w.w.w.w.6.4.:.*.+.{ ! P 4.w.w.w.w.",
"w.w.w.w.6.' Z K R ) {  .%.*.;.*.*.*.%.%.X.{ ' T K V ' w.w.w.w.w.",
"w.w.w.w.N.Y.M x Z G L T R ! / ) / / ! T T K G Z x M R.W.w.w.w.w.",
"w.w.x. X7X7X1.d d z c v Z Z D D D D Z M v x j a i <.7X7X$Xn.w.w.",
"s.Y.;X7X7X7X X{ 7 6 q t a d h h h h d i t 0 4 6 { ).7X7X7X7X).a.",
"D.7X7X7X7X7X XD.~ 8 = : 1 3 4 4 4 4 3 , ; & 6 ! N.].7X7X7X7X7X+X",
"y.D.6X7X7X7X XY.a./ d = o + $ $ % $ O X = i ! w.L.[.7X7X7X7X^.s.",
"w.w.s.}.7X7X$XE.x.>.~ v t : $   . $ , t v ! *.a.W. X7X7X$XN.w.w.",
"w.w.w.w.D.4X,X[.N.w.+.T Z j i w e a z Z U ..6.M.[.;X7X(.y.w.w.w.",
"w.w.w.w.w.s.).$X(.x.4.o.R H Z v v Z J ! ..<.x.T.%X Xx.w.w.w.w.w.",
"w.w.w.w.w.w.w.N.).W.x.6.*. ./ ! ! )  .*.6.x.T.[.Y.a.w.w.w.w.w.w.",
"w.w.w.w.w.w.w.w.a.L.).N.s.6.2.>.>.2.w.s.N.W.W.h.w.w.w.w.w.w.w.w.",
"w.w.w.w.w.w.w.w.w.w.x.(.(.D.N.B.B.N.Y.W.[.N.a.w.w.w.w.w.w.w.w.w.",
"w.w.w.w.w.w.w.w.w.w.w.a.W.&X$X X|.oX&X[.n.w.9.w.w.w.w.w.w.w.w.w.",
"w.w.w.w.w.w.w.w.w.w.w.w.w.B.;X7X7X4XE.u.w.w.w.w.w.w.w.w.w.w.w.w.",
"w.w.w.w.w.w.w.w.w.w.w.w.w.w.a.). Xh.w.q.w.w.w.w.w.w.w.w.w.w.w.w."
};
