/* XPM */
static char *render_ccg_bump_map2[] = {
/* columns rows colors chars-per-pixel */
"32 32 160 2",
"   c #030203",
".  c #040504",
"X  c #0B0A0B",
"o  c #0F090A",
"O  c #0C0D0C",
"+  c #0B1114",
"@  c #131213",
"#  c #141514",
"$  c #1B1A1B",
"%  c #1C1D1C",
"&  c #232223",
"*  c #2B2A2B",
"=  c #292F2E",
"-  c #2C2D2C",
";  c #333233",
":  c #343534",
">  c #3B3A3B",
",  c #3C3D3C",
"<  c #2E355C",
"1  c #2E3A60",
"2  c #32445E",
"3  c #3E405F",
"4  c #354263",
"5  c #324966",
"6  c #354D63",
"7  c #374968",
"8  c #3E4363",
"9  c #375068",
"0  c #3A5166",
"q  c #3A536E",
"w  c #3F5370",
"e  c #3A686E",
"r  c #3C687C",
"t  c #4B252A",
"y  c #5B2D2D",
"u  c #434243",
"i  c #444544",
"p  c #4B4A4B",
"a  c #4C4D4C",
"s  c #535253",
"d  c #545554",
"f  c #5B5A5B",
"g  c #5C5D5C",
"h  c #46506F",
"j  c #45546B",
"k  c #445C7B",
"l  c #4E5877",
"z  c #545669",
"x  c #515779",
"c  c #505970",
"v  c #595F74",
"b  c #44637B",
"n  c #476078",
"m  c #416C7E",
"M  c #4D607B",
"N  c #636263",
"B  c #646564",
"V  c #6B6268",
"C  c #6C6D6C",
"Z  c #646675",
"A  c #636B7D",
"S  c #6F727E",
"D  c #7D6463",
"F  c #737273",
"G  c #747574",
"H  c #7B7A7B",
"J  c #7C7D7C",
"K  c #3E6C81",
"L  c #496886",
"P  c #496B86",
"I  c #417187",
"U  c #417387",
"Y  c #437B8C",
"T  c #437D8C",
"R  c #437E8C",
"E  c #497486",
"W  c #4C738C",
"Q  c #467C92",
"!  c #576780",
"~  c #517D8E",
"^  c #5D778B",
"/  c #627D85",
"(  c #6E7482",
")  c #737C8D",
"_  c #767C8A",
"`  c #7C7E8D",
"'  c #43818C",
"]  c #498597",
"[  c #498897",
"{  c #4B8C9C",
"}  c #4B8F9C",
"|  c #5C8193",
" . c #53909C",
".. c #4E92A2",
"X. c #4E93A2",
"o. c #4E95A2",
"O. c #4E96A2",
"+. c #5097A7",
"@. c #5692A2",
"#. c #5099A7",
"$. c #509AA7",
"%. c #509CA7",
"&. c #509FA7",
"*. c #539CA4",
"=. c #539BAD",
"-. c #539DAD",
";. c #539EAD",
":. c #53A0AD",
">. c #53A1AD",
",. c #53A2AD",
"<. c #53A4AD",
"1. c #53A6AD",
"2. c #53A7AD",
"3. c #708287",
"4. c #7F828E",
"5. c #78898F",
"6. c #813D50",
"7. c #885759",
"8. c #82706E",
"9. c #AC516A",
"0. c #848584",
"q. c #8B8A8B",
"w. c #8C8D8C",
"e. c #878A96",
"r. c #8F929E",
"t. c #939293",
"y. c #949594",
"u. c #93969C",
"i. c #999B9F",
"p. c #9C9D9C",
"a. c #9798A2",
"s. c #9B9EA4",
"d. c #9BA3A4",
"f. c #9EA2AA",
"g. c #A3A2A3",
"h. c #A4A5A4",
"j. c #A7A8AE",
"k. c #ABAAAB",
"l. c #ACADAC",
"z. c #AEB0B1",
"x. c #B3B2B3",
"c. c #B4B5B4",
"v. c #B5B5B9",
"b. c #B3B9BC",
"n. c #B6B8B9",
"m. c #BBBABB",
"M. c #BCBDBC",
"N. c #BEC0C1",
"B. c #BEC1C1",
"V. c #C1BEBE",
"C. c #C3C2C3",
"Z. c #DCDDDC",
"A. c #E3E2E3",
"S. c #E4E5E4",
"D. c #EBEAEB",
"F. c #ECEDEC",
"G. c #F3F2F3",
"H. c #F4F5F4",
"J. c #FBFAFB",
"K. c #FCFDFC",
/* pixels */
"C.C.B.C.C.B.C.C.B.C.C.B.C.C.B.C.C.B.C.C.B.C.C.B.C.C.B.C.C.B.C.C.",
"B.C.C.B.C.C.B.C.C.B.C.C.B.C.C.B.C.C.B.C.C.B.C.C.B.C.C.B.C.C.B.C.",
"C.M.C.V.B.V.C.M.C.V.B.V.C.M.C.V.B.V.C.k.( A A A A A A A A A _ r.",
"C.B.C.B.C.B.V.C.B.V.C.B.V.C.B.V.C.B.t.0 K ' ' ' ' ' ' ' R Y 6 S ",
"C.M.C.V.C.V.B.V.C.B.V.C.B.V.C.B.V.z.j ] +.O.O.X.X.X.O.O.X.r c c.",
"C.C.B.V.B.C.M.C.M.C.B.V.C.B.V.C.M.3.R ;.=.=.;.=.=.=.=.=.X.2 r.B.",
"B.V.B.C.M.C.C.B.C.V.C.B.V.C.B.M.d.e O.;.;.;.;.=.=.=.=.;.U c M.C.",
"C.C.B.V.C.B.V.V.B.C.M.C.B.V.C.B.3.R 1.;.;.;.;.1.;.;.;.=.9 4.B.C.",
"B.C.C.B.V.C.B.C.V.B.C.V.C.B.V.l./ O.1.;.1.;.;.;.;.;.;.O.w z.V.B.",
"f B q.h.c.C.M.C.B.V.C.B.V.C.B.z.| 2.;.1.;.1.;.1.;.1.;.] ! V.B.C.",
"# $ > a g C q.h.M.V.B.C.B.C.M.5.' 2.;.;.1.;.;.;.;.;.=.W _ V.C.B.",
", > - : : * ; , i a C y.x.M.x.^ %.i y 8.1.1.1.;.1.1.O.k j.B.C.V.",
"p.Z.q.d > $ . . X & : : : * % K 2.= 6.9.7.V ;.1.1.;.[ M M.C.B.C.",
"k.K.G.G X     g w.C N u i - $ O.2.+ 6.9.9.9.7.D 1.1.U ) M.C.M.C.",
"l.K.J.G       p.K.J.Z.f X X % 1.+ 9.9.9.9.9.6.t ;.;.L e.B.C.C.B.",
"q.D.F.F       q.H.K.H.s   . % 6.9.9.9.9.9.6.t 1.1.} k j.C.M.C.V.",
"= s C p % $ O y.K.K.G.s   X % 9.9.9.9.9.6.t ;.1.;.Q h n.C.C.B.C.",
"&     > g.y.d q.S.J.J.p   . $ 9.6.o 9.6.t 1.1.;.%.P ^ b.B.V.B.V.",
"- $   f F.G.m., > 0.p.:   X % 6.t + 6.t 1.;.;.1.O.5 f.B.C.B.C.C.",
"& .   g F.K.D.:   X @ X   O & t &.+ t ;.;.1.;.2.Q < l.C.M.C.V.B.",
": a * g D.J.S.i % .       X % ;.1.;.;.;.1.;.;.O.q e.M.C.C.B.C.C.",
"F G.g.i H S.A.u @ O .     O % 1.1.;.1.;.1.;.;.U 8 v.B.V.B.V.B.V.",
"G K.F.B   : N & & d s : @ . % @.{ =.1.;.;.;.O.7 ` B.C.B.C.C.C.B.",
"H K.G.F .     B y.J G q.i . # < b ~  .*.;.%.m x z.B.V.C.M.C.M.C.",
"N D.G.J .     y.K.A.k.p % . $ a.Z < 4 n W E l s.M.C.B.C.C.M.C.C.",
"B B q.f X     t.J.K.H.:   X % M.c.M.u.z 3 < v c.C.B.V.B.C.C.M.C.",
"M.t.B f & O   0.K.K.G.,   . # C.C.C.C.B.c.i.z.C.M.C.C.V.B.V.C.B.",
"C.C.M.k.w.G : u p.Z.J.p . $ - C.M.C.C.V.C.C.B.C.C.B.C.B.C.B.V.C.",
"B.V.B.C.M.V.h.G s g g.: @ s F C.B.C.B.C.B.C.C.B.V.B.V.C.M.C.B.C.",
"C.B.C.C.B.C.C.M.x.t.G : g h.M.B.V.C.M.C.M.C.M.C.C.C.B.V.C.V.C.B.",
"C.C.M.C.C.B.C.B.V.B.C.C.C.C.M.C.B.C.V.B.C.V.C.B.V.B.V.B.C.M.C.C.",
"B.C.C.B.V.B.V.C.B.C.V.B.V.B.C.C.V.B.C.V.B.C.M.C.M.C.C.M.C.B.V.B."
};
