/* XPM */
static char *render_ccg_base_template[] = {
/* columns rows colors chars-per-pixel */
"32 32 127 2",
"   c #1D291B",
".  c #202D1E",
"X  c #21311F",
"o  c #222E20",
"O  c #243123",
"+  c #263824",
"@  c #283426",
"#  c #2A3628",
"$  c #283A25",
"%  c #2C3A2A",
"&  c #303D2E",
"*  c #323E30",
"=  c #2E412C",
"-  c #31432E",
";  c #354233",
":  c #364834",
">  c #384436",
",  c #3A4538",
"<  c #384935",
"1  c #3D4B3A",
"2  c #3E503B",
"3  c #404C3E",
"4  c #41523E",
"5  c #46583E",
"6  c #424E40",
"7  c #455343",
"8  c #465843",
"9  c #485546",
"0  c #4B564A",
"q  c #495B45",
"w  c #4C5B4A",
"e  c #505C4E",
"r  c #535D51",
"t  c #4E604C",
"y  c #50614D",
"u  c #546351",
"i  c #566953",
"p  c #586656",
"a  c #5A6559",
"s  c #596A56",
"d  c #5D6B5B",
"f  c #5E705B",
"g  c #606B5E",
"h  c #60725E",
"j  c #626D60",
"k  c #686E67",
"l  c #647462",
"z  c #667964",
"x  c #687466",
"c  c #6A7468",
"v  c #697B65",
"b  c #6C7C6A",
"n  c #70746F",
"m  c #707B6E",
"M  c #737C71",
"N  c #7C7F7B",
"B  c #6D806A",
"V  c #71836E",
"C  c #748472",
"Z  c #768873",
"A  c #798476",
"S  c #7C857A",
"D  c #788B76",
"F  c #7C8D79",
"G  c #7E917B",
"H  c #89941B",
"J  c #949F2C",
"K  c #95A028",
"L  c #A0AD22",
"P  c #A3B122",
"I  c #ACB82F",
"U  c #ACB934",
"Y  c #929947",
"T  c #808A7E",
"R  c #80937E",
"E  c #A2AA5E",
"W  c #A9B152",
"Q  c #ADB55E",
"!  c #B9C640",
"~  c #BCC941",
"^  c #BECA4B",
"/  c #BAC26C",
"(  c #C0C87A",
")  c #828782",
"_  c #828C81",
"`  c #8E8E8E",
"'  c #839281",
"]  c #869883",
"[  c #889786",
"{  c #8C928B",
"}  c #889986",
"|  c #8D9B8A",
" . c #919491",
".. c #949B92",
"X. c #9B9E9B",
"o. c #8FA18C",
"O. c #91A48E",
"+. c #94A192",
"@. c #9CA39B",
"#. c #9BAE98",
"$. c #9FB19C",
"%. c #A6A88F",
"&. c #A2A49C",
"*. c #A8AB90",
"=. c #A8AA9C",
"-. c #A0B39E",
";. c #B7BA9E",
":. c #A5A5A5",
">. c #A5A9A4",
",. c #A9ADA5",
"<. c #ABABAA",
"1. c #A4B7A2",
"2. c #ADB1AD",
"3. c #ABBEA8",
"4. c #B5B6A7",
"5. c #B1B1AE",
"6. c #B7BAA1",
"7. c #B6B8AE",
"8. c #B3B4B3",
"9. c #B6B8B6",
"0. c #BCBCBC",
"q. c #BFC0BF",
"w. c #C2C69C",
"e. c #C2C4AB",
"r. c #C0C0BF",
"t. c #C0C0C0",
"y. c #C9C9C8",
/* pixels */
"` :.:.:.:.:.:.:.<.<.:.:.:.<.:.:.:.<.:.:.<.:.:.<.:.:.<.:.:.:.:.` ",
":.t.t.t.t.t.t.t.t.t.0.t.q.0.9.8.9.9.0.0.t.t.0.t.t.0.t.t.t.t.t.:.",
":.t.t.t.t.t.t.t.t.0.0.2.>.@._ M m A _ @.2.9.t.t.t.t.t.t.t.t.t.:.",
":.t.t.t.t.t.t.t.9.>..._ G F V s 7 0 0 d m _ :.9.t.t.t.t.t.t.t.:.",
">.t.t.t.t.t.t.2.{ S G G G G C d e d h h s u d _ 2.t.t.t.t.t.t.:.",
":.t.t.t.t.0.<.S d d C ] +.' l r l Z V b h d y 0 A >.0.t.t.t.t.:.",
":.t.t.t.t.<.S j 0 0 a c b j u r x R F V B z u 4 u Z >.0.t.t.t.:.",
":.t.t.t.8.{ D C f e r a a d a a x F R Z B h q > w j S 2.t.t.t.:.",
":.t.t.0.@.G F D C h u d x x k j j x x l d e 3 * 7 p s _ 9.t.t.:.",
":.t.q.<.] G D G G C d x M A M x p r r w 7 6 1 , , 7 q p X.0.t.:.",
":.t.0.+.D Z D G ' F l m _ _ b l l v l u 7 3 1 , > ; ; ; c 9.t.:.",
":.t.2.' C B D G ] ] b M _ b x ' o.} F B f 7 , ; > > > * 0 :.t.:.",
":.0.@.D B C D G ] ' x b m x ] 1.-.o.R Z B s 2 * , 7 y 4 3 ` 0.:.",
":.q.| B B B Z G ' D d j d m $.3.#.o.G Z B h t = > u i 4 ; C 0.:.",
":.9.S h v B Z D D v u a p D $.$.O.] D V B l y ; , u y 2 - j 8.:.",
":.8.M d z B B D B y w u u C O.o.] F Z B z h t - ; y q 2 % r 2.:.",
":.8.b s h v B B p 6 0 e q v R G D Z B v l f 8 $ * 8 8 < $ e <.:.",
":.9.A q i f f w , 1 0 0 6 u C D V B v l h i : X % ; 2 = O d 9.:.",
":.0.S , < 2 , & ; 3 9 9 6 1 i v v z z f s 4 o . # # % O   k 0.:.",
":.0.{ 6 % O @ % , 3 6 6 6 ; , q i s i t 2 o   @ # O o   @ ) 0.:.",
":.t.:.a ; # & > , , 1 1 3 , & & - : : % .   O # @ o O O 7 @.t.:.",
":.t.9.) y 3 , > , , , , , , * # O O o o O O @ O o O * : x 9.t.:.",
":.t.q.>.m s 0 , * * * , > * ; > < 1 3 < > * @ o o % - 7 ..t.t.:.",
":.t.t.9.{ h p e , * * * * & > 7 u d d u 8 ; @ o o * : n 9.t.t.:.",
":.t.t.t.<.S i i 9 ; % % # * 4 p f d t t 8 2 * o X - j :.q.t.t.:.",
":.t.t.t.t.@.v q q 4 & @ # , w t t 2 2 < : ; % # @ r X.q.q.q.t.:.",
":.t.t.t.t.0.=.v 5 4 ; O @ , 7 1 : : = = $ $ # * a X.0.t.t.t.t.:.",
":.t.t.t.t.r.r.,.A y < O . # - - = = $ + + = 6 n :.0.t.t.q.t.t.:.",
"*.w.w.w.w.w.w.e.7...x 6 @ o o X X + + $ 6 k ` <.9.8.8.8.0.q.q.:.",
"Q ^ ! ~ ~ ~ ^ ( 6.5.:. .n r e 0 8 u a k N ` :.<.:.X.X.:.9.0.q.@.",
"W I L L P P U / 4.8.0.0.5.<.5.:.:.:.:.:.<.8.9.8.8.8.9.0.t.y.y.4.",
"Y K H H H H K E %.:.<.<.<.:.5.<.<.:.X.:.<.<.<.:.:.:.5.9.9.9.0.&."
};
