/* XPM */
static char *magick[] = {
/* columns rows colors chars-per-pixel */
"32 32 247 2",
"   c Gray44",
".  c #767676",
"X  c #7e7e7d",
"o  c #7b8515",
"O  c #7d8716",
"+  c #478fd9",
"@  c #508fd7",
"#  c #5193d9",
"$  c #5194d9",
"%  c #5b95d7",
"&  c #5b99d9",
"*  c #5d99d9",
"=  c #6496d5",
"-  c #659fd9",
";  c #6e97d4",
":  c #6e9ad4",
">  c #6f9dd6",
",  c #689fda",
"<  c #7e9bcf",
"1  c #709cd6",
"2  c #6da2d7",
"3  c #71a2d9",
"4  c #71a5da",
"5  c #7ca5d9",
"6  c #7aa9d9",
"7  c #7da9db",
"8  c #7eacdc",
"9  c #818c16",
"0  c #8c9718",
"q  c #96a31d",
"w  c #9fad1f",
"e  c #a5b321",
"r  c #a7b521",
"t  c #a9b721",
"y  c #afbf23",
"u  c #b3c222",
"i  c #d2e22f",
"p  c #d5e535",
"a  c #d6e638",
"s  c #d7e831",
"d  c #d8e837",
"f  c #808080",
"g  c Gray53",
"h  c #8a8989",
"j  c #8e8e8e",
"k  c Gray57",
"l  c #959595",
"z  c #989797",
"x  c #989898",
"c  c #9c9c9b",
"v  c Gray62",
"b  c #9c9ca1",
"n  c #a98cb8",
"m  c #b698bb",
"M  c #bf92b0",
"N  c #ba94bc",
"B  c Gray63",
"V  c Gray65",
"C  c #a5a4ab",
"Z  c #a9a9a9",
"A  c #b2b2b2",
"S  c #b4b5b5",
"D  c Gray75",
"F  c #889ecf",
"G  c #829ed2",
"H  c #9897c6",
"J  c #9d9bc4",
"K  c #84a2d5",
"L  c #86a7d7",
"P  c #83aed9",
"I  c #86abd9",
"U  c #86adda",
"Y  c #8da5d3",
"T  c #8aa9d3",
"R  c #8dabd6",
"E  c #87b1db",
"W  c #8ab0d6",
"Q  c #88b3dd",
"!  c #8eb2d9",
"~  c #94a0ce",
"^  c #96abd3",
"/  c #92acd8",
"(  c #98a6d2",
")  c #92b4d5",
"_  c #95b3d6",
"`  c #94b4d6",
"'  c #be9ac0",
"]  c #be9cc0",
"[  c #a0b0d3",
"{  c #a5b5d7",
"}  c #a0b5da",
"|  c #a0badc",
" . c #a6bddb",
".. c #aab1d2",
"X. c #abbcd6",
"o. c #aabddb",
"O. c #abbddc",
"+. c #bea3c2",
"@. c #bfa6c3",
"#. c #bdadc6",
"$. c #b4b2cf",
"%. c #bbb5ce",
"&. c #bebec1",
"*. c #beb9ca",
"=. c #b0bad1",
"-. c #bec392",
";. c #bdc195",
":. c #a9c1de",
">. c #b5c3cf",
",. c #bec6cf",
"<. c #b0c2d4",
"1. c #b7cada",
"2. c #c58db2",
"3. c #c391b3",
"4. c #c29ab5",
"5. c #c699b6",
"6. c #c49fb7",
"7. c #c996b6",
"8. c #c899b7",
"9. c #c998b8",
"0. c #c89eb9",
"q. c #cf9cbb",
"w. c #c1a7b9",
"e. c #c3a4be",
"r. c #c5a7ba",
"t. c #c2aaba",
"y. c #c3acbb",
"u. c #c6adbd",
"i. c #caa2bb",
"p. c #caa2bc",
"a. c #cba7bd",
"s. c #cbaabe",
"d. c #c9adbe",
"f. c #cea9bf",
"g. c #c1b0bb",
"h. c #c3b3bc",
"j. c #c3b7bf",
"k. c #c6b1bf",
"l. c #c5b5bf",
"z. c #c1bcbf",
"x. c #c4b9bf",
"c. c #c8b2bf",
"v. c #d1a6bf",
"b. c #d1a1bd",
"n. c #d0a9bf",
"m. c #cbafc0",
"M. c #cdafc1",
"N. c #c7b6c0",
"B. c #c2bec1",
"V. c #c4bbc1",
"C. c #c5bdc2",
"Z. c #c2b9cc",
"A. c #cbb0c0",
"S. c #ccb7c3",
"D. c #c8bfc4",
"F. c #cdb9c4",
"G. c #cfbec7",
"H. c #cabacf",
"J. c #ccbccb",
"K. c #c9beca",
"L. c #d2a6c0",
"P. c #d4b3c5",
"I. c #d4b4c5",
"U. c #d1bbc7",
"Y. c #d5b9c8",
"T. c #d6bfcb",
"R. c #d2bdcd",
"E. c #dcb6c9",
"W. c #dabdcb",
"Q. c #deb9cb",
"!. c #ddbdcd",
"~. c #d4b4cb",
"^. c #e1bfce",
"/. c #cace9f",
"(. c #c3c6a5",
"). c #c4c7a7",
"_. c #c5c7ab",
"`. c #c5c7ac",
"'. c #c1c1c1",
"]. c #c0c0c6",
"[. c #c5c1c3",
"{. c #c4c3c4",
"}. c #c4c4c3",
"|. c #c6c6c5",
" X c #c9c2c5",
".X c #c9c7c7",
"XX c #cdc3c7",
"oX c #cbc7c8",
"OX c #c8c8c7",
"+X c #cecfc7",
"@X c #cacac9",
"#X c #cbcccc",
"$X c #ccc8c9",
"%X c #cdcdcb",
"&X c #cececd",
"*X c #c2c8d1",
"=X c #c0ceda",
"-X c #c9ced0",
";X c #cec8d1",
":X c #cfd0cf",
">X c #c9d0d8",
",X c #d1c3ca",
"<X c #d6c0cb",
"1X c #d7c5cd",
"2X c #d1c8cb",
"3X c #d0cfcd",
"4X c #d7c9cf",
"5X c #dfc2cf",
"6X c #ddc4cf",
"7X c #d0c2d4",
"8X c #decdd3",
"9X c #dbcfd8",
"0X c #d2d2cf",
"qX c #d2d2d2",
"wX c #d4d3d1",
"eX c #d5d5d2",
"rX c #d5d5d4",
"tX c #d0d1dc",
"yX c #dad2d3",
"uX c #d8d7d4",
"iX c #ded2d5",
"pX c #ddd5d5",
"aX c #dad6db",
"sX c #dcdad7",
"dX c #dad9d6",
"fX c #d9d8d9",
"gX c #dad8dc",
"hX c #d9dcdd",
"jX c #deddd9",
"kX c Gray87",
"lX c #e0c0ce",
"zX c #e2c5d1",
"xX c #e1c9d2",
"cX c #e2cfd5",
"vX c #e9cfd7",
"bX c #e1d4d7",
"nX c #e1d2d6",
"mX c #e2d7d8",
"MX c #e4dadb",
"NX c #e6dddd",
"BX c #ead7db",
"VX c #ebd7dc",
"CX c #ecd7db",
"ZX c #e5e2de",
"AX c Gray88",
"SX c Gray90",
"DX c Gray97",
/* pixels */
"{.}.}.OX@X@X@X@XOXOXOXOXOXOX.X.XOXOXOX@X@X@X@XOX}.}.}.}.{.`.&.].",
"}..X@X&X3X&X&X&X%X%X&X&X&X&X&X&X%X%X&X&X3X3X&X&X%X@XOX}.{.{.{.{.",
"}.%X3XwXwXwXwX) -XwXwXwXwXwXwXwXwXwXwXwXdXuXdXwXwX&X@X}.].{.,.z.",
"@X<.2 + + - $ + uX` $ + $ 1.=X& + 6 P $ + & $ $ - <.&X@X}.].&.`.",
"@X0XdX+ + mXiX$ 1X1XX.+ $ tXaX$ ! pXiXI + :.MX .+ # ,X.X}.{.{.{.",
"%XwXsX+ + zX!.$.P.I.8XI + 3 5 3 bX6X6XI + o.VXBX+ % n.d.D.{.{.D ",
"%XwXjX+ + zXQ.[ T.Y.iXgX& + & 9XcX5XxXI + O.CX| + ..q.7.j.{.D {.",
"%XwXjX+ + L 1 3 yX4XpXZX:.+ # 7XxXxXMXQ + , & + 7 8Xb.5.l.{.{.D ",
"%XwXjX+ + 7XK R 4X1XpXhX& 7 + 1 lXnXZXQ + | } + $ H.L.s.D.}.{.{.",
"%XwXjX+ + zX~.R.Y.Y.yX6 4 MXL + ( cXZXQ + o.vX/ + ; v.F..X}.{.{.",
"@X0XdX+ + ^.E.> %.<X_ + >X8XW.: + H.mXE + { ^.zXY + H c. X}.{.D ",
"@X>.W + + G = + ;XT + $ =.I.I.J.: = ^ & + > ~ W.1XF @ m k.[.{.D ",
"}.%X,.*XZ.] ' % U.#.*.*.e.9.M.2XK.< @.Z.Z.+.N f.G.G.J n 4.j.{.{.",
"}.OX@XXXm.7.7.a.0.5.d.d.3.3.u.oX$XS.i.p.s.8.2.5.c. XN.4.M t.z.,.",
"{.}.}. XN.u.u.k.r.6.k.l.w.t.x.}..X Xk.r.u.u.t.t.l.[.{.k.m t.z.`.",
"{.{.{.{.[.[.[.[.V.j.B.[.B.{.{.{.}.{.[.V.V.V.{.B.{.{.}.].`.B.&.{.",
"z.,.].B.,.{.].B.`.z.{.].`.z.B.&.{.`.B.{.,.z.`.].{.{.B.{.,.&.B.].",
"`.{.{.&.z.{.].`.B.,.{.B.&.,.{.`.{.,.{.&.{.B.&.B.z.,.&.`.z.`.{.{.",
"&.B.z.`.`.&.,.z.].{.`.&.B.].,.z.,.{.,.z.`.&.{.].`.].{.z.{.].,.z.",
",.{.,.{.&.{.{.B.z.,.z.,.{.{.{.{.z.B.&.`.z.,.{.B.&.B.{.,.{.B.&.`.",
"z.B.].{.{.{.,.&.`.].{.{.,.z.`.].`.&.,.z.`.&.`.&.B.&.,.{.,.&.B.{.",
"`.&.,.{.].B.z.`.&.B.z.,.{.{.&.B.].B.{.{.{.B.z.,.{.`.z.{.z.`.z.,.",
"{.{.z.`.`.&.{.].`.z.`.&.B.].,.{.{.z.`.].,.&.B.{.,.z.B.].,.{.`.&.",
",.].B.&.z.,.{.B.&.,.{.B.&.`.z.B.{.,.&.B.z.`.].{.&.`.&.`.z.{.].B.",
"z.`.z.`.&.,.z.`.{.{.,.&.B.{.`.&.{.D {.D `.z.&.`.B.].z.`.&.{.{.,.",
"B.&.,.{.B.{.B.&.].&.z.`.z.,.z.,.D {.D {.&.,.{.z.{.{.,.{.B.].`.z.",
"{.B.{.{.{.{.].{.z.`.,.{.`.B.{.{.{.D {.{.B.].{.,.,.z.`.B.{.{.&.B.",
"&.,.&.].&.].].&.D D D D &.&.&.D D D D D &.&.D D D D &.&.D D &.&.",
").)._.`._.).).+XwXwXwXrXwXwX&XwXwXwXwXwXwXwXwXwXrXrXwXwX:XwXwX&X",
"i a p p p d s ;.C k V B j h c k j g j h X f j z k h g   A A . qX",
"r O o 9 0 o y -.b B S V h j Z B B c z k h k B v c B v x A D B kX",
"y w e w t q u /.&.D fX}.-X&XAX@XD {.S @X}.kX}.{.{.#XwXkXkXSX:XDX"
};
