/* XPM */
static char *render_lyrid_normals_list[] = {
/* columns rows colors chars-per-pixel */
"32 32 209 2",
"   c gray8",
".  c gray9",
"X  c gray10",
"o  c gray11",
"O  c gray14",
"+  c gray15",
"@  c gray16",
"#  c gray17",
"$  c #2F2F64",
"%  c #384B66",
"&  c gray30",
"*  c gray34",
"=  c gray37",
"-  c gray39",
";  c gray40",
":  c DimGray",
">  c gray43",
",  c gray44",
"<  c #184D80",
"1  c #195186",
"2  c #195187",
"3  c #195287",
"4  c #1A5084",
"5  c #1A5287",
"6  c #1F5282",
"7  c #195389",
"8  c #1A5389",
"9  c #1A548B",
"0  c #1B548A",
"q  c #1A568E",
"w  c #1B578E",
"e  c #1B578F",
"r  c #1D5489",
"t  c #195791",
"y  c #1A5790",
"u  c #1A5891",
"i  c #1A5892",
"p  c #1A5993",
"a  c #1B5992",
"s  c #1A5A94",
"d  c #1A5A95",
"f  c #1C5991",
"g  c #1C5992",
"h  c #1C5A93",
"j  c #1E5991",
"k  c #1E5B90",
"l  c #1C5B94",
"z  c #1A5C98",
"x  c #1A5C99",
"c  c #1A5E9A",
"v  c #1A5F9D",
"b  c #1E5E98",
"n  c #1E5F99",
"m  c #1E5F9A",
"M  c #1E5F9B",
"N  c #1C5F9C",
"B  c #1A609E",
"V  c #1A619F",
"C  c #1C609E",
"Z  c #1A61A0",
"A  c #1B62A2",
"S  c #1B63A3",
"D  c #1A64A5",
"F  c #1B64A5",
"G  c #1F66A1",
"H  c #1D66A7",
"J  c #1E66A5",
"K  c #1B66A8",
"L  c #1D67A8",
"P  c #1A69AD",
"I  c #1B68AC",
"U  c #1B6AAE",
"Y  c #1C68AB",
"T  c #1C6BAF",
"R  c #1E6AAD",
"E  c #1F6CAE",
"W  c #1B6BB0",
"Q  c #1B6CB1",
"!  c #1B6CB2",
"~  c #1B6DB3",
"^  c #1B6DB4",
"/  c #1B6EB6",
"(  c #1D6DB1",
")  c #1C6FB6",
"_  c #1D71B7",
"`  c #1B71BA",
"'  c #1C70B8",
"]  c #1C71B9",
"[  c #1D70B8",
"{  c #1C71BA",
"}  c #1C72BB",
"|  c #1E72B8",
" . c #1C73BD",
".. c #1D73BC",
"X. c #1D74BD",
"o. c #1C74BE",
"O. c #1C74BF",
"+. c #205080",
"@. c #225383",
"#. c #205386",
"$. c #245280",
"%. c #275581",
"&. c #265684",
"*. c #255C8F",
"=. c #295582",
"-. c #325A82",
";. c #276297",
":. c #21619A",
">. c #226098",
",. c #22639A",
"<. c #24639D",
"1. c #26649C",
"2. c #2F6496",
"3. c #30679A",
"4. c #31689B",
"5. c #3C6891",
"6. c #3C729F",
"7. c #2669A4",
"8. c #286BA6",
"9. c #2C72AE",
"0. c #2070B4",
"q. c #2471B1",
"w. c #2377BF",
"e. c #2574B9",
"r. c #2479BD",
"t. c #2975B6",
"y. c #2877BB",
"u. c #2A77BA",
"i. c #3174AE",
"p. c #3675AD",
"a. c #3976AB",
"s. c #3979AB",
"d. c #367EBB",
"f. c #1B77C4",
"g. c #1C75C0",
"h. c #1C76C2",
"j. c #1E77C1",
"k. c #1F76C0",
"l. c #1C79C7",
"z. c #1F7AC6",
"x. c #1B7AC9",
"c. c #1C7AC9",
"v. c #1D7AC8",
"b. c #1D7BC9",
"n. c #1D7CCB",
"m. c #1E7CCA",
"M. c #1C7DCD",
"N. c #207ECC",
"B. c #297FC2",
"V. c #2C7EC0",
"C. c #5470AA",
"Z. c #6A6A8D",
"A. c LightSeaGreen",
"S. c DodgerBlue",
"D. c #32BFC1",
"F. c #5F929E",
"G. c SlateGray",
"H. c LightSlateGray",
"J. c #7E88AB",
"K. c #7C98D3",
"L. c #729FFF",
"P. c #49D4F0",
"I. c #9B7071",
"U. c gray56",
"Y. c gray57",
"T. c gray59",
"R. c gray60",
"E. c gray61",
"W. c gray62",
"Q. c gray63",
"!. c gray64",
"~. c gray65",
"^. c gray66",
"/. c gray67",
"(. c gray68",
"). c gray69",
"_. c gray70",
"`. c gray71",
"'. c gray72",
"]. c gray73",
"[. c gray74",
"{. c gray75",
"}. c #83ABCC",
"|. c #92ACC2",
" X c #9AB0C2",
".X c #9BB2C6",
"XX c #9CB3C6",
"oX c #9EB3C5",
"OX c #9AB4C8",
"+X c #A0B4C4",
"@X c #A9B6C1",
"#X c #A8B8C5",
"$X c #AAB8C4",
"%X c #AFBAC3",
"&X c #AEBCC7",
"*X c #AFBCC6",
"=X c #AABBC9",
"-X c #AABCCA",
";X c #B0BAC3",
":X c #B2BAC0",
">X c #B5BCC2",
",X c #B8BEC3",
"<X c #BABEC1",
"1X c #BCBEC0",
"2X c #BDBFC1",
"3X c #BEBFC0",
"4X c #BFBFC0",
"5X c #B6E2CE",
"6X c gray76",
/* pixels */
"6X6X6X6X6X6X6X6X6X6X6X6X6X6X6X6X6X6X6X6X6X5X$XK.S.S.' p h % % D.",
"6X6X6X6X6X6X6X6X6X6X6X6X6X6X6X6X6X6X6X6X5XoXK.S.S.Q % @ $ m t.D.",
"6X6X6X6X6X6X6X6X6X6X6X6X6X6X6X6X6X6X6X3X).K.S.S.U % $ $ % r #.% ",
"6X6X6X6X6X6X6X6X6X6X6X6X6X6X6X6X6X6X6X`.F.S.S.( % $ $ $ $ $ + @ ",
"6X6X6X6X6X6X6X6X6X6X6X6X6X6X6X6X6X6X3XE.a.L.D.@.+ + + o     # : ",
"6X6X6X6X6X6X6X6X6X6X6X6X6X6X6X6X6X6X].Z.;.D.D.-.$ % % $ + % s.J.",
"6X6X6X6X6X6X6X6X6X6X6X6X6X6X6X6X6X6X`.: % u.e.&.@.f.S.M.Y S.S.J.",
"6X6X6X6X6X6X6X6X6X6X6X6X6X6X6X6X6X6X`.- $ m Y 8 D S.S.S.S.S.d.!.",
"6X6X6X6X6X6X6X6X6X6X6X6X6X6X6X6X6X6X`.; $ % J X.S.S.S.` f.X.F._.",
"6X6X6X6X6X6X6X6X6X6X6X6X<X&X-X-X&X%XK.6.# $ U S.S.S.f.v P C.!.{.",
"6X6X6X6X6X6X6X6X6X6X<XOXK.L.L.L.K.K.S.S.% 4 S.S.S.z.p x 3.Y.].6X",
"6X6X6X6X6X6X6X6X6X>X}.L.S.S.S.S.S.S.S.S._ S.S.S.S.p % % G.`.6X6X",
"6X6X6X6X6X6X6X6X;XK.L.L.L.S.E y 0 B ] n.S.L.L.S.B $ $ > (.6X6X6X",
"6X6X6X6X6X6X6X$XK.S.P.P.D.m $ @ $ % U S.S.L.S.J % = I.(.6X6X6X6X",
"6X6X6X6X6X5X+XK.S.P.P.D.l $ $ $ $ d ..S.S.u.C % G._.[.6X6X6X6X6X",
"6X6X6X6X5XXXK.S.P.L.D.h $ $ p Z B D U J m % % Z._.6X6X6X6X6X6X6X",
"6X6X6X3X.XK.S.P.L.D.p $ $ $ < 2 3 3 % % $ $ , /.6X6X6X6X6X6X6X6X",
"6X6X5X XK.S.P.L.D.e $ - , $ $ $ $ $ $ + $ * /.6X6X6X6X6X6X6X6X6X",
"6X6X`.K.S.L.L.D.e $ ; ^.!.& o . . X @ % 3.C._.6X6X6X6X6X6X6X6X6X",
"6X3XE.S.S.S.S.p $ - ~.3X[.E.: & $ % A.L.S.C.'.6X6X6X6X6X6X6X6X6X",
"6X`.F.M.S.S.J % % F.K.|.].3X'.W.F.S.P.L.8.J.4X4X6X6X6X6X6X6X6X6X",
"6X~.p.m.S.k.y $ @.u.S.S.J.`.`.F.S.P.L.A.C.~.6X6X6X6X6X6X6X6X6X6X",
"3XT.8.k.z.~ 3 $ 3 f.S.S.S.J.J.S.L.P.S.4.U.4X4X6X6X6X6X6X6X6X6X6X",
"3XJ.<.] f.W 8 $ p S.S.S.n.i.S.L.P.S.7.Z.).6X6X6X6X6X6X6X6X6X6X6X",
"[.H.*.U ] ~ v 8 } S.S.S.l.[ S.P.D.9.C.~.6X6X6X6X6X6X6X6X6X6X6X6X",
"3XY.=.B Q / U ] S.S.S.S.( A.P.L.y.5.R.[.6X6X6X6X6X6X6X6X6X6X6X6X",
"@XF.% 8 D W f.S.S.P.S.S.J F.L.S.2.H.].6X6X6X6X6X6X6X6X6X6X6X6X6X",
"K.S.,.% y U S.S.P.P.S.[ h D.S.1.Z.).6X6X6X6X6X6X6X6X6X6X6X6X6X6X",
"S.S.D.% y m.S.P.P.L.S.x 8 ! >.Z.~.6X6X6X6X6X6X6X6X6X6X6X6X6X6X6X",
"S.S.S.Z f.S.S.P.L.S.H % % $.; W.[.6X6X6X6X6X6X6X6X6X6X6X6X6X6X6X",
"S.S. .x.S.S.L.L.S.U % $ % Z.!.[.6X6X6X6X6X6X6X6X6X6X6X6X6X6X6X6X",
"S.k.x.S.S.S.S.S.[ r % Z.E.`.6X6X6X6X6X6X6X6X6X6X6X6X6X6X6X6X6X6X"
};
