/* XPM */
static char *render_ccg_geo_ibl[] = {
/* columns rows colors chars-per-pixel */
"32 32 256 2",
"   c #000000",
".  c #030A03",
"X  c #0B0300",
"o  c #0C0A04",
"O  c #0B0B0B",
"+  c #081203",
"@  c #120302",
"#  c #130D04",
"$  c #130F0B",
"%  c #1E0301",
"&  c #1B0D03",
"*  c #1A0A0A",
"=  c #141204",
"-  c #1B1306",
";  c #1E1209",
":  c #191B09",
">  c #181808",
",  c #111110",
"<  c #171818",
"1  c #1B1C19",
"2  c #1A1C25",
"3  c #183609",
"4  c #2A0302",
"5  c #210301",
"6  c #241507",
"7  c #231609",
"8  c #211F07",
"9  c #231A0B",
"0  c #2C1909",
"q  c #291D11",
"w  c #320402",
"e  c #321F0F",
"r  c #25220C",
"t  c #2B2008",
"y  c #2C2403",
"u  c #28281F",
"i  c #292517",
"p  c #35250C",
"a  c #3D210B",
"s  c #3F2F0F",
"d  c #332213",
"f  c #372816",
"g  c #382F11",
"h  c #3D2C18",
"j  c #3D201A",
"k  c #282828",
"l  c #2F343F",
"z  c #343333",
"x  c #383837",
"c  c #3C3F40",
"v  c #24500E",
"b  c #275910",
"n  c #285B10",
"m  c #35401A",
"M  c #4C0000",
"N  c #4F180B",
"B  c #46110A",
"V  c #550D08",
"C  c #58140C",
"Z  c #432E0F",
"A  c #422F10",
"S  c #4A2214",
"D  c #4D3913",
"F  c #493F1A",
"G  c #542F0F",
"H  c #502A10",
"J  c #58350E",
"K  c #563011",
"L  c #503318",
"P  c #593D18",
"I  c #40312A",
"U  c #60170E",
"Y  c #673915",
"T  c #6D3421",
"R  c #702F2E",
"E  c #4B4006",
"W  c #5C4A05",
"Q  c #574919",
"!  c #5B491B",
"~  c #41403F",
"^  c #4D4231",
"/  c #4D493D",
"(  c #475422",
")  c #465035",
"_  c #5A4632",
"`  c #55472A",
"'  c #5F702E",
"]  c #58672A",
"[  c #625609",
"{  c #6F501A",
"}  c #665317",
"|  c #70481C",
" . c #7C4119",
".. c #664120",
"X. c #614630",
"o. c #744C28",
"O. c #705139",
"+. c #726027",
"@. c #7A692B",
"#. c #495353",
"$. c #505344",
"%. c #575655",
"&. c #576141",
"*. c #665B4D",
"=. c #7A5A45",
"-. c #606D49",
";. c #65675A",
":. c #737958",
">. c DimGray",
",. c #606867",
"<. c #737272",
"1. c #7E7E7D",
"2. c #7A7E84",
"3. c #408F19",
"4. c #7B8515",
"5. c #7E8087",
"6. c #7F9090",
"7. c #89160E",
"8. c #A61B10",
"9. c #83441A",
"0. c #94531D",
"q. c #9B571E",
"w. c #8A5E3D",
"e. c #876220",
"r. c #8C613C",
"t. c #9E6523",
"y. c #A15C22",
"u. c #AF6720",
"i. c #AB6C34",
"p. c #A56C36",
"a. c #BE6323",
"s. c #B56424",
"d. c #B77D29",
"f. c #B3753E",
"g. c #BB7538",
"h. c #BB7536",
"j. c #8A6547",
"k. c #87796F",
"l. c #827975",
"z. c #916969",
"x. c #BE6547",
"c. c #B37B48",
"v. c #C3170A",
"b. c #CA532B",
"n. c #C16526",
"m. c #C77027",
"M. c #C87027",
"N. c #CA5B52",
"B. c #818C16",
"V. c #8C9718",
"C. c #998336",
"Z. c #9FAC1F",
"A. c #96A31D",
"S. c #B68F31",
"D. c #B79031",
"F. c #A6B421",
"G. c #A9B721",
"H. c #AFBE22",
"J. c #87827C",
"K. c #9E826C",
"L. c #91867B",
"P. c #909F69",
"I. c #9C9C79",
"U. c #8BA443",
"Y. c #95AF48",
"T. c #9AB64B",
"R. c #BD8757",
"E. c #B99678",
"W. c #B3C222",
"Q. c #B0CF55",
"!. c #BEE05C",
"~. c #C4862C",
"^. c #FF982C",
"/. c #E3AD39",
"(. c #EAB73F",
"). c #E6B53E",
"_. c #F5A736",
"`. c #CE8B58",
"'. c #D78942",
"]. c #C59B7A",
"[. c #C8BB57",
"{. c #ECA94D",
"}. c #E6B175",
"|. c #E9AA7B",
" X c #D2E22F",
".X c #D5E535",
"XX c #D6E638",
"oX c #D7E831",
"OX c #D8E837",
"+X c #D0C151",
"@X c #FEC440",
"#X c #FFCB43",
"$X c #FFDE4C",
"%X c #FFE24D",
"&X c #848484",
"*X c #8B8B8B",
"=X c #888981",
"-X c #8D9492",
";X c #829190",
":X c #998D82",
">X c #9B948F",
",X c #929292",
"<X c #989797",
"1X c #9C9C9C",
"2X c #9C9CA1",
"3X c #A4938B",
"4X c #A69E8B",
"5X c #AE9E9E",
"6X c #ADA097",
"7X c #A7A29E",
"8X c #A2A2A2",
"9X c #ABABAB",
"0X c #A8A5A5",
"qX c #B9AFA5",
"wX c #B9B2AC",
"eX c #B3B3B3",
"rX c #B6B9BA",
"tX c #B8B7B7",
"yX c #BCBBBB",
"uX c #B7B7B6",
"iX c #BDBDC0",
"pX c #BDC293",
"aX c #BFC6CD",
"sX c #BEC0C2",
"dX c #CD9582",
"fX c #C8BF8C",
"gX c #C4AFA8",
"hX c #C1B6AD",
"jX c #C6BDB5",
"kX c #C0C097",
"lX c #CACE9F",
"zX c #C3C6A6",
"xX c #C5C7AB",
"cX c #C7C2BF",
"vX c #CBC8B5",
"bX c #D5EA9C",
"nX c #E5E5BF",
"mX c #E2FAA6",
"MX c #F0FFB1",
"NX c #C2C2C2",
"BX c #C3C6C9",
"VX c #C6C9CA",
"CX c #C8C7C8",
"ZX c #CECFC7",
"AX c #CACACB",
"SX c #CFD0CF",
"DX c #DAD8CF",
"FX c #D2D2D2",
"GX c #DCDCDC",
"HX c #FFFFD0",
"JX c #E2E2E2",
"KX c #EBEBEA",
"LX c #EFF0F0",
"PX c #FEFDE3",
"IX c gray97",
"UX c #FEFEFE",
/* pixels */
"NXNXNXjXsXsXNXNXNXNXNXNXNXNXNXCXNXNXCXBXNXNXNXNXNXNXNXNXNXsXNXNX",
"NXNXNXNXNXNXNXNXNXNXNXNXBXBXuX7XNXNX9XjXBXNXNXNXNXNXNXNXNXjXNXNX",
"NXNXNXNXNXNXNXNXcXVXCXNXE.R.X.& >X>.O $.jXBXNXNXNXNXNXNXNXNXNXNX",
"NXNXNXNXNXNXNXNXuX3X5XO.y.0.0 1XKX,.  X h.}.jXBXsXNXNXNXNXNXsXNX",
"NXNXNXNXNXNXNXAXk.Y e X X   O GXUX5X    u.^.{.+XkXsXNXsXNXNXNXNX",
"sXNXNXNXNXNXBXwXc.i.0 -.)     O 2       A t.J [ [.aXNXNXNXNXNXNX",
"NXNXNXNXNXyX0X_ g.Y :.MXmXu   t } $   ! #X/.9   f.|.cXNXNXNXNXNX",
"NXNXNXNXNXj.G X 9   ] bXP.O = (.%XS.  D @X#Xs   a.^.R.rXNXNXNXNX",
"NXNXjXsXsXj.e         ,     = ).$XD.    p D     6 s.| uXAXNXNXNX",
"NXNXNXBXjXc.i.# e 7           7 Q #         # Z X   1 J.uXcXjXNX",
"NXNXNXsX:Xp.o.L '.g.;   # { p               T n. .X o + $.AXsXNX",
"NXNXAXk.j 9 # P '.g.#   d.@X_.;     & K &   Y n.9.o r : ;.AXNXNX",
"NXNXVXL.q     o ..d     ~.@X_.7     0.m.0.X o H &   : r eXVXNXNX",
"NXNXAX&Xo               7 e.Z     X 0.m.y.X         X . -XBXNXNX",
"NXsXZX~   x rX%.                    6 Y 6     . 3 .   V C -XVXNX",
"NXNXVX1X, eXUXCX  o d 9                       v 3.b   8.v.3XVXNX",
"NXNXCXl.O ,.KX<X  q h h o     = : o           b 3.n   7.N.NXNXNX",
"NXNXCXI     ,     # f i       : : >           + 3 .   x AXNXNXNX",
"NXNXNX1X=.w.X       X         = = o   X 4 %       y y j uXNXNXNX",
"NXNXNXVX].`.d c 7Xk       .           5 w w X   = [ W M z.AXNXNX",
"sXNXNXNXhXj.7 iXUXyX    ( T.]         @ 4 %     = E D R 5XVXNXNX",
"NXNXNXCXyXO   <.LX2X    U.!.Q.:           X @     . ,XAXNXcXNXNX",
"NXNXNXNXNX<.k # 1       m Y.'     =     X B C % S T 0XAXNXNXNXNX",
"NXNXNXNXCXFXl.& o   : Q $     , qXnX-.X X C C N b.x.eXsXNXNXNXNX",
"NXNXNXNXNXNXiXl._ # ! C.@..   u HXPXI.    X * l.dXgXBXNXNXNXNXNX",
"NXNXsXjXsXNXVXAXwXL.` +.g       / :.1 #.,.k l rXAXNXNXNXNXNXNXNX",
"NXNXNXNXNXNXNXNXVXCX;.I ^ 9     , k ,.6.;X2.&XiXNXNXNXNXNXNXNXNX",
"NXNXNXNXNXNXNXNXNXNXyXiXwX4X%.z vXPXDXeXiXVXCXsXNXNXNXsXNXNXNXNX",
"zXzXxXxXxXzXzXZXFXFXFXFXFXFXSXFXFXFXFXFXFXFXFXFXFXFXFXFXSXAXFXAX",
" XXXOXoX.XOXoXpX0X*X8X8X*X=X1X-X*X*X*X*X1.J.*X<X-X*X&X<.eXeX1.FX",
"F.4.4.4.V.4.H.pX2X5XeX0X*X*X9X2X8X2X<X-X*X-X8X1X1X7X2X<XeXyX7XGX",
"W.Z.F.Z.F.A.W.lXiXyXGXCXSXSXJXCXiXjXeXAXNXGXVXsXNXAXFXGXGXKXAXIX"
};
