/* XPM */
static char *render_output_bezier_clamp[] = {
/* columns rows colors chars-per-pixel */
"32 32 216 2",
"   c #060506",
".  c #060606",
"X  c gray5",
"o  c #0D0D0E",
"O  c #0D0E0D",
"+  c #0E0D0D",
"@  c #0E0D0E",
"#  c #0E0E0D",
"$  c #151516",
"%  c #151615",
"&  c #151616",
"*  c #161515",
"=  c #161516",
"-  c #161615",
";  c #161616",
":  c #1F1419",
">  c gray12",
",  c #1F1F20",
"<  c #1F201F",
"1  c #1F2020",
"2  c #201F1F",
"3  c #340517",
"4  c #2F1D25",
"5  c #20201F",
"6  c gray16",
"7  c #29292A",
"8  c #292A29",
"9  c #292A2A",
"0  c #2A2929",
"q  c #2A292A",
"w  c #2A2A29",
"e  c #2A2A2A",
"r  c #32282B",
"t  c #343435",
"y  c #343534",
"u  c #343535",
"i  c #353434",
"p  c #353435",
"a  c #353534",
"s  c #353535",
"d  c #363535",
"f  c #383436",
"g  c #5F1F37",
"h  c #6A082D",
"j  c #6C1535",
"k  c #7D0C37",
"l  c #4E3C42",
"z  c #732442",
"x  c #404041",
"c  c #404140",
"v  c #404141",
"b  c #414040",
"n  c #414041",
"m  c #414140",
"M  c #414141",
"N  c #424041",
"B  c #424141",
"V  c gray30",
"C  c #4D4D4E",
"Z  c #4D4E4D",
"A  c #4E4D4D",
"S  c #59595A",
"D  c #595A59",
"F  c #595A5A",
"G  c #5A5959",
"H  c #5A595A",
"J  c #5A5A59",
"K  c #5A5A5A",
"L  c #78495B",
"P  c #666767",
"I  c #676667",
"U  c #676766",
"Y  c #676767",
"T  c #737474",
"R  c #747474",
"E  c #9C2B55",
"W  c #A70240",
"Q  c #B90E4E",
"!  c #BD1152",
"~  c #AF2258",
"^  c #835466",
"/  c #8B767E",
"(  c #B2406B",
")  c #D00350",
"_  c #D70453",
"`  c #C13469",
"'  c #DC2B6E",
"]  c #DE3373",
"[  c #EC035A",
"{  c #EF055D",
"}  c #E0115F",
"|  c #E21361",
" . c #F50B63",
".. c #FF0060",
"X. c #FE0563",
"o. c #F90C65",
"O. c #FE0B66",
"+. c #FB176D",
"@. c #FD136B",
"#. c #F71F70",
"$. c #FC1B70",
"%. c #F12874",
"&. c #FB2375",
"*. c #FB2676",
"=. c #FB2777",
"-. c #FB2C7A",
";. c #FA2E7B",
":. c #FA317D",
">. c #B16380",
",. c #BC6888",
"<. c #F73D83",
"1. c #F93982",
"2. c #F93C83",
"3. c #DF4C83",
"4. c #D36790",
"5. c #F94286",
"6. c #F75592",
"7. c #F65793",
"8. c #F65894",
"9. c #F65A95",
"0. c #F65D96",
"q. c #E96697",
"w. c #E86D9C",
"e. c #F66098",
"r. c #F5689D",
"t. c #F46DA0",
"y. c #F37BA8",
"u. c #818181",
"i. c #818182",
"p. c #818281",
"a. c #828081",
"s. c #828181",
"d. c #828182",
"f. c #8E8E8E",
"g. c #8E8E8F",
"h. c #8E8F8E",
"j. c #8F8E8E",
"k. c #8F8E8F",
"l. c #9A9B9B",
"z. c #9B9B9A",
"x. c #9B9B9B",
"c. c #AD9BA2",
"v. c #A7A7A7",
"b. c #A7A7A8",
"n. c #A7A8A7",
"m. c #A7A8A8",
"M. c #AAA1A5",
"N. c #A8A7A7",
"B. c #A8A7A8",
"V. c #A8A8A7",
"C. c gray66",
"Z. c gray70",
"A. c #B3B3B4",
"S. c #B3B4B3",
"D. c #B3B4B4",
"F. c #B4B3B3",
"G. c gray",
"H. c #BEBEBF",
"J. c #BEBFBE",
"K. c #BEBFBF",
"L. c #BFBEBE",
"P. c #BFBFBE",
"I. c gray75",
"U. c #CC96AB",
"Y. c #D1AAB9",
"T. c #F280AB",
"R. c #F188B0",
"E. c #F18BB2",
"W. c #F18EB3",
"Q. c #F191B5",
"!. c #F093B6",
"~. c #EAA5BF",
"^. c #EFA4C0",
"/. c #EEA6C2",
"(. c #EEACC5",
"). c #EEAFC6",
"_. c #EDB7CB",
"`. c #EDBACD",
"'. c #C8C9C9",
"]. c #C9C8C9",
"[. c #C9C9C8",
"{. c gray79",
"}. c #DEC4CE",
"|. c #D2D2D2",
" X c #D2D2D3",
".X c #D2D3D2",
"XX c #D2D3D3",
"oX c #D3D2D2",
"OX c #D3D2D3",
"+X c #D3D3D2",
"@X c LightGray",
"#X c #DBD7DA",
"$X c #DADBDB",
"%X c #DBDADA",
"&X c #DBDADB",
"*X c #DBDBDA",
"=X c gray86",
"-X c #EBC5D4",
";X c #ECC2D2",
":X c #ECC4D3",
">X c #ECC5D3",
",X c #EBCDD8",
"<X c #EAD5DD",
"1X c #EAD8DE",
"2X c #E9DAE0",
"3X c #E9DDE2",
"4X c #E2E2E2",
"5X c #E2E3E2",
"6X c #E3E2E2",
"7X c #E7E8E8",
"8X c #E9E0E3",
"9X c #E9E1E4",
"0X c #E8E7E7",
"qX c #E8E7E8",
"wX c #E8E8E7",
"eX c gray91",
/* pixels */
"eXeXeXeXeXeXeXeXeXeXeXeXeXeXeXeXeXeXeXqXeXeXeXeXeXeXqXeXeXeXeXeX",
"eXeXeX7XeXeXeXeXeXeXeXeXeXeXeXeXeXeXeX;X~.E.e.0.8.;.;.*.X.*.-.8.",
"eXeXeXeXeXeXeXeXeXeXeXeXeXeX>Xy.2.&...*.5.0.E.E.Q.`.`.>XeX9X1X>X",
"eXeXeXeXeXeXeXeXeXeXeX<Xr.$.&.t.(.>XeXeXeXqXqXeXeXeXeXeXeXeXeXeX",
"eXeXeXeXeXeXeXeXeXeX~.@.y.,XeXeXeXeXeXeXeXeXeXeXeXeXeXqXeXeXeXeX",
"eXeXeXeXeXeXeXeXeX`.;.2XeXeXeXeXeXeXeXeXeXeXeXeXeXeXeXeXeXeXeXeX",
"qXeXeXeXeXeXeXeXeX:.`.eXeXeXeXeXeXqXeXeXeXeXeXeXeXeXeXeXeXeXeXeX",
"eXeXeXeXeXeXeXeX).1.eXeXeXeXeXeXeXeXeXeXeXeXeXeXeXeXeXeXeXeXeXeX",
"eXeXeXeXeXeXeXeX9.W.eXeXeXeXeXeXeXeXeXeXeXeXeXeXeXeXeXeXeXeXeXeX",
"eXeXeXeXeXqXeX3XO.3XeXeXeXeXeXeXeXeXeXqXeXeXeXeXeXeXeXqXeXeXeXeX",
"eXqXeXeXqXqXeX!.6.eXeXeXqXqXeXqXeXeXqXqXeXeXqXqXeXeXeXqXqXqXeXeX",
"5X5X5X5X5X5X5X<.~.5X5X5X6X5X5X5X5X5X5X5X5X5X5X5X6X5X5X5X5X5X5X6X",
"%X&X%X&X%X=X}.+.#X%X&X&X&X*X%X%X%X&X&X&X%X%X%X%X%X%X%X%X%X&X%X=X",
"|.|.oX|.|.|.w.q.|.OX|.|.|.|.|.|.OXOX|.|.|.|.oX|.|.oX|.|.oXoX@X|.",
"{.{.{.[.{.{.#.Y.{.{.{.{.{.{.{.{.[.[.[.{.{.{.].{.{.{.[.].{.{.{.{.",
"P.K.K.K.L.U.%.K.K.K.K.K.I.K.K.K.K.K.L.K.K.K.K.K.K.I.K.K.K.K.I.I.",
"D.A.A.D.D.3.,.D.S.D.D.D.S.S.D.D.F.F.Z.Z.Z.Z.Z.Z.Z.Z.S.S.S.S.S.S.",
"v.v.v.n.v. .b.m.v.n.v.n.v.v.v.n.v.v.v.v.v.N.v.v.v.v.n.v.n.n.v.n.",
"z.x.l.l.,.] l.l.x.z.z.z.z.l.z.l.x.z.z.z.x.x.z.z.x.x.x.z.x.z.z.z.",
"f.g.g.g.' >.h.h.f.f.k.k.k.f.k.k.f.f.f.f.f.f.f.f.k.k.k.k.f.f.k.f.",
"i.i.i./  .>.p.p.i.i.i.i.p.p.p.p.i.i.i.i.i.i.i.i.i.i.i.i.i.i.i.i.",
"T T R ( ` T T T T T T T T T T T R R R T R R R T R R R R R R R R ",
"U U U | ^ I U U U U U U P P P P U U U U U U U U U U U U U U U U ",
"K K L } K K K K K K K K F F D D K K K K K K K K K K K K K K K K ",
"A A ~ E A Z Z Z Z Z Z Z Z Z Z Z Z Z Z Z Z Z A A A A Z Z Z Z Z Z ",
"v l { l l v v v v l c v c x l c c c c c v v l b b b v l v v v x ",
"u z Q f t u u u y y y y t t t t t t t t u u y y p p y y t t t t ",
"8 Q g e 9 7 9 7 0 0 0 0 7 7 7 7 0 7 7 7 7 7 0 0 0 0 0 0 7 7 7 7 ",
"4 [ j > 1 < < < > > > 2 > 2 2 2 < < < 2 2 2 > 2 > 2 > > < < < > ",
"k _ : & & & & & * * & * & - & - & & & & & * & & - & & & % & & % ",
") h o o O O o o O + O O O o o # o O o o O O o O o o O o o o o o ",
"W 3 . . . . . . .   . . . . . . . . . . . . . . . . . . . . . . "
};
