/* XPM */
static char *render_ccg_bump_procedural[] = {
/* columns rows colors chars-per-pixel */
"32 32 112 2",
"   c #020202",
".  c #0B0B0B",
"X  c #0B1114",
"o  c #131313",
"O  c #1B1C1B",
"+  c #242424",
"@  c #2B2C2C",
"#  c #333333",
"$  c #3C3D3C",
"%  c #2E355C",
"&  c #2E3A60",
"*  c #32445E",
"=  c #3E405F",
"-  c #354263",
";  c #334B64",
":  c #374968",
">  c #3E4363",
",  c #375068",
"<  c #3A5166",
"1  c #3A536E",
"2  c #3F5370",
"3  c #3A686E",
"4  c #3C687C",
"5  c #4B252A",
"6  c #5B2D2D",
"7  c #444444",
"8  c #4B4B4B",
"9  c #4F504F",
"0  c #545454",
"q  c #5C5D5C",
"w  c #45526D",
"e  c #445C7B",
"r  c #4E5877",
"t  c #545669",
"y  c #515779",
"u  c #505970",
"i  c #595F74",
"p  c #456179",
"a  c #416C7E",
"s  c #4D607B",
"d  c #616161",
"f  c #6B6268",
"g  c #6A6A6A",
"h  c #646675",
"j  c #636B7D",
"k  c #6F727E",
"l  c #7D6463",
"z  c #737373",
"x  c gray49",
"c  c #3E6C81",
"v  c #496986",
"b  c #417287",
"n  c #437C8C",
"m  c #497486",
"M  c #4C738C",
"N  c #467C92",
"B  c #576780",
"V  c #517D8E",
"C  c #5D778B",
"Z  c #627D85",
"A  c #6E7482",
"S  c #757C8B",
"D  c #7C7E8D",
"F  c #43818C",
"G  c #498597",
"H  c #498897",
"J  c #4B8D9C",
"K  c #5C8193",
"L  c #53909C",
"P  c #4E93A2",
"I  c #5394A4",
"U  c #509BA6",
"Y  c #539CAD",
"T  c #53A1AD",
"R  c #708287",
"E  c #7F828E",
"W  c #78898F",
"Q  c #813D50",
"!  c #885759",
"~  c #82706E",
"^  c #AC516A",
"/  c #828282",
"(  c #8C8C8C",
")  c #878A96",
"_  c #8F908F",
"`  c #8F929E",
"'  c #939393",
"]  c #93969C",
"[  c #9A9B9B",
"{  c #9798A2",
"}  c #9B9EA4",
"|  c #9BA3A4",
" . c #9EA2AA",
".. c #A4A4A4",
"X. c #A7A8AE",
"o. c #ACACAC",
"O. c #AEB0B1",
"+. c #B2AFAF",
"@. c #B3B3B3",
"#. c #B5B5B9",
"$. c #B4B8BA",
"%. c #BBBCBB",
"&. c #BEC0C1",
"*. c #C1BEBE",
"=. c #C3C2C3",
"-. c gray80",
";. c #D3D4D3",
":. c #DDDDDD",
">. c #E5E5E5",
",. c #EDEDED",
"<. c #F4F4F4",
"1. c #FEFEFE",
/* pixels */
"=.=.&.=.=.&.=.=.&.=.=.&.=.=.&.=.=.&.=.=.&.=.=.&.=.=.&.=.=.&.=.=.",
"&.=.=.&.=.=.&.=.=.&.=.=.&.=.=.&.=.=.&.=.=.&.=.=.&.=.=.&.=.=.&.=.",
"=.%.=.*.&.*.=.%.=.*.&.*.=.%.=.*.&.*.=.o.A j j j j j j j j j S ` ",
"=.&.=.&.=.&.*.=.&.*.=.&.*.=.&.*.=.&.' < 4 F F n F F F F F n ; k ",
"=.%.=.*.=.*.&.*.=.&.*.=.&.*.=.&.*.O.w G U P P P P P P P P 4 u @.",
"=.=.&.*.&.=.%.=.%.=.&.*.=.&.*.=.%.R n T Y Y Y Y Y Y Y Y P * ` =.",
"&.*.&.=.%.=.=.&.=.*.=.&.*.=.&.%.| 3 P T Y Y Y Y Y Y Y Y c u %.=.",
"=.=.&.*.=.&.*.*.&.=.%.=.&.*.=.&.R n T T T Y T T Y Y T T , E &.=.",
"&.=.=.&.*.=.&.=.*.&.=.*.=.&.*.o.R P T T Y T T Y Y T Y P 2 O.*.&.",
"#.=.g _ @.=.%.=.&.*.=.&.*.=.&.O.K T T T T T T T T Y T G B *.&.=.",
"=.>.$ $ . 8 @ 8 ( @.&.=.&.=.&.W F T T T T T T T T T Y M S *.=.&.",
"=.>.+ _ . _ =.o   . . O +.%.@.C U = 6 ~ T T T Y T T P e X.&.=.*.",
"=.>.O ,.  d 1.g 0 q 8 + # @ O c U @ l ^ ! f I Y T T H r %.=.&.=.",
"-.<.o 1.d [ 1.( #.1.1.<.7 @ O P T X 6 ^ ^ ^ ! l T T c S %.=.%.=.",
"z 1.$ -.<.<.1./ -.1.1.o.. . O T o ^ ^ ^ ^ ^ l 5 T T v ) &.=.=.&.",
"  + d ..1.1.>.g ;.1.<.o     O Q ^ ^ ^ ^ ^ Q 5 T T P e X.=.%.=.*.",
"..+   # o.0 + o d 1.<.+   . o ^ ^ ^ ^ ^ Q 5 T T T N w $.=.=.&.=.",
";.<.z     . 7 8   = 1.5     O ^ ! . ^ Q 5 T T T U v C $.&.*.&.*.",
"=.1.<./ ' =.1.[ +.. 8 0   . O ! 5 . Q 5 T T T T P ;  .&.=.&.=.=.",
"=.1./ d 1.1.1.g +.;.  +   . + 5 U o 5 I T T T T N % o.=.%.=.*.&.",
"' ;.. # ;.,.1./ o <....   . O T T T T T Y T T P 1 ) %.=.=.&.=.=.",
". .       + g ' . 0 1.g   . O T T T T T T T T b > #.&.*.&.*.&.*.",
"} q $ x #       .   %.# o   O I L Y T T T T I : D &.=.&.=.=.=.&.",
"-.<.o o.>.(     .     . 7   o % e V L U Y I a y O.&.*.=.%.=.%.=.",
"<.1.g   1.1.7 .   0 d O O   O { h % - e M m r } %.=.&.=.=.%.=.=.",
"1.1.<.. =.1.,...8 o.,.x   . O &.@.%.] t > % i @.=.&.*.&.=.=.%.=.",
";.-.1.x q 1.1.1.....1.=.    o =.=.=.=.=.@.[ O.=.%.=.=.*.&.*.=.&.",
"=.=.%.+.7 1.,.1.:.8 =.%.  O @ =.&.=.=.%.=.=.&.=.=.&.=.&.=.&.*.=.",
"&.*.&.=.%.*.@.%.>.O   O o 0 z =.&.=.&.=.&.=.=.&.*.&.*.=.%.=.&.=.",
"=.&.=.=.&.=.=.%.+.z # O q ..%.&.*.=.%.=.%.=.%.=.=.=.&.*.=.*.=.&.",
"=.=.%.=.=.&.=.=.*.&.=.=.*.=.%.=.&.=.*.&.=.*.=.&.*.&.*.&.=.%.=.=.",
"&.=.=.&.*.&.*.=.&.=.*.&.*.&.=.=.*.&.=.*.&.=.%.=.%.=.=.%.=.&.*.&."
};
