/* XPM */
static char *render_ccg_base_template_x[] = {
/* columns rows colors chars-per-pixel */
"32 32 166 2",
"   c #131D30",
".  c #172133",
"X  c #15233B",
"o  c #1A2335",
"O  c #1B2639",
"+  c #1D283A",
"@  c #222C3C",
"#  c #1B2A43",
"$  c #1C2D49",
"%  c #1F304C",
"&  c #232D42",
"*  c #212F4B",
"=  c #253043",
"-  c #23324B",
";  c #2A3344",
":  c #2B354A",
">  c #2E384A",
",  c #253550",
"<  c #283651",
"1  c #2B3A53",
"2  c #2D3D59",
"3  c #313B4C",
"4  c #333E52",
"5  c #313E59",
"6  c #2F405C",
"7  c #354053",
"8  c #33425B",
"9  c #394354",
"0  c #39455B",
"q  c #3D485B",
"w  c #344964",
"e  c #3B4A64",
"r  c #3E4D68",
"t  c #36556D",
"y  c #3F566C",
"u  c #434C5B",
"i  c #4B535D",
"p  c #54585E",
"a  c #434E61",
"s  c #414E69",
"d  c #455063",
"f  c #44526B",
"g  c #495364",
"h  c #49556B",
"j  c #4F5862",
"k  c #4D586C",
"l  c #455671",
"z  c #455975",
"x  c #495672",
"c  c #4C5A73",
"v  c #4E5E79",
"b  c #575D64",
"n  c #525B6C",
"m  c #585E67",
"M  c #525E74",
"N  c #505D78",
"B  c #4F607C",
"V  c #5C646A",
"C  c #556073",
"Z  c #53627C",
"A  c #596373",
"S  c #5A657B",
"D  c #5E697B",
"F  c #656B6C",
"G  c #636C74",
"H  c #626B7C",
"J  c #686F76",
"K  c #6E7273",
"L  c #6C7379",
"P  c #72787E",
"I  c #7B7E7D",
"U  c #546581",
"Y  c #596783",
"T  c #5B6A85",
"R  c #5C6D89",
"E  c #597582",
"W  c #5F708C",
"Q  c #676F81",
"!  c #606D89",
"~  c #667082",
"^  c #63728C",
"/  c #6A7383",
"(  c #68758E",
")  c #6F7983",
"_  c #6F7989",
"`  c #657691",
"'  c #687692",
"]  c #6B7994",
"[  c #6D7D98",
"{  c #727983",
"}  c #727C8A",
"|  c #797F88",
" . c #717E9A",
".. c #6F809C",
"X. c #718488",
"o. c #798085",
"O. c #7C848B",
"+. c #758095",
"@. c #73829C",
"#. c #7B8493",
"$. c #79849A",
"%. c #7D899F",
"&. c #7485A1",
"*. c #7788A4",
"=. c #7886A2",
"-. c #7988A3",
";. c #7D8EAA",
":. c #89941B",
">. c #949F2C",
",. c #95A028",
"<. c #A0AD22",
"1. c #A3B122",
"2. c #ACB82F",
"3. c #ACB934",
"4. c #929947",
"5. c #A2AA5E",
"6. c #A9B152",
"7. c #ADB55E",
"8. c #B9C640",
"9. c #BCC941",
"0. c #BECA4B",
"q. c #BAC26C",
"w. c #C0C87A",
"e. c #808486",
"r. c #8C8E8E",
"t. c #808A92",
"y. c #898F93",
"u. c #869095",
"i. c #87919B",
"p. c #8D9091",
"a. c #8E959D",
"s. c #919392",
"d. c #939998",
"f. c #9A9D9D",
"g. c #8191AD",
"h. c #8894AC",
"j. c #8C9DB9",
"k. c #949DA3",
"l. c #9DA2A2",
"z. c #91A0BC",
"x. c #A6A88F",
"c. c #A4A59A",
"v. c #A8AB90",
"b. c #A8AA9C",
"n. c #B7BA9E",
"m. c #A5A5A5",
"M. c #A7A8A5",
"N. c #A5A9A9",
"B. c #ABABAB",
"V. c #ADB0AE",
"C. c #ADB1B0",
"Z. c #B5B6A7",
"A. c #B1B1AE",
"S. c #B7BAA1",
"D. c #B5B8AF",
"F. c #B3B4B3",
"G. c #B6B8B6",
"H. c #BCBCBC",
"J. c #97A5C1",
"K. c #9CADC9",
"L. c #BFC0BF",
"P. c #C2C69C",
"I. c #C2C4AB",
"U. c #C0C0BF",
"Y. c #C0C0C0",
"T. c #C9C9C8",
/* pixels */
"r.m.m.m.m.m.M.m.m.m.M.m.M.m.m.m.M.M.m.m.m.m.m.m.m.m.m.m.m.m.m.p.",
"m.Y.Y.Y.Y.Y.Y.Y.Y.Y.Y.Y.Y.H.G.F.G.G.L.H.Y.Y.Y.Y.Y.Y.Y.Y.Y.Y.Y.m.",
"m.Y.Y.Y.Y.Y.Y.Y.Y.H.H.C.N.k.t./ Q { t.f.C.H.Y.Y.Y.Y.Y.Y.Y.Y.Y.m.",
"m.Y.Y.Y.Y.Y.Y.Y.H.m.a.$. . .^ c q u a M ~ t.l.H.Y.Y.Y.Y.Y.Y.Y.m.",
"m.Y.Y.Y.Y.Y.Y.C.y.}  . .@.@.( k a N Z Z c h n e.F.H.Y.Y.Y.Y.Y.m.",
"m.Y.Y.Y.Y.H.N.| n M ( -.h.%.A g S ] ^ R S v f a ) N.H.Y.Y.Y.Y.m.",
"m.Y.Y.Y.Y.B.| A u u n H Q A n g D  . .^ R U l 5 h _ N.H.Y.Y.Y.m.",
"m.Y.Y.U.F.i.] ^ Z g a n n n n n D  .$.' R S r > s Z O.B.Y.Y.Y.m.",
"m.Y.Y.H.k.$.] ] ' Z h V S D A A A H D S N f 4 > 0 h c O.H.Y.Y.M.",
"m.Y.H.B.-.[ ]  .&.^ M D / _ / H n g h a u 9 3 3 3 0 e h d.H.Y.M.",
"m.Y.H.k.] ' ] ..=. .S Q #.#.~ A S Y Y h q 4 3 3 3 : > > J F.Y.m.",
"m.Y.C.$.` ` ] ..*.-.T / $.~ D @.g.*.[ ! N 0 > > > 3 3 = u m.Y.M.",
"m.H.l.( ! ^ ] [ *.@.D Q ~ S %.J.z.g.@.] R c 8 ; 3 q a 8 4 y.U.m.",
"m.H.a.R R ^ ' [ @.[ C A M ^ z.K.j.;. .' R U r ; 3 h x w 1 P H.m.",
"m.G.#.Z T ^ ` ] [ T g n k [ z.z.g.*.] ` R U s > > h f 2 - A F.m.",
"M.F.Q v Y R ` ` W f d g g ' g.g.*. .` R Y U s - > f s 1 * d A.m.",
"m.C.L x U T R R h 0 u i e T =.@.[ ' W R U v e & = e e 2 # a B.m.",
"m.H.{ e l Z v s 1 7 u u 0 h ^ ] ^ R T U Z z < . & > 2 , X m G.m.",
"m.H.| 3 1 2 4 = > 9 q q 9 7 x T R Y U B x 8 O . @ @ & X   G H.m.",
"m.H.y.0 & O @ @ 3 9 9 9 7 > 3 e x z x y 2 O   o @ o .   @ e.H.m.",
"m.Y.m.n ; @ = : 3 3 4 9 3 3 ; = - 1 < & X   o @ + o + + 0 l.Y.m.",
"m.Y.F.O.g 9 3 > > > 3 3 3 3 ; @ O O o . o O @ + o + = < G F.Y.m.",
"m.Y.Y.N.^ k u 3 @ 3 ; > > > : > 3 3 9 3 > = @ o . = - 0 d.U.Y.m.",
"m.Y.Y.G.y.Z M i 3 3 @ @ ; @ > q h N N h e > @   O = < L F.Y.Y.m.",
"m.Y.Y.Y.B._ z z q > @ @ @ : 9 x N N l r e 5 *   . - A m.Y.Y.Y.m.",
"m.Y.Y.Y.Y.m.E t e 8 = @ @ 3 d f e 6 2 1 < < * & @ g f.H.Y.Y.Y.m.",
"m.Y.Y.Y.L.L.l.E w 6 : O o 1 e 2 2 , % $ $ # & ; m f.H.Y.Y.Y.Y.m.",
"m.Y.Y.Y.Y.Y.L.N.X.f 1 @ . @ - % % $ # # # * 4 L m.H.Y.Y.U.Y.Y.m.",
"v.P.P.P.P.P.P.I.D.d.J 4 @   X   X # # # 4 V s.A.F.F.A.F.H.H.Y.m.",
"7.9.9.9.9.9.0.q.n.A.m.s.J p p u a g b F I s.m.B.m.l.f.m.F.H.H.b.",
"6.2.,.1.1.1.3.q.n.F.H.G.F.B.A.M.m.m.m.m.A.F.F.F.F.F.F.U.T.T.T.Z.",
"4.,.:.:.:.,.>.5.x.M.B.B.B.m.A.B.B.m.f.m.m.B.B.B.m.m.A.F.F.G.H.c."
};
