/* XPM */
static char *render_ccg_base_blinn[] = {
/* columns rows colors chars-per-pixel */
"32 32 130 2",
"   c #1F321B",
".  c #20331D",
"X  c #233621",
"o  c #253822",
"O  c #293B26",
"+  c #2B3E29",
"@  c #2E412B",
"#  c #31432E",
"$  c #344631",
"%  c #364833",
"&  c #394B35",
"*  c #3A4D38",
"=  c #3D513B",
"-  c #404D3F",
";  c #40533D",
":  c #4D613C",
">  c #50653E",
",  c #6F7815",
"<  c #747D16",
"1  c #445541",
"2  c #465943",
"3  c #495C46",
"4  c #4B5D48",
"5  c #4D614A",
"6  c #51634E",
"7  c #566846",
"8  c #536651",
"9  c #566953",
"0  c #5A6557",
"q  c #596558",
"w  c #596B55",
"e  c #5B6C59",
"r  c #5E715B",
"t  c #61735E",
"y  c #637560",
"u  c #667963",
"i  c #687466",
"p  c #6C766B",
"a  c #697B65",
"s  c #6B7D69",
"d  c #707A6F",
"f  c #727E73",
"g  c #787F77",
"h  c #7B7D7C",
"j  c #778117",
"k  c #7A841C",
"l  c #6D816B",
"z  c #71836E",
"x  c #748671",
"c  c #758873",
"v  c #7C847A",
"b  c #788B75",
"n  c #7B8D79",
"m  c #7D907B",
"M  c #A1AD23",
"N  c #AFBC24",
"B  c #B1BE26",
"V  c #909942",
"C  c #80827F",
"Z  c #808A77",
"A  c #808D7F",
"S  c #81937D",
"D  c #B1BB40",
"F  c #A0A37B",
"G  c #B1C025",
"H  c #B9C62E",
"J  c #BBC750",
"K  c #C9D64D",
"L  c #CAD750",
"P  c #CCD56C",
"I  c #838483",
"U  c #848D83",
"Y  c #8A8B8A",
"T  c #849481",
"R  c #869983",
"E  c #899587",
"W  c #8B948A",
"Q  c #899B85",
"!  c #8B9E89",
"~  c #93938E",
"^  c #929C8F",
"/  c #949494",
"(  c #979798",
")  c #929C91",
"_  c #999C95",
"`  c #9B9A9A",
"'  c #8EA18C",
"]  c #90A38D",
"[  c #95A393",
"{  c #95A893",
"}  c #9CA29C",
"|  c #99AC96",
" . c #9CAD99",
".. c #9EB09A",
"X. c #A0A49E",
"o. c #A0AA9E",
"O. c #ABAD94",
"+. c #ADB380",
"@. c #A1B39E",
"#. c #A3A4A2",
"$. c #A4ABA3",
"%. c #A8A9A8",
"&. c #A4B6A1",
"*. c #A4B8A2",
"=. c #ADB2AC",
"-. c #A8BBA6",
";. c #ACBEA9",
":. c #B0B2AE",
">. c #B2B4B3",
",. c #B6B9B5",
"<. c #B9BAB7",
"1. c #BBBCBB",
"2. c #AEC0AA",
"3. c #B2C5AE",
"4. c #B5C6B1",
"5. c #B6C9B5",
"6. c #BFC0BE",
"7. c #B9CCB6",
"8. c #BED0BB",
"9. c #BFC0C0",
"0. c #C0BFBF",
"q. c #C0BFC0",
"w. c #C3C6A9",
"e. c #C9CDA4",
"r. c #C1C1BE",
"t. c #C2D4BE",
"y. c #C0C0C0",
"u. c #C4D6C1",
"i. c #C5D8C4",
"p. c #C9DBC5",
/* pixels */
"/ %.%.%.%.%.%.%.%.%.%.%.%.%.%.%.%.%.%.%.%.%.%.%.%.%.%.%.%.%.%.( ",
"%.q.y.y.y.y.6.y.y.y.q.y.y.r.1.1.1.1.1.0.9.9.y.q.y.9.9.y.y.y.q.%.",
"%.6.q.y.y.y.y.y.q.y.1.>.$.) T T U T W } :.1.9.9.y.y.y.y.9.q.9.%.",
"%.q.q.q.y.y.6.y.1.:.[ n c l l l a a u a c W $.1.9.y.y.y.y.q.0.%.",
"%.y.9.y.y.y.y.1. .S c x c c c c z l l u t r l ) ,.6.y.y.q.y.9.%.",
"%.y.y.y.y.6.,.[ n c b n n b n b b x l l u t r y T =.q.y.y.q.q.%.",
"%.y.9.9.6.>.] n c n n S S S S S m b x l l u r e r n %.q.y.y.y.%.",
"%.y.6.6.1.[ b c n S R Q Q ! ! R m m b z l u t r 9 e n >.q.q.q.%.",
"%.y.y.1. .n c b m R Q ' { { { ' Q m m x l a y r 9 6 8 T 1.q.q.%.",
"%.9.y.>.m l b n T Q ] | @.*.@...] R m c l l y r w 6 3 w #.q.q.%.",
"%.y.1.[ l x c m T ' | *.2.7.4.-...' m b z s u r w 6 4 2 v 1.q.%.",
"%.y.>.n l l b m R ]  .2.8.p.8.4...' R v l a t r w 6 4 ; 9 $.q.%.",
"%.9.o.s s z b m S ] ..2.8.p.t.4.@.' m c l s t r w 6 4 ; = W q.%.",
"%.1.^ u s z x m S ' | -.7.8.7.2...' m c l u t r 9 5 3 ; & f 1.%.",
"%.1.T t a l z b S R ] ..-.2.-...{ S n z s y r w 8 5 2 = $ i 1.%.",
"%.1.U r u l l c b S R ] { { { ' S m z l a r r w 8 4 1 * # e <.%.",
"%.1.n r y u s z c b S S Q S S S m x l l y r w 9 5 3 ; = @ e ,.%.",
"%.1.n w t u a s z z c b n n b c z l u r r w w 5 3 2 = % O e 1.%.",
"%.0.W 9 e r u u l l z z z z z l l u t r r 9 8 5 3 ; * @ O p 1.%.",
"%.q.} w 9 e r y t t t l t l a t t r r r 9 5 5 3 1 = % @ + U q.%.",
"%.y.%.p 6 9 e r t t t t t t t t r r 9 9 8 5 5 ; = & @ O * #.q.%.",
"%.q.1.T 5 5 8 9 r r r r r r r w 9 8 9 5 5 2 ; ; & $ + X p 1.q.%.",
"%.0.9.$.t 4 5 6 9 9 8 9 w 9 9 8 6 5 5 5 2 ; = & % + X * _ q.q.%.",
"%.0.9.1.E w 3 3 5 5 6 7 6 6 6 5 5 5 2 ; ; = & $ + O @ p 1.q.q.%.",
"%.q.y.y.=.x 7 2 ; 3 4 4 4 4 3 3 2 1 1 * * & + + o O w %.q.y.y.%.",
"%.9.y.y.y.$.s > ; ; ; ; ; ; ; ; = = * % $ + + X O 4 #.q.y.y.y.%.",
"%.9.q.q.r.r.$.a > & & * ; * & & & # $ + + X X + e #.1.y.q.y.q.%.",
"%.q.9.q.r.r.r.=.Z 6 # @ # @ # # @ + O X X   + d %.y.y.y.y.y.q.%.",
"O.w.w.w.w.w.w.r.<.` p - + O X O   . . X % q I >.q.q.q.q.y.9.%.W ",
"D K L L K K P e.0.0.<.` h q 4 1 1 1 0 p ~ #.#.:.>.>.:.%.1.q.%./ ",
"M B B B B H K +.~ ` #.Y Y I Y I C C I h C I I Y Y Y Y Y ` %.#./ ",
"< < < < < < V F ( ` #.` ` ` %.` ( ( Y / ( ` ` / ` ` ` #.%.<.>.` "
};
