/* XPM */
static char *render_ccg_base_useBackground[] = {
/* columns rows colors chars-per-pixel */
"32 32 86 1",
"  c #1E4418",
". c #20451A",
"X c #24481E",
"o c #254920",
"O c #294C24",
"+ c #2E5028",
"@ c #32522D",
"# c #365531",
"$ c #385733",
"% c #3A5835",
"& c #3D5B39",
"* c #415E3C",
"= c #6F7815",
"- c #747D16",
"; c #475F43",
": c #485E44",
"> c #456241",
", c #496345",
"< c #4C6648",
"1 c #4E684A",
"2 c #546D51",
"3 c #586E54",
"4 c #597155",
"5 c #5C7359",
"6 c #60765C",
"7 c #61785E",
"8 c #657A62",
"9 c #687D65",
"0 c #6A7D68",
"q c #7B7D7C",
"w c #778117",
"e c #7A841C",
"r c #748572",
"t c #768873",
"y c #7F827E",
"u c #7D8C7C",
"i c #A1AD23",
"p c #AFBC24",
"a c #B1BE26",
"s c #909942",
"d c #808F7F",
"f c #81917F",
"g c #B1BB40",
"h c #A0A37B",
"j c #B1C025",
"k c #B9C62E",
"l c #BBC750",
"z c #C9D64D",
"x c #CAD750",
"c c #CCD56C",
"v c #838483",
"b c #8A8B8A",
"n c #849182",
"m c #8B9289",
"M c #93938E",
"N c #929C8F",
"B c #949494",
"V c #979798",
"C c #939D91",
"Z c #9A9B94",
"A c #9B9A9B",
"S c #99A396",
"D c #9CA49B",
"F c #9EA89D",
"G c #A0A89F",
"H c #ABAD94",
"J c #ADB380",
"K c #A3A4A2",
"L c #A5ABA3",
"P c #A8ADA7",
"I c #A8A9A8",
"U c #ACB1AC",
"Y c #B0B0AF",
"T c #B3B4B3",
"R c #B6B8B5",
"E c #B7BAB8",
"W c #B8BAB6",
"Q c #BBBCBB",
"! c #BFC0BE",
"~ c #BEC0C0",
"^ c #C0BFBE",
"/ c #C0BFC0",
"( c #C3C6A9",
") c #C9CDA4",
"_ c #C1C1BE",
"` c #C0C0C0",
/* pixels */
"BIIIIIIIIIIIIIIPIIIIIIIIIIIIIIIV",
"I/`~/~~~//!/!!EYYEQ/!!//`!~~``/I",
"I!/~````__RDu821149uFR!/~//```/I",
"I///``~`RN5@o      o%5CT/````/!I",
"I~/~`//P8@. ...O      @8PQ~/~``I",
"I`~/`_S<X. O#2rdtt5#O  X>D_~``/I",
"I~!~!D&  o&rDU``~/RFr&o .>D!`~`I",
"I`/!P<. o4GQ/_``~`~~WG5o  <I///I",
"I~~W9X o4P!!````````~/U5O X8RQ/I",
"I/`C@ X4P!!/````````///U5X @N_/I",
"I/W7  &F~~//````````~```L&..5W/I",
"I/G%  rW/~//`````````~``WrX %G~I",
"I_fo &F/~~``````````````/F% Ou!I",
"IQ9  7W~~```````````````/T4  9!I",
"IW2  9Q/```````````````~//t  2EI",
"IR2  9!/`````````````~`~~/t  2RI",
"IR2  9!/``````````````````t..2RI",
"IW5  9!~``````````````````t. 2WI",
"I!0  5W!`````````````````T3..9QI",
"I!uo *I/`````````````````F# Xu^I",
"I/F% On!``````````````_`Qro $D^I",
"I/E7. ,P`````~````````__K&. 5W^I",
"I//C@.X0Q``````~``````_P2o @C`^I",
"I/!R9X.@fW``~``/``````U4o o8W`/I",
"I/~`U<. @9PQ!`!~/~~!EF3o  <P!//I",
"I!~`_D>. o,nIW!WQ~EG9&o X&D/!!/I",
"I~``/!D>X  O>895998%o  o<DQ!`!/I",
"I/~~//!L9@.           +9P!!/`!/I",
"H((((((`WC6%O     .X$4vT////`!IM",
"azzzzzc)^ETZr3,:::30bKKUETYIQ`IM",
"iappjklJMAKbbvbbvqvqvvvbbbbvVIKB",
"---weeshAAKAVAIAVBMMVAVVVAAKYETA"
};
