/* XPM */
static char *render_ccg_base_mix20layers[] = {
/* columns rows colors chars-per-pixel */
"32 32 214 2",
"   c #1C2E19",
".  c #1E311C",
"X  c #21321E",
"o  c #233621",
"O  c #253822",
"+  c #293B26",
"@  c #2B3D29",
"#  c #2D402B",
"$  c #31432E",
"%  c #344531",
"&  c #364933",
"*  c #384B36",
"=  c #3C4C39",
"-  c #3E513B",
";  c #404B3F",
":  c #41523E",
">  c #6F7916",
",  c #747D16",
"<  c #435541",
"1  c #465943",
"2  c #485A45",
"3  c #4B5D49",
"4  c #505C4F",
"5  c #535D52",
"6  c #4E614B",
"7  c #51634D",
"8  c #546551",
"9  c #566953",
"0  c #586556",
"q  c #586A55",
"w  c #5B6D58",
"e  c #5D705A",
"r  c #626E44",
"t  c #60695E",
"y  c #65764F",
"u  c #61735D",
"i  c #6F7C57",
"p  c #646D63",
"a  c #637560",
"s  c #667862",
"d  c #697666",
"f  c #6C766A",
"g  c #697B65",
"h  c #747C72",
"j  c #7C7C7D",
"k  c #79831A",
"l  c #7B854B",
"z  c #76845D",
"x  c #788555",
"c  c #7D8A5E",
"v  c #6E8066",
"b  c #6E8068",
"n  c #708269",
"m  c #7D8A63",
"M  c #7D8675",
"N  c #7B817A",
"B  c #A0AD22",
"V  c #AFBD26",
"C  c #B0BF25",
"Z  c #8D9645",
"A  c #8D964B",
"S  c #919941",
"D  c #959B58",
"F  c #989E50",
"G  c #839066",
"H  c #869368",
"J  c #88946A",
"K  c #989D73",
"L  c #9CA14D",
"P  c #99A055",
"I  c #9AA05F",
"U  c #AA947F",
"Y  c #B98D6F",
"T  c #BC8F73",
"R  c #B29667",
"E  c #A2A551",
"W  c #A4A952",
"Q  c #A6AA5C",
"!  c #ACA159",
"~  c #A8AB52",
"^  c #AEB15D",
"/  c #B1BC41",
"(  c #B2B356",
")  c #B1B459",
"_  c #BBBB5C",
"`  c #A0A47A",
"'  c #ACB161",
"]  c #B4B665",
"[  c #B4B668",
"{  c #BFB564",
"}  c #BCBD63",
"|  c #BBBD69",
" . c #B0B27E",
".. c #B4C126",
"X. c #B7C62E",
"o. c #BBC74F",
"O. c #BFC05F",
"+. c #BFC06B",
"@. c #C09075",
"#. c #C09278",
"$. c #CD9A7E",
"%. c #D0997F",
"&. c #C6A76F",
"*. c #CAA076",
"=. c #CFA579",
"-. c #CABD6A",
";. c #D1A07F",
":. c #D5A97D",
">. c #CAD64E",
",. c #CAD850",
"<. c #C4C362",
"1. c #C2C36D",
"2. c #CAC464",
"3. c #CDCA65",
"4. c #CDCB68",
"5. c #CDD76E",
"6. c #D1C26E",
"7. c #D2CD67",
"8. c #D4CE69",
"9. c #D9CB6F",
"0. c #DBC077",
"q. c #DCCA74",
"w. c #D5D26A",
"e. c #DAD56C",
"r. c #DCD86D",
"t. c #DBD770",
"y. c #DDD970",
"u. c #E3CF77",
"i. c #E0DA6E",
"p. c #E5D178",
"a. c #E3DC71",
"s. c #E9D47A",
"d. c #E9DE73",
"f. c #E5E072",
"g. c #E8E073",
"h. c #848483",
"j. c #838A81",
"k. c #888986",
"l. c #8A8B8A",
"z. c #889280",
"x. c #8F948E",
"c. c #908F90",
"v. c #94968E",
"b. c #959594",
"n. c #959994",
"m. c #989B95",
"M. c #9B9B9A",
"N. c #9DA29C",
"B. c #B09582",
"V. c #B49987",
"C. c #A8A382",
"Z. c #ACAD8F",
"A. c #ACAD93",
"S. c #A8AD99",
"D. c #ADB380",
"F. c #B8A093",
"G. c #B9A79C",
"H. c #BCBA89",
"J. c #B8BB94",
"K. c #A3A4A2",
"L. c #A3A8A2",
"P. c #A8ABA7",
"I. c #A8A9A8",
"U. c #AFAFB0",
"Y. c #AEB0AD",
"T. c #B4B6A2",
"R. c #BEB3AE",
"E. c #BABCA9",
"W. c #B4B4B3",
"Q. c #B7B8B6",
"!. c #B7B8B9",
"~. c #B9BCB7",
"^. c #BDBCBB",
"/. c #BEBEC0",
"(. c #BFC1BF",
"). c #BFC0C0",
"_. c #C09781",
"`. c #CA9A82",
"'. c #D49D84",
"]. c #D89F85",
"[. c #C2A08D",
"{. c #C0AB8B",
"}. c #C9A18D",
"|. c #C3A493",
" X c #C2A79A",
".X c #C6AB9D",
"XX c #CBA592",
"oX c #CAAA9C",
"OX c #D7A284",
"+X c #D2A18B",
"@X c #DBA287",
"#X c #DDA289",
"$X c #DCAF81",
"%X c #DDB082",
"&X c #C1ADA3",
"*X c #C1B4AD",
"=X c #C3B7B0",
"-X c #C2B9B5",
";X c #C0BDBC",
":X c #E1A58B",
">X c #E4A88D",
",X c #E8AB8D",
"<X c #E7A890",
"1X c #EAAC90",
"2X c #E4B486",
"3X c #E9B689",
"4X c #E9B88A",
"5X c #C0BFC1",
"6X c #C3C5A7",
"7X c #C3C6A8",
"8X c #CACEA3",
"9X c #C4C6B1",
"0X c #C1C1BE",
"qX c #C0C0C0",
/* pixels */
"b.I.I.I.I.I.I.I.I.I.I.I.I.I.I.I.I.I.I.I.I.I.I.I.I.I.I.I.I.I.I.m.",
"I./.qXqXqXqXqXqX5XqX/.qXqXqX;X^.^.;X0X0X/././.qXqXqXqXqXqXqX/.I.",
"I././.qXqXqXqXqX5X;X;X=X&X.X|.[._.H.H.J.E.0XqXqXqXqXqXqXqXqXqXI.",
"I./.qXqX/.qXqXqX;X=XoX+X].].].%.;.-.-.} [ D.T./.qXqXqXqXqXqXqXI.",
"I.qXqXqXqXqXqX-XoX+X@X].:X:X,X-.9.8.3.<.O.) I J Y.;XqX/.qXqXqXI.",
"I.qXqXqXqXqX=XXX].:X>X>X>X2Xp.a.r.e.7.3.<.^ x 9 d P././.qXqXqXI.",
"I.qXqX/./.R.}.@X>X>X<X,X3Xs.a.a.r.r.e.3.' c e 9 6 u L.^.;XqXqXI.",
"I.qXqX/.-X}.OX:X>X<X1X4Xs.a.g.a.r.i.8.| m u e q 7 3 d I.qXqXqXI.",
"P.qXqX0X X'.@X>X>X,X4Xs.g.g.f.f.r.e.+.G g s e q 9 3 2 h !./.qXI.",
"I.qX0X*X`.].#X>X>X3Xs.g.g.f.a.a.r.1.H v s u u w 9 7 1 3 m././.I.",
"I./.;X|.%.].#X>X2Xs.d.g.g.f.a.a.1.H v g s u e w 9 6 2 - f Q.qXI.",
"I.5X=X#.%.OX#X2Xp.a.g.g.a.a.y.1.J b g g s u e q 8 7 2 : 3 P.qXI.",
"I./.G.#.%.OX:.u.a.a.d.i.a.r.1.J b g g s u u e q 7 6 1 : * j.^.I.",
"I./.F.@.$.:.q.e.r.r.i.r.t.1.J n b g s s u e q q 7 6 1 : % f ^.I.",
"I.^.V.T *.6.8.e.e.r.r.w.1.J n g g s s a u e q 9 7 6 1 - $ t !.I.",
"I.^.B.Y &.3.7.w.w.e.8.| H g g g s a a e e q q 9 6 2 : = $ 4 W.I.",
"I.~.U R { <.3.7.7.7.| G g g s s a a e e w 9 8 7 6 1 - * @ 8 U.I.",
"I.^.U ! _ <.<.2.2.] m g s s a a a e e w q 9 7 6 2 < - & @ 0 !.I.",
"I.;XC.E ( ) <._ ' m s u u u u e e w w q 9 7 6 2 1 - * # O p ^.I.",
"I.5XZ.F ~ ( ) Q z u a e u e e w w q 9 9 6 6 3 2 < - & # O N /.I.",
"I.0XT.D F W F i e e w w w w w q q 9 8 6 6 6 2 < = * @ O % M./.I.",
"I.5X^.K Z A y q 9 q q 9 q q 9 9 8 8 6 3 2 2 < - * % @ X 0 W./.I.",
"I.qX5XS.l y 6 6 7 7 7 9 7 8 7 7 6 3 3 1 < < - * % @ o @ x.0XqXI.",
"I././.~.J : : 1 6 6 6 6 6 6 6 2 2 2 1 < - - & # @ o X w Q.qXqXI.",
"P.qXqXqXI.0 = : : 2 2 1 2 2 2 1 : : : = * & @ @ o   < K./.qXqXI.",
"I./.qXqX0XS.4 & = : : : : : : : : = * & % @ @ X   % n.5XqXqX/.I.",
"I.qXqXqX/./.N.8 & % * = * * * * & & $ $ @ o X   < n.^./.qXqX5XI.",
"I.qXqXqX/././.I.f = @ @ $ $ # # # @ + X X   + t K./.5X5XqX/.qXI.",
"D.6X6X(.7X7X9X0X!.n.p = @ o X   X X     @ 5 j W.qX5XqX;XqXqXI.v.",
"V >.>.>.,.,.5.8X!./.W.n.j 5 < ; = ; 4 p k.K.N.U.Q.W.U.I.^.qXI.b.",
"B V ......X.o. .c.M.M.l.h.h.l.h.j j J j h.h.h.l.l.l.l.h.M.I.K.b.",
", , > k k k S ` M.M.K.M.M.M.K.K.M.b.c.c.b.M.M.b.b.M.N.I.I.W.W.M."
};
