/* XPM */
static char *render_ccg_base_ward[] = {
/* columns rows colors chars-per-pixel */
"32 32 131 2",
"   c #1C2F19",
".  c #1D311B",
"X  c #21331D",
"o  c #243621",
"O  c #253822",
"+  c #293C26",
"@  c #2B3C29",
"#  c #2D402A",
"$  c #30432D",
"%  c #344531",
"&  c #364933",
"*  c #394B36",
"=  c #3B4D39",
"-  c #3E513B",
";  c #41533E",
":  c #6F7815",
">  c #747D16",
",  c #424D40",
"<  c #445441",
"1  c #465943",
"2  c #485B45",
"3  c #4B5E49",
"4  c #515D4F",
"5  c #545F53",
"6  c #4D604B",
"7  c #51634E",
"8  c #536650",
"9  c #566853",
"0  c #596456",
"q  c #596658",
"w  c #596B55",
"e  c #5C6D59",
"r  c #5D705B",
"t  c #606A5F",
"y  c #61735D",
"u  c #646E62",
"i  c #637561",
"p  c #667963",
"a  c #687566",
"s  c #6B7669",
"d  c #697B66",
"f  c #6B7D68",
"g  c #737D72",
"h  c #7B7C7C",
"j  c #778117",
"k  c #7A841C",
"l  c #6E816B",
"z  c #71836D",
"x  c #738571",
"c  c #758872",
"v  c #788577",
"b  c #7A827A",
"n  c #798B76",
"m  c #7C8B7A",
"M  c #7F937D",
"N  c #A1AD23",
"B  c #AFBC24",
"V  c #B1BE26",
"C  c #909942",
"Z  c #808D7D",
"A  c #81937D",
"S  c #B1BB40",
"D  c #A0A37B",
"F  c #B1C025",
"G  c #B9C62E",
"H  c #BBC750",
"J  c #C9D64D",
"K  c #CAD750",
"L  c #CCD56C",
"P  c #838483",
"I  c #838C81",
"U  c #888987",
"Y  c #8B8B8A",
"T  c #839381",
"R  c #869883",
"E  c #889386",
"W  c #8E958D",
"Q  c #889984",
"!  c #8D998B",
"~  c #93938E",
"^  c #909A8E",
"/  c #949494",
"(  c #979798",
")  c #969B95",
"_  c #999C95",
"`  c #9B9B9A",
"'  c #91A38E",
"]  c #96AA94",
"[  c #98A097",
"{  c #9CA29C",
"}  c #9CAF99",
"|  c #9EB09B",
" . c #ABAD94",
".. c #ADB380",
"X. c #A3A4A2",
"o. c #A5A9A4",
"O. c #A9A9A8",
"+. c #A5B8A2",
"@. c #A8B7A5",
"#. c #ABB0AA",
"$. c #ABBDA9",
"%. c #B0B0AF",
"&. c #B3B4B4",
"*. c #B6B8B6",
"=. c #B7B9B8",
"-. c #B8B8B7",
";. c #BBBCBB",
":. c #BFBFC0",
">. c #B1C2AE",
",. c #B5C5B3",
"<. c #BFC0BE",
"1. c #B9CAB6",
"2. c #BFCFBC",
"3. c #BFD0BC",
"4. c #BFC1C0",
"5. c #C0BFBE",
"6. c #C0BFC0",
"7. c #C3C6A9",
"8. c #C9CDA4",
"9. c #C1C1BE",
"0. c #C0CFBD",
"q. c #C1D1BE",
"w. c #C0C0C0",
"e. c #C3D1C1",
"r. c #CCDBC9",
"t. c #D7E0D4",
"y. c #DCE6D9",
"u. c #DBE9DB",
"i. c #E1EFDF",
"p. c #ECF3EB",
"a. c #F0F6EE",
/* pixels */
"/ O.O.O.O.O.O.O.O.O.O.O.O.O.O.O.O.O.O.O.O.O.O.O.O.O.O.O.O.O.O.( ",
"O.6.w.w.6.w.4.w.w.w.6.w.w.<.;.=.=.;.;.:.6.6.6.6.6.6.w.w.w.w.6.O.",
"O.6.<.w.w.w.w.6.6.6.<.O.{ Q A m m A E ( O.;.6.5.6.w.w.6.6.w.4.O.",
"O.6.6.6.w.w.w.w.;.O.Q n l l f f a i i i f m { =.6.w.w.w.w.6.<.O.",
"O.w.4.w.w.4.<.&.! c l l l l l l f f p p r w r m O.5.w.w.w.6.w.O.",
"O.6.w.6.w.4.#.M z l z l z z z z l f d p i r w 9 f o.6.w.w.4.6.O.",
"O.w.4.w.6.O.v l l z x z c z x z l l f d p y r 9 6 i o.;.w.w.w.O.",
"O.w.w.w.&.A z l z c c c c c z x l l f d p y r w 8 3 i O.6.6.w.O.",
"O.w.w.;.! l n n n c c c c x c z l l f d d i r r 8 3 2 g -.6.6.O.",
"O.<.w.o.l l Q ' Q M n c c z z z z l l f f f l i w 6 1 2 ( 5.6.O.",
"O.w.;.T p l R >.1.>.| ' E A A M A A R R Q A l y 9 6 3 ; f =.6.O.",
"O.w.O.z d l n | r.u.u.t.r.e.q.q.3.3.1.>.| R l r 8 6 2 ; 1 X.w.O.",
"O.w.[ i p f l M | q.y.p.p.a.p.p.p.u.3.+.R l y w 8 6 3 < = U :.O.",
"O.<.E r p d l l c R ] +.>.1.1.,.$.| Q c d y r 9 8 3 1 = & s ;.O.",
"O.;.v r i d d l l l z c n m n n c z l y y e w 9 6 6 1 = % e =.O.",
"O.;.v e y p d d l d l d f f d d l y y y r e 9 9 6 2 < = # q =.O.",
"O.=.v w r i p p d d d d d d p p y y y r w w 9 7 6 ; - * # 9 &.O.",
"O.;.v 8 r y i i i p p p p p y y r r r r 9 9 7 6 6 ; - & # 9 -.O.",
"O.;.I 8 9 e r y y p y y y y y y r r w 9 9 7 6 6 ; ; - # O a ;.O.",
"O.6.W 6 8 w e e y r y y r y y w w w 9 8 6 6 6 2 ; - & # O b ;.O.",
"O.w.O.e 6 8 w w w w r r e e w w 9 9 8 7 6 6 1 ; = & $ O % ` 5.O.",
"O.w.;.g 2 3 8 8 9 9 w 9 w w 9 9 8 7 7 6 6 ; ; - * % + X 0 -.5.O.",
"O.w.;.{ 6 1 3 6 8 6 8 8 7 7 6 7 6 6 6 6 ; ; - * % @ o @ / w.6.O.",
"O.6.6.=.v < < 2 3 6 6 6 6 6 6 3 6 ; ; ; - - & $ @ O X q *.w.5.O.",
"O.;.w.w.#.e - ; < 1 2 1 2 2 1 1 1 < = - * % % @ O   < X.6.w.6.O.",
"O.w.w.w.w.{ 4 * = ; ; ; ; ; ; ; - - * & % @ + o   & ` <.<.6.w.O.",
"O.w.w.w.w.;.{ 4 & % & * * = * & & $ # # @ O     , ` ;.6.4.6.6.O.",
"O.w.w.w.w.6.;.o.s = @ @ $ @ $ $ # @ + O .   @ q o.5.6.6.6.w.6.O.",
" .7.7.7.7.7.7.9.-./ t * @ O o O X .     @ 5 h &.6.6.6.6.w.<.O.W ",
"V J J J K K L 8.5.;.&._ g 5 < , ; , 5 u Y ` X.%.&.&.%.O.;.w.O./ ",
"N V B B G G H ..~ ` X.Y Y U Y U P h P h P U U Y Y Y Y U ( O.o./ ",
"> > > j j k C D ` ` X.( ( ( O.` ( ( Y ~ ( ` ( / ( ` ` X.%.=.%.` "
};
