/* XPM */
static char *magick[] = {
/* columns rows colors chars-per-pixel */
"32 32 205 2",
"   c #767675",
".  c #7b8515",
"X  c #7d8716",
"o  c #478fd9",
"O  c #488fd9",
"+  c #4c8fd8",
"@  c #4c90d8",
"#  c #5897d8",
"$  c #5999da",
"%  c #58c7b9",
"&  c #5cc7b9",
"*  c #64c8bb",
"=  c #64c9bc",
"-  c #c25c69",
";  c #c35f6c",
":  c #c3606c",
">  c #c56773",
",  c #818c16",
"<  c #8c9718",
"1  c #96a31d",
"2  c #9fad1f",
"3  c #a5b321",
"4  c #a7b521",
"5  c #a9b721",
"6  c #afbf23",
"7  c #b3c222",
"8  c #d2e22f",
"9  c #d5e535",
"0  c #d6e638",
"q  c #d7e831",
"w  c #d8e837",
"e  c #878786",
"r  c #858582",
"t  c Gray54",
"y  c #8c8c8b",
"u  c #8e8e8d",
"i  c #908f8d",
"p  c Gray57",
"a  c #949493",
"s  c Gray59",
"d  c #989898",
"f  c #9c9c9b",
"g  c #9e9d9d",
"h  c #9c9ca1",
"j  c Gray63",
"k  c Gray65",
"l  c #a5a4ab",
"z  c #a9a9a9",
"x  c #b2b2b2",
"c  c #b4b5b4",
"v  c Gray75",
"b  c #bebec1",
"n  c #bec392",
"m  c #bdc195",
"M  c #c78ba6",
"N  c #c58ea7",
"B  c #cb88a3",
"V  c #ce8ba3",
"C  c #c989a5",
"Z  c #c692a9",
"A  c #c499ae",
"S  c #c69daf",
"D  c #cb94aa",
"F  c #c997ac",
"G  c #cc90aa",
"H  c #cf95aa",
"J  c #cf94ac",
"K  c #c991a9",
"L  c #ca99ae",
"P  c #cd99ac",
"I  c #d294a6",
"U  c #d295a8",
"Y  c #d098ae",
"T  c #d39cad",
"R  c #d59eac",
"E  c #da9fa9",
"W  c #d29cb0",
"Q  c #c4a4b3",
"!  c #c5a7b5",
"~  c #c6abb7",
"^  c #c4acb7",
"/  c #caa1b1",
"(  c #c8acb7",
")  c #caa9b5",
"_  c #cfafb8",
"`  c #c6b2bb",
"'  c #c6b6bd",
"]  c #c3bbbf",
"[  c #c4babe",
"{  c #c5bdbf",
"}  c #cbb3bc",
"|  c #cbb4bb",
" . c #cab6be",
".. c #cdb6be",
"X. c #ceb2bd",
"o. c #cdb8bf",
"O. c #c9babe",
"+. c #d3a1af",
"@. c #d9a0ac",
"#. c #d7a7b5",
"$. c #d2a8b3",
"%. c #d4a9b4",
"&. c #d3abb8",
"*. c #d1adbb",
"=. c #daacb3",
"-. c #daafb5",
";. c #d3b5ba",
":. c #dab3b7",
">. c #d8b5be",
",. c #dcb2bb",
"<. c #ddb3bc",
"1. c #d8b9be",
"2. c #e1b3b5",
"3. c #e0babf",
"4. c #e3bebf",
"5. c #c5bfc1",
"6. c #cabdc0",
"7. c #cfbac0",
"8. c #cdbec2",
"9. c #d1bec3",
"0. c #d2bfc4",
"q. c #e0bac0",
"w. c #e2bec1",
"e. c #cace9f",
"r. c #c3c6a5",
"t. c #c4c7a7",
"y. c #c5c7ab",
"u. c #c5c7ac",
"i. c #e6c3be",
"p. c #c2c2c1",
"a. c #c0c0c6",
"s. c #c5c1c2",
"d. c #c4c4c3",
"f. c #c6c6c5",
"g. c #c9c1c2",
"h. c #cbc5c5",
"j. c #cfc1c4",
"k. c #ccc7c7",
"l. c #c9c9c6",
"z. c #cdc8c7",
"x. c #cdcec7",
"c. c #cbcbc9",
"v. c #cbcccc",
"b. c #cecbc8",
"n. c #cececa",
"m. c #cfcfcd",
"M. c #cfd0cf",
"N. c #d2c3c3",
"B. c #d3c1c4",
"V. c #d3c5c7",
"C. c #d5c2c5",
"Z. c #d5c5c7",
"A. c #d6c7c9",
"S. c #d0cecb",
"D. c #d5ccc9",
"F. c #d5cfcd",
"G. c #dcc6c4",
"H. c #dfcdc7",
"J. c #dac8c8",
"K. c #d1d1cb",
"L. c #d1d1cd",
"P. c #d6d1cb",
"I. c #d7d3cd",
"U. c #d5d5ce",
"Y. c #d9d0ce",
"T. c #dfd0c9",
"R. c #d9d9cf",
"E. c #d2d2d2",
"W. c #d6d6d1",
"Q. c #d6d6d5",
"!. c #d9d9d2",
"~. c #d9d9d5",
"^. c #dfded3",
"/. c #ddddd6",
"(. c #dadad9",
"). c Gray87",
"_. c #e0d0cc",
"`. c #e9d3cd",
"'. c #ebd5ce",
"]. c #edd2c8",
"[. c #eed9ce",
"{. c #e9dfd5",
"}. c #efdcd2",
"|. c #e6e4d7",
" X c #e2e2d6",
".X c #e1e1d9",
"XX c #e5e5da",
"oX c #e6e6dc",
"OX c #e8e2d6",
"+X c #ebe5d8",
"@X c #ededdd",
"#X c #f0ecdc",
"$X c #f7efdc",
"%X c #f2e9da",
"&X c #f7f0de",
"*X c Gray88",
"=X c Gray90",
"-X c #f3f2e1",
";X c #f4f3e1",
":X c #f7f6e3",
">X c #f9f5e3",
",X c #fbf9e5",
"<X c #fcfbe7",
"1X c #fdfde8",
"2X c Gray97",
/* pixels */
"p.p.p.p.p.p.p.p.d.d.d.d.f.d.d.d.l.l.l.c.c.b.b.b.c.c.c.l.d.d.p.p.",
"p.p.p.p.p.p.p.p.d.f.l.c.c.x.l.c.b.M.L.U.W.W.W.W.W.U.L.b.l.d.d.p.",
"p.p.p.p.p.p.p.d.l.b.b.K.K.b.b.b.L.W./..XXXoXoXoXXX.X/.W.L.c.d.p.",
"p.p.p.p.p.p.d.l.b.K.^.-X1X1XXXU.!.$ O o o o o o o o o @ V.b.d.p.",
"p.p.p.p.p.d.l.b.K. X1X;X+X{.J.V.!.$ O o o o o o o o o @ &.8.l.p.",
"p.p.p.p.p.d.b.K.!.,X,XG.%.H G *.Y.# O o o o o o o o o @ W ..l.p.",
"p.p.p.d.d.l.K.R.@X1X%X-.+.P L X.F.# O o o o o o o o o + J } d.p.",
"p.p.p.d.f.b.U.^.:X1X[.=.;.8.6.h.S.A.>.<.3.w.w.w.q.<.#.Y L ' d.p.",
"p.p.p.d.l.K.!.|.1X1Xi.:.N.b.d.c.c.b.V.B.B.A.A.A.V.B.9.o. .s.p.p.",
"p.p.p.d.b.XX1X1X1X1X1X1XD.l.l.d.l.b.L.L.W.W.W.W.W.L.L.b.l.d.d.p.",
"p.p.p.d.b.^.#X:X1X$X[.`...g.d.l.c.m.U.W.!.~.~.~.!.W.U.L.c.d.d.p.",
"p.p.p.l.b.P.H.&X1X].E U L ` d.c.b.W./..XXXoXoXoXXX.X/.W.L.c.d.p.",
"p.p.p.d.K.P.T.,X1X2.R P S ' l.b.W.= % % % % % % % % % & V.k.d.p.",
"p.p.p.l.b.U.|.1X>X@.$...{ s.l.b.!.* % % % % % % % % % & &.8.l.d.",
"p.p.p.l.K.R.@X1X}.U _ h.d.d.l.M.!.* % % % % % % % % % & W 7.l.d.",
"p.p.d.x.K.R.;X1X4.H | d.p.p.d.b.W.* % % % % % % % % % & J } d.p.",
"d.d.l.b.U.!.,X,XI P O.d.p.p.d.c.b.A.>.<.3.w.w.w.q.,.#.Y L ' d.p.",
"d.l.b.K.U.XX1X`.V / 5.d.p.p.d.d.l.z.j.9.B.B.B.B.B.9.7. .' 5.p.p.",
"f.c.K.U.R.;X>XT B ( d.p.p.p.p.d.d.l.c.b.M.M.M.b.b.M.c.l.d.d.p.p.",
"l.oX1X1X1X-X1.B Z ' d.p.p.p.p.d.d.c.b.b.b.b.M.m.b.b.b.c.d.d.p.p.",
"l.U.OX{._._ D M ! 5.p.p.p.p.d.d.c.b.L.U.W.W.W.W.W.U.L.m.c.d.d.p.",
"f.g.) K B M Z Q [ p.p.p.p.p.d.c.M.W./..XXXoXoXoXXX.X/.W.L.c.d.p.",
"d.s.~ Z N A ^ ] p.p.p.p.p.p.f.b.W.> - - - - - - - - - : V.k.d.d.",
"p.s.5.' ' ] p.p.p.p.p.p.p.d.l.b.!.> - - - - - - - - - ; &.8.l.d.",
"p.p.d.p.p.p.p.p.p.p.p.p.p.p.l.m.!.> - - - - - - - - - - W ..l.p.",
"p.p.p.p.b p.p.p.p.p.p.p.p.p.d.b.W.> - - - - - - - - - - J  .d.p.",
"p.p.p.p.p.a.p.p.p.p.p.p.p.p.d.l.b.A.>.<.3.w.w.w.q.,.#.Y L ' d.p.",
"d.b a.d.a.a.5.b v v v v v p.p.d.l.k.8.9.9.B.B.B.0.9.o.} ` 5.p.p.",
"t.t.y.u.y.t.t.x.E.E.E.Q.E.E.E.E.Q.Q.~.(.(.(.(.(.(.(.~.Q.W.E.E.m.",
"8 0 9 9 9 w q m l p k j u y g p p y a i r e a g s u y   c x   Q.",
"4 X . , < . 6 n h j c k y u z j j g s p y p j g f j g d x v j ).",
"6 2 3 2 5 1 7 e.b v (.d.m.m.*Xc.v p.c c.d.).d.p.p.v.E.).).=XM.2X"
};
