/* XPM */
static char *render_lyrid_normal_map[] = {
/* columns rows colors chars-per-pixel */
"32 32 138 2",
"   c #313131",
".  c #323232",
"X  c gray20",
"o  c #343434",
"O  c #353535",
"+  c gray21",
"@  c gray22",
"#  c #393939",
"$  c #3F3F3F",
"%  c #414141",
"&  c #434343",
"*  c #444444",
"=  c gray28",
"-  c #484848",
";  c #4C4C4C",
":  c #4E4E4E",
">  c #515151",
",  c #535353",
"<  c gray33",
"1  c #555555",
"2  c #565656",
"3  c #585858",
"4  c gray35",
"5  c #5A5A5A",
"6  c #5B5B5B",
"7  c #5D5D5D",
"8  c gray37",
"9  c #5F5F5F",
"0  c #606060",
"q  c #626262",
"w  c gray39",
"e  c #646464",
"r  c #656565",
"t  c gray40",
"y  c #676767",
"u  c #686868",
"i  c DimGray",
"p  c #6A6A6A",
"a  c gray42",
"s  c #6C6C6C",
"d  c #6D6D6D",
"f  c gray43",
"g  c #6F6F6F",
"h  c gray44",
"j  c #717171",
"k  c #727272",
"l  c gray45",
"z  c #747474",
"x  c gray46",
"c  c #767676",
"v  c #777777",
"b  c gray47",
"n  c #797979",
"m  c gray48",
"M  c #7B7B7B",
"N  c #7C7C7C",
"B  c gray49",
"V  c #7E7E7E",
"C  c gray50",
"Z  c #808080",
"A  c #818181",
"S  c gray51",
"D  c #838383",
"F  c #848484",
"G  c gray52",
"H  c #868686",
"J  c gray53",
"K  c #888888",
"L  c #898989",
"P  c gray54",
"I  c #8B8B8B",
"U  c gray55",
"Y  c #8D8D8D",
"T  c #8E8E8E",
"R  c gray56",
"E  c #909090",
"W  c gray57",
"Q  c #929292",
"!  c #939393",
"~  c gray58",
"^  c #959595",
"/  c gray59",
"(  c #979797",
")  c #989898",
"_  c gray60",
"`  c #9A9A9A",
"'  c #9B9B9B",
"]  c gray61",
"[  c #9D9D9D",
"{  c gray62",
"}  c #9F9F9F",
"|  c #A0A0A0",
" . c gray63",
".. c #A2A2A2",
"X. c gray64",
"o. c #A4A4A4",
"O. c #A5A5A5",
"+. c gray65",
"@. c #A7A7A7",
"#. c gray66",
"$. c #A9A9A9",
"%. c #AAAAAA",
"&. c gray67",
"*. c #ACACAC",
"=. c gray68",
"-. c #AEAEAE",
";. c #AFAFAF",
":. c gray69",
">. c #B1B1B1",
",. c #B2B2B2",
"<. c gray70",
"1. c #B4B4B4",
"2. c gray71",
"3. c #B6B6B6",
"4. c #B7B7B7",
"5. c gray72",
"6. c #B9B9B9",
"7. c gray73",
"8. c #BBBBBB",
"9. c #BCBCBC",
"0. c gray74",
"q. c gray",
"w. c gray75",
"e. c #C0C0C0",
"r. c #C1C1C1",
"t. c gray76",
"y. c gray79",
"u. c #CBCBCB",
"i. c #CECECE",
"p. c gray84",
"a. c #D8D8D8",
"s. c gray86",
"d. c #E2E2E2",
"f. c #E6E6E6",
"g. c #E7E7E7",
"h. c #EAEAEA",
"j. c gray96",
"k. c #F9F9F9",
/* pixels */
"r.r.r.r.r.r.r.r.r.r.r.w.r.r.r.r.r.r.r.r.r.r.r.r.r.r.r.r.r.r.r.r.",
"r.r.r.r.r.r.r.r.r.r.w.w.2.>.>.=.=.=.>.7.w.r.r.r.r.r.r.r.r.r.r.r.",
"r.r.r.r.r.r.r.r.w.7.=.} ' ' } ' _ E E _ +.=.7.r.r.r.r.r.r.r.r.r.",
"r.r.r.r.r.r.r.7.=._ E ^ ' +.+.+.^ G G E ^ _ +.>.w.w.r.r.r.r.r.r.",
"r.r.r.r.r.r.>._ T T ^ ' } } +.} ^ A G ^ } +.} +.=.7.r.r.r.r.r.r.",
"r.r.r.r.r.>.E G K ^ _ ' } } +.+.' G b T } %.%.%.+.%.7.r.r.r.r.r.",
"r.r.r.r.2.E A K E ^ _ ' } } } +.+.^ V A ' %.=.=.%.+.%.7.r.r.r.r.",
"r.r.r.2.T b A K T E ^ ' } } +.+.%.} A b E %.>.=.=.%.+.=.w.r.r.r.",
"r.r.r.} b b A K T E _ ' } } +.%.%.%.E c A +.>.=.=.%.%.+.2.w.r.r.",
"r.r.2.E b V G K E ^ _ ' ' +.+.%.=.%.' V V _ } } } } } ' %.w.r.r.",
"r.r.=.K b V G K T ^ _ _ ' } } } } ' ^ K G T _ _ _ _ _ _ ' >.w.r.",
"r.r.} G b V G K T ^ ^ ^ _ ^ _ _ _ } +.} ^ ^ ' +.+.+.+.} ' =.w.r.",
"r.7._ G b V A K K T T T T E _ } >.r.p.u.' _ +.>.=.=.%.%.+.%.w.r.",
"r.>.^ G c V V A G G T E ^ _ } >.i.h.k.d.+.E } =.=.%.%.%.+.+.7.r.",
"r.>.E G c c b V G T T ^ _ } +.2.u.f.j.h.=.E _ %.=.%.%.+.} +.7.r.",
"r.} T A g c b G K T E ^ _ ' } =.7.p.p.p.>.E ^ +.%.%.%.%.} } 2.r.",
"w._ g e a c V G K T E ^ ^ _ ' +.%.2.w.w.=.^ E +.+.+.+.} } } 2.r.",
"w.^ : % 9 c b A G K T E ^ _ ' } } +.%.%.+.^ E ' } +.+.} ' } 7.r.",
"r.' = o : f b V G G T T E ^ ^ _ } } } +.} _ T _ +.} +.+.} } 7.r.",
"r.%.1   = e c b A G K T T ^ ^ _ ' ' ' ' ' ^ K _ +.%.%.%.+.%.7.r.",
"r.2.a o # 6 f c V A G K T E E ^ _ ^ ^ ^ E G T +.>.=.%.%.} %.w.r.",
"r.w.K $   = e c c V A G K K T K K G V c g f G %.=.%.} _ _ =.r.r.",
"r.r.=.9 o # 1 a c c V V b V b g a e a a f e f T ' _ E T _ 7.r.r.",
"r.w.w.T %   % 6 a a a a q q q q e a f c V g e V T T K K %.r.r.r.",
"r.r.r.>.f # o - > 1 1 1 6 9 e g c V A G K b a b G G A _ 7.r.r.r.",
"r.r.r.w.+.e : 1 6 1 6 q a f b V A A G G G g e c V b T >.r.r.r.r.",
"r.r.r.r.w.+.b g g f e e f g b b b V V A V f q a f A =.w.r.r.r.r.",
"r.r.r.r.r.r.=.K b g f a e f f g c c b b c a 6 e G %.w.r.r.r.r.r.",
"r.r.r.r.r.r.r.2._ A g f e q e a f c c c b c c E 2.r.r.r.r.r.r.r.",
"r.r.r.r.r.r.r.r.w.>.' T b a q e a g b A E ' >.w.r.r.r.r.r.r.r.r.",
"r.r.r.r.r.r.r.r.r.r.w.w.>.} E ^ ^ _ +.>.w.w.r.r.r.r.r.r.r.r.r.r.",
"r.r.r.r.r.r.r.r.r.r.r.r.r.r.w.w.w.w.r.r.r.r.r.r.r.r.r.r.r.r.r.r."
};
