/* XPM */
static char *render_ccg_mix20layers[] = {
/* columns rows colors chars-per-pixel */
"32 32 33 1",
"  c #080035",
". c #001121",
"X c #001127",
"o c #000A40",
"O c #000F40",
"+ c #001049",
"@ c #073360",
"# c #093364",
"$ c #314B52",
"% c #385858",
"& c #1C15CC",
"* c #141AD2",
"= c #1A55A5",
"- c #1C55A5",
"; c #2D4F80",
": c #345681",
"> c #005EC3",
", c #198A77",
"< c #208A77",
"1 c #598A76",
"2 c #5C8A76",
"3 c #5C987E",
"4 c #7EBA6B",
"5 c #00A4A5",
"6 c #00C2C3",
"7 c #00CECF",
"8 c #3ECFC5",
"9 c #5E9B80",
"0 c #42CFC6",
"q c #81BA70",
"w c #B095E0",
"e c #D6A68A",
"r c #C8BAE0",
/* pixels */
"ww-5++e277790#%qr*X :>>6ow&eee<7",
"ww=5++e177738@$4r*. ;>>6Ow&eee,7",
"ww=5++e177738@$4r*. ;>>6Ow&eee,7",
"ww=5++e177738@$4r*. ;>>6Ow&eee,7",
"ww=5++e177738@$4r*. ;>>6Ow&eee,7",
"ww=5++e177738@$4r*. ;>>6Ow&eee,7",
"ww=5++e177738@$4r*. ;>>6Ow&eee,7",
"ww=5++e177738@$4r*. ;>>6Ow&eee,7",
"ww=5++e177738@$4r*. ;>>6Ow&eee,7",
"ww=5++e177738@$4r*. ;>>6Ow&eee,7",
"ww=5++e177738@$4r*. ;>>6Ow&eee,7",
"ww=5++e177738@$4r*. ;>>6Ow&eee,7",
"ww=5++e177738@$4r*. ;>>6Ow&eee,7",
"ww=5++e177738@$4r*. ;>>6Ow&eee,7",
"ww=5++e177738@$4r*. ;>>6Ow&eee,7",
"ww=5++e177738@$4r*. ;>>6Ow&eee,7",
"ww=5++e177738@$4r*. ;>>6Ow&eee,7",
"ww=5++e177738@$4r*. ;>>6Ow&eee,7",
"ww=5++e177738@$4r*. ;>>6Ow&eee,7",
"ww=5++e177738@$4r*. ;>>6Ow&eee,7",
"ww=5++e177738@$4r*. ;>>6Ow&eee,7",
"ww=5++e177738@$4r*. ;>>6Ow&eee,7",
"ww=5++e177738@$4r*. ;>>6Ow&eee,7",
"ww=5++e177738@$4r*. ;>>6Ow&eee,7",
"ww=5++e177738@$4r*. ;>>6Ow&eee,7",
"ww=5++e177738@$4r*. ;>>6Ow&eee,7",
"ww=5++e177738@$4r*. ;>>6Ow&eee,7",
"ww=5++e177738@$4r*. ;>>6Ow&eee,7",
"ww=5++e177738@$4r*. ;>>6Ow&eee,7",
"ww=5++e177738@$4r*. ;>>6Ow&eee,7",
"ww=5++e177738@$4r*. ;>>6Ow&eee,7",
"ww=5++e177738@$4r*. ;>>6Ow&eee,7"
};
