/* XPM */
static char *render_ccg_base_twosided[] = {
/* columns rows colors chars-per-pixel */
"32 32 219 2",
"   c #0D0805",
".  c #0A0C09",
"X  c #0D100D",
"o  c #14130E",
"O  c #121611",
"+  c #151B14",
"@  c #17201C",
"#  c #1B231A",
"$  c #1F281E",
"%  c #222A1F",
"&  c #232D22",
"*  c #263124",
"=  c #203128",
"-  c #293126",
";  c #2B3429",
":  c #2E392C",
">  c #2D3E37",
",  c #313C2E",
"<  c #323D30",
"1  c #354333",
"2  c #394636",
"3  c #3C4B3A",
"4  c #4D3517",
"5  c #4F3919",
"6  c #573D1C",
"7  c #5A3D1C",
"8  c #5B401C",
"9  c #48452C",
"0  c #404E3D",
"q  c #41503E",
"w  c #5D4B33",
"e  c #5C4A38",
"r  c #63431F",
"t  c #68461F",
"y  c #634320",
"u  c #6D4722",
"i  c #6C4922",
"p  c #614E31",
"a  c #764E25",
"s  c #724E2A",
"d  c #74532E",
"f  c #7C5126",
"g  c #6F7815",
"h  c #747D16",
"j  c #434B41",
"k  c #4A4742",
"l  c #4E4E43",
"z  c #445341",
"x  c #475945",
"c  c #4B5549",
"v  c #485946",
"b  c #4C5D49",
"n  c #525C40",
"m  c #595F57",
"M  c #4E614B",
"N  c #51624D",
"B  c #536450",
"V  c #566B53",
"C  c #586D55",
"Z  c #5B6D58",
"A  c #5D7159",
"S  c #60664B",
"D  c #6D6849",
"F  c #696F5D",
"G  c #61755D",
"H  c #61785D",
"J  c #686563",
"K  c #647062",
"L  c #647961",
"P  c #6C746A",
"I  c #6B7D64",
"U  c #6C7968",
"Y  c #717D6E",
"T  c #727C71",
"R  c #7B7D7C",
"E  c #778117",
"W  c #7A841C",
"Q  c #698166",
"!  c #6C836A",
"~  c #738367",
"^  c #71866C",
"/  c #738A6D",
"(  c #758373",
")  c #748B70",
"_  c #7F827E",
"`  c #788975",
"'  c #7D8A7A",
"]  c #779172",
"[  c #7A9576",
"{  c #7F9979",
"}  c #825626",
"|  c #835629",
" . c #8A572A",
".. c #8A5A2B",
"X. c #835C31",
"o. c #8C5C30",
"O. c #905C2D",
"+. c #8F683E",
"@. c #95612F",
"#. c #9A612E",
"$. c #9D6531",
"%. c #A36632",
"&. c #A46933",
"*. c #AC6D35",
"=. c #AF753F",
"-. c #B16E36",
";. c #B17137",
":. c #B57238",
">. c #B4783D",
",. c #BB7437",
"<. c #BC753A",
"1. c #BF783C",
"2. c #886A4C",
"3. c #987145",
"4. c #A27245",
"5. c #A37B49",
"6. c #AC7D48",
"7. c #AA7F53",
"8. c #B07B49",
"9. c #BE7F4B",
"0. c #C3763A",
"q. c #C3793C",
"w. c #C37B40",
"e. c #C17F4D",
"r. c #A1AD23",
"t. c #AFBC24",
"y. c #B1BE26",
"u. c #9F805E",
"i. c #909942",
"p. c #8C857E",
"a. c #849F7E",
"s. c #899A7C",
"d. c #90857C",
"f. c #959268",
"g. c #8DA17F",
"h. c #B08350",
"j. c #BE8352",
"k. c #BA875A",
"l. c #A08F67",
"z. c #B39372",
"x. c #B1BB40",
"c. c #A0A37B",
"v. c #B1C025",
"b. c #B9C62E",
"n. c #BBC750",
"m. c #C6824D",
"M. c #C08554",
"N. c #C68F51",
"B. c #C9D64D",
"V. c #CAD750",
"C. c #CCD56C",
"Z. c #838483",
"A. c #858A87",
"S. c #8A8B8A",
"D. c #889587",
"F. c #8B9489",
"G. c #93938E",
"H. c #90988E",
"J. c #949494",
"K. c #979798",
"L. c #939B91",
"P. c #999B95",
"I. c #9B9B9A",
"U. c #85A180",
"Y. c #88A684",
"T. c #8CA985",
"R. c #97A395",
"E. c #9CA09C",
"W. c #95B28B",
"Q. c #99B791",
"!. c #9EB29B",
"~. c #9CBB95",
"^. c #B29E8D",
"/. c #B69E90",
"(. c #ABAD94",
"). c #ADB380",
"_. c #A3B695",
"`. c #A3BD94",
"'. c #AABD9D",
"]. c #B1A08E",
"[. c #BEA082",
"{. c #B6A093",
"}. c #B8A69B",
"|. c #BDA99C",
" X c #A4A4A3",
".X c #A5ABA5",
"XX c #A9A8A9",
"oX c #ACB5AB",
"OX c #AEBEA1",
"+X c #B4B4B4",
"@X c #B5BBB4",
"#X c #BAB6B3",
"$X c #BCBDBC",
"%X c #BFBFC1",
"&X c #A7CBA4",
"*X c #B1C4A5",
"=X c #B5C4A8",
"-X c #B6C8A9",
";X c #BAC3B8",
":X c #BADCAD",
">X c #B9DDB1",
",X c #BFE7B6",
"<X c #BEC1C5",
"1X c #C2ADA1",
"2X c #C6B1A5",
"3X c #C0BFC0",
"4X c #C3C6A9",
"5X c #C9CDA4",
"6X c #C7C0B7",
"7X c #C5C4BE",
"8X c #C8E9B8",
"9X c #CBF1BE",
"0X c #C1C1C1",
"qX c #C2C6C9",
"wX c #C4CAC4",
"eX c #C3C8CC",
"rX c #C8C7C8",
"tX c #C9CBC9",
"yX c #C6CDD0",
/* pixels */
"J.XXXXXXXXXXXXXXXXXXXXXXXXXXXXXXXXXXXXXXXXXXXXXXXXXXXXXXXXXXXXK.",
"XX0X0X$XqX#X+X+X#X$XrX%X0X$X$X0X0X0X0X0X0X0X0X0X0X$X0X0X0X3X$XXX",
"XX$X0XqX#XJ   o 0 d.+XqX3X0X0X0X0X0X0X0X0X0X0X0X0X0X0X0X0X0X0XXX",
"XX0X$XtXK.9 4 6 7 7 e d.#X0XqX0X0X$X0X0X3X0X0X0X0X0X3X0X$X0X0XXX",
"XX0X0X+XY n 6 7 7 y y u 2.{.eX<X0X$X0X0X3X0X0X3X0X0X0X3X0X0X0XXX",
"XXqX$XJ.Z S 8 7 y i i a f ..z.2XeX0X0X3X0X0X0X0X3X0X0X0X0X0X3XXX",
"XX$X@XU G I w r i i a | ....#.k.2XqX$X0X0X0X0X0X0X0X0X0X0X0X0XXX",
"XX0XXXB G Q D a i f | ....&.%.*.e.1XyX0X3X0X3X0X0X0X0X0X3X0X3XXX",
"XX$XF.B L I ^ +.f | ..@.$.&.*.-.<.m.|.%X0X0X0X0X0X3X3X0X0X0X3XXX",
"XX$XT b G ! / s.5...O.$.%.*.;.1.w.0.e./.qX0X$X0X0X0X0X0X0X0X0XXX",
"XX+XF B A Q ! g._.3.#.&.;.:.1.q.q.q.q.w./.0X0X0X0X0X3X0X0X0X0XXX",
"XX@Xb B Z I ! / ~.'.4.*.;.q.q.q.w.q.q.0.w./.0XqX3X0X0X0X0X0X0XXX",
"XX@Xb M Z L Q / a.:X*X8.0.q.q.q.q.q.w.q.q.q./.0XqX3X0X0X0X3X0XXX",
"XX@Xc b A Z L Q [ W.8X-Xj.q.q.q.w.q.w.q.w.q.q.{.0X0X3X0X0X0X0XXX",
"XX@Xc v B A H Q / a.~.9X=Xj.0.0.q.q.q.q.q.w.q.q.[.qX$X$X0X$X0XXX",
"XX$Xm 0 M Z A L Q [ T.~.,X*Xj.0.w.q.w.w.q.q.q.q.q.{.qX0X0X0X0XXX",
"XX$XP 1 b N Z H H ! [ Y.~.>X*Xj.0.q.q.w.q.w.1.1.,.:.}.eX;X0X0XXX",
"XX0XF.- q M V Z A H ! [ U.W.&X'.M.q.w.q.q.q.1.:.;.;.4.}.yX0X0XXX",
"XX0XoX1 2 x M V A A A ! ] { T.~.`.N.0.w.q.1.,.:.;.*.&.h.$XqX0XXX",
"XX0X$XU & 3 c b C C A A L ! ] { T.g.h.0.1.,.;.:.*.%.$.$.z.0X0XXX",
"XX0XrXE., , 0 x M N V A A A H L ! ^ / 8.0.,.:.*.&.$.#.O.@.^.0XXX",
"XX0XqX0XU # 1 3 z M M N C C A A Z H G G f.>.%.&.$.$.....} u.0XXX",
"XX0X$XtXXXj $ : 3 z v b M M B V C C Z C A F l.$.#.....|  ...0XXX",
"XX0X0X0XwXE.: $ 1 2 3 q b b M M N N M N M M N ..o.....| | s $XXX",
"XX$X0X0X0XtXH.* + , 1 2 q q q x v v v b x x x 0 l s d d u e $XXX",
"XX0X0X$X0X0XtXP., + & : , 2 3 2 3 3 q 0 3 3 0 2 < < > = @ A.3XXX",
"XX0X0X0X$X$X0XtX.X0 + + $ ; : 1 , 1 1 , 1 , , : - $ O - ` ;X0XXX",
"XX0X0X0X0X0X0X0XtX$XT 1 + X + # % & * & & # + O O & b _.wX0X3XXX",
"(.4X4X4X4X4X4X7XqXqXtXoX` x : & O o . . O # - 3 K R.0XrX0X0XXXG.",
"y.B.B.V.B.V.C.5X<X2X$X0XtX;XXXI.D.' ( ( ' F.P.+XtXqX+XXX@X0XXXG.",
"r.y.t.y.v.b.n.).G.I. XS.S.Z.A.A.Z._ Z.R Z.Z.Z.S.S.S.S.Z.K.XXXXJ.",
"h h h h W W i.c.P.I. XI.K.I.XXE.K.K.S.G.K.I.I.J.K.I.I. X+X+X+XI."
};
