/* XPM */
static char *render_ccg_base_lambert[] = {
/* columns rows colors chars-per-pixel */
"32 32 105 2",
"   c #1C2F19",
".  c #1E311C",
"X  c #21331D",
"o  c #233620",
"O  c #253822",
"+  c #293B26",
"@  c #2C3D29",
"#  c #2D402A",
"$  c #31432D",
"%  c #344531",
"&  c #364933",
"*  c #384736",
"=  c #394B36",
"-  c #3B4C39",
";  c #3D513B",
":  c #414C3F",
">  c #41533E",
",  c #6F7815",
"<  c #747D16",
"1  c #435441",
"2  c #465943",
"3  c #485B45",
"4  c #4B5E49",
"5  c #515D4F",
"6  c #535E51",
"7  c #4D604B",
"8  c #51634E",
"9  c #536551",
"0  c #566853",
"q  c #586456",
"w  c #5B665A",
"e  c #596B55",
"r  c #5B6D59",
"t  c #5D705B",
"y  c #606A5E",
"u  c #61735D",
"i  c #646E63",
"p  c #637560",
"a  c #667963",
"s  c #687466",
"d  c #6B766B",
"f  c #697B66",
"g  c #6B7E68",
"h  c #727B71",
"j  c #7C7D7C",
"k  c #778117",
"l  c #7A841C",
"z  c #6E816B",
"x  c #71836D",
"c  c #738571",
"v  c #758872",
"b  c #788576",
"n  c #7C837B",
"m  c #7E8A7D",
"M  c #A1AD23",
"N  c #AFBC24",
"B  c #B1BE26",
"V  c #909942",
"C  c #808D7E",
"Z  c #B1BB40",
"A  c #A0A37B",
"S  c #B1C025",
"D  c #B9C62E",
"F  c #BBC750",
"G  c #C9D64D",
"H  c #CAD750",
"J  c #CCD56C",
"K  c #838484",
"L  c #828A82",
"P  c #888887",
"I  c #8B8B8A",
"U  c #849082",
"Y  c #889386",
"T  c #8C968B",
"R  c #8F988E",
"E  c #93938E",
"W  c #909A8E",
"Q  c #949494",
"!  c #979798",
"~  c #959A94",
"^  c #9A9B94",
"/  c #9B9B9A",
"(  c #97A096",
")  c #9CA19C",
"_  c #ABAD94",
"`  c #ADB380",
"'  c #A3A4A2",
"]  c #A5A9A4",
"[  c #A8A9A8",
"{  c #ACB0AB",
"}  c #B0B0AF",
"|  c #B3B4B3",
" . c #B6B8B5",
".. c #B7BAB8",
"X. c #B8B9B7",
"o. c #BBBCBB",
"O. c #BFBFC0",
"+. c #BFC0BE",
"@. c #BFC1C0",
"#. c #C0BEBE",
"$. c #C0BFC0",
"%. c #C3C6A9",
"&. c #C9CDA4",
"*. c #C1C1BE",
"=. c #C0C0C0",
/* pixels */
"Q [ [ [ [ [ [ [ [ [ [ [ [ [ [ [ [ [ [ [ [ [ [ [ [ [ } [ [ [ [ ! ",
"[ $.=.=.=.=.=.=.$.=.$.=.=.+.o.X...o.+.=.@.@.@.@.@.@.@.@.$.$.O.[ ",
"[ $.+.=.=.=.=.$.+.=.o.{ ) R U m C C Y ~ [ ..+.+.O.@.@.=.$.$.O.[ ",
"[ $.$.$.=.=.@.=.o.] T b x g f f f a u u d m _ o.O.@.$.=.@.O.$.[ ",
"[ =.@.$.=.@.@.| W v z z g x x x g z a u t t t m [ #.=.=.@.@.@.[ ",
"[ =.=.=.=.+.{ m z z z v x x x x z z g a u t e 0 d ] O.=.@.$.$.[ ",
"[ =.=.@.+.{ v z z v z v v x x z g z z a a u t 0 8 u ] #.$.$.$.[ ",
"[ *.$.@.| m z z x v v v v v v x z z a f a u t e 8 4 i { $.$.$.[ ",
"[ $.$.o.T z z z v v v v v v x v x z z f f u t 0 0 7 3 h o.+.$.[ ",
"[ @.=.] z f z z v v v v v v x x z z f f a u t t 9 8 2 3 / +.$.[ ",
"[ =.o.Y f z z z v z z v x x x x x g f f a u t e 0 8 2 > d ..$.[ ",
"[ $.{ z f z z z z v v z x x x x z g f f a t t r 9 8 2 > 4 ] =.[ ",
"[ @.( p a g z z z v z x z z x g g g a a u u t r 9 7 3 ; - L $.[ ",
"[ +.Y t a f z z z z z x z z g g f f f u u t r 0 9 4 3 ; $ d +.[ ",
"[ X.b t p f f z x z z z z x g g f a a u t t r 0 8 7 1 ; $ r ..[ ",
"[ o.b r u a f f z f g f g g g a a a u u r r e 8 7 3 1 - $ q  .[ ",
"[ ..c e t p a a f f f f f f a a a u u t e e 8 8 7 > ; = # q  .[ ",
"[ ..b e t t p p p a a f a a u u u t t t e 0 8 8 7 > ; & # 8  .[ ",
"[ o.L 8 e r t p u p u u u u u u r t e 0 9 8 7 7 > > ; # O i o.[ ",
"[ O.R 8 8 e r r t t u u t u u r e r 0 9 7 7 7 7 > ; & # O m +.[ ",
"[ $.[ w 4 0 e e t t r t r r t r 0 0 9 8 7 7 > > - * $ O * _ O.[ ",
"[ $.o.h 4 4 9 8 0 e e 0 0 0 8 8 9 8 7 7 7 > > > - $ @ . w X.O.[ ",
"[ $.$.) 4 2 7 7 8 8 7 0 8 0 8 8 7 7 7 7 > > ; = % @ o @ Q $.O.[ ",
"[ $.+...c > 1 3 4 7 7 7 7 7 7 3 7 > > > > = = $ @ o . y | $.O.[ ",
"[ +.=.=.{ 9 - > 1 2 3 2 3 2 3 2 > > ; - = * $ @ o . 1 ' $.=.$.[ ",
"[ $.=.=.+.) 7 = - > > > 1 > > ; ; - - & % @ + X   % ! O.$.$.$.[ ",
"[ =.=.=.$.o.) 5 % % = - = = = = = & $ # @ o     1 ~ o.@.$.=.$.[ ",
"[ =.=.=.$.@.+.[ s - @ @ $ $ $ @ # + + o .   + i ' O.@.@.=.=.$.[ ",
"_ %.%.%.%.%.%.*. .Q w - @ o o o X X   . @ 6 j | $.$.$.O.=.$.[ T ",
"B G G G G H J &.#.o. .Q h 6 1 - - : 5 i I ' ' [ X.| } [ o.@.[ Q ",
"M B N B S D F ` E / / I P K I K j j K j K P K P I I P K ! } ] Q ",
"< < < k l l V A ! / [ / / / ' ' ! Q E E ! / ! ! ! / / ' } X.} / "
};
