/* XPM */
static char *render_lyrid_passthrough_normal_map[] = {
/* columns rows colors chars-per-pixel */
"32 32 256 2",
"   c #313233",
".  c #3B3C3C",
"X  c #33353C",
"o  c #393B4E",
"O  c #394056",
"+  c #36414A",
"@  c #3E4D6B",
"#  c #413B59",
"$  c #4D3C6B",
"%  c #513A6C",
"&  c #553C73",
"*  c #5A3B75",
"=  c #613E7E",
"-  c #43485B",
";  c #595959",
":  c #444545",
">  c #434C76",
",  c #544377",
"<  c #68696A",
"1  c #6A4C77",
"2  c #683E83",
"3  c #415F80",
"4  c #4B5A94",
"5  c #5C4487",
"6  c #5B4994",
"7  c #5B4B95",
"8  c #57549A",
"9  c #4A4B82",
"0  c #5B5EAF",
"q  c #4E7693",
"w  c #5461A9",
"e  c #5A68B7",
"r  c #5073AD",
"t  c #5977BA",
"y  c #4E67A4",
"u  c #64438B",
"i  c #624485",
"p  c #634999",
"a  c #674997",
"s  c #72418C",
"d  c #724390",
"f  c #75489A",
"g  c #77529A",
"h  c #6B5493",
"j  c #684CA2",
"k  c #6B55A6",
"l  c #764CA9",
"z  c #7753A9",
"x  c #7454B3",
"c  c #7A56B9",
"v  c #6E748F",
"b  c #7A689A",
"n  c #7A6482",
"m  c #6261B9",
"M  c #5F75C5",
"N  c #6867C4",
"B  c #6374CA",
"V  c #6B78D4",
"C  c #7761C2",
"Z  c #7675DB",
"A  c #7B7BE5",
"S  c #4A8E9A",
"D  c #4E88AB",
"F  c #4E93A4",
"G  c #5588A7",
"H  c #5184B2",
"J  c #548CB8",
"K  c #5595B6",
"L  c #5BA4BB",
"P  c #54A0AC",
"I  c #7C99A7",
"U  c #78A4B4",
"Y  c #72B8B8",
"T  c #5B9BC2",
"R  c #5B96C7",
"E  c #6199CB",
"W  c #6697C9",
"Q  c #649CD5",
"!  c #6585D3",
"~  c #6F84E0",
"^  c #7587E7",
"/  c #7793EC",
"(  c #64A6C3",
")  c #63A4D3",
"_  c #67ABD5",
"`  c #68B6C5",
"'  c #6BB6D8",
"]  c #77A9D9",
"[  c #76B9D0",
"{  c #6DA9E3",
"}  c #74ADEA",
"|  c #74B8E9",
" . c #79B9E8",
".. c #7CB8F5",
"X. c #7DACF2",
"o. c #74C6D6",
"O. c #7BC9D4",
"+. c #7BC1EE",
"@. c #7CC2E5",
"#. c #7DC0F2",
"$. c #854D93",
"%. c #814EB0",
"&. c #8651B3",
"*. c #8755BD",
"=. c #9052AB",
"-. c #8B7495",
";. c #9374A9",
":. c #AC60B1",
">. c #B272B1",
",. c #8A5AC6",
"<. c #935DCD",
"1. c #8E69D7",
"2. c #9761D3",
"3. c #8574E4",
"4. c #8E7EF3",
"5. c #AF5EC2",
"6. c #B06AD1",
"7. c #A878E8",
"8. c #A27EF5",
"9. c #C573D2",
"0. c #C27FE9",
"q. c #8B8B8B",
"w. c #938C9B",
"e. c #96979B",
"r. c #968CA3",
"t. c #9992A7",
"y. c #8E94A5",
"u. c #95ADB4",
"i. c #A499AC",
"p. c #B888B3",
"a. c #A8A6A9",
"s. c #ACB6BA",
"d. c #B1ACB4",
"f. c #B6A6B5",
"g. c #B4B3B5",
"h. c #BDBDBE",
"j. c #B4BABB",
"k. c #AAA9B0",
"l. c #8C8CCD",
"z. c #8080EC",
"x. c #8787F5",
"c. c #8696FA",
"v. c #998BFE",
"b. c #9684FA",
"n. c #939DFF",
"m. c #9D94FF",
"M. c #9494FF",
"N. c #9693E5",
"B. c #81AED0",
"V. c #8AB8C5",
"C. c #9FB8C0",
"Z. c #86BBFC",
"A. c #98A9FF",
"S. c #86ACFA",
"D. c #A58AFF",
"F. c #A998FF",
"G. c #B08CFE",
"H. c #B596FF",
"J. c #B7BDC1",
"K. c #A5B3C0",
"L. c #ABABFF",
"P. c #A1A1FF",
"I. c #BBA3FF",
"U. c #B9B9FF",
"Y. c #A4D2B5",
"T. c #BACABC",
"R. c #B7C4BD",
"E. c #A2C1BD",
"W. c #98D1AF",
"Q. c #8FCFCE",
"!. c #92D1CC",
"~. c #82CBE2",
"^. c #86C4E9",
"/. c #8CC4FF",
"(. c #86C7F8",
"). c #89D7E2",
"_. c #8CD1F6",
"`. c #93C4E7",
"'. c #92CBFC",
"]. c #98C7FB",
"[. c #92D7E6",
"{. c #93D3FE",
"}. c #9BD4FC",
"|. c #98D8F7",
" X c #9FE0C5",
".X c #99E1EA",
"XX c #BEC1C0",
"oX c #B6C9C1",
"OX c #B5DBCA",
"+X c #A9C9FB",
"@X c #A2DBFE",
"#X c #AAD9FC",
"$X c #A8D3FE",
"%X c #B5D8FA",
"&X c #A9E4E8",
"*X c #B7E7F1",
"=X c #DB94BA",
"-X c #C0BBBE",
";X c #C5AABE",
":X c #E09FBA",
">X c #E2A4BB",
",X c #D68FD0",
"<X c #DA97C8",
"1X c #D790D0",
"2X c #C589F2",
"3X c #DC99E6",
"4X c #D89BFB",
"5X c #D08CEF",
"6X c #C4BEC2",
"7X c #CCB4C8",
"8X c #CCB9C8",
"9X c #D6ADCC",
"0X c #D0BBC6",
"qX c #CBA1F4",
"wX c #DAA5FE",
"eX c #D9A7F9",
"rX c #DEB3FD",
"tX c #D4BDFE",
"yX c #CFB6F1",
"uX c #E29BDE",
"iX c #E08FE6",
"pX c #E69AE7",
"aX c #E19BFD",
"sX c #E69CF2",
"dX c #E3A5C4",
"fX c #E6AAD8",
"gX c #E7B8D8",
"hX c #E4B6C5",
"jX c #E7A6E6",
"kX c #E3ACFD",
"lX c #E8A6F8",
"zX c #E7B7E5",
"xX c #E4BCFE",
"cX c #EAB1FD",
"vX c #E6B6FD",
"bX c #F1B8F7",
"nX c #F0ACF6",
"mX c #C1C1C1",
"MX c #D4D6D2",
"NX c #CDCFCC",
"BX c #CDD2FF",
"VX c #D7C8FE",
"CX c #D9D4FF",
"ZX c #C3E3DA",
"AX c #C9E5FD",
"SX c #DBEDFB",
"DX c #D8E8FE",
"FX c #D0ECED",
"GX c #ECC0FD",
"HX c #E5C7FD",
"JX c #E8D9FE",
"KX c #E8CFE5",
"LX c #E6E5FA",
"PX c #F9EBFA",
"IX c #FAF9FF",
"UX c #E7ECF5",
/* pixels */
"mXmXmXmXmXmXmXmXmXmXmXXXXXmXmXmXmXmXmXmXXXmXmXmXmXmXmXmXmXmXmXmX",
"mXmXmXmXmXmXmXmXmXXXXXXXoXoXoXT.T.T.T.T.XXXXmXmXmXmXmX6XmXmXmXmX",
"mXmXmXmXmXmXmXmXT.R.E.!.Q.[.&XOXOXY.W.Y.Y.T.T.mXmXmXmXmXmXmXmXmX",
"mXmXmXmXmXmXmXj.u.u.O.@._.|.#X%XQ.Y Y !. XOXOXT.T.mXmXmXmXmXmXmX",
"mXmXmX6XmXh.s.u.` ' ..(.{.|.@X}.Z.K T ~.*X*X*XZXNXT.mXmXmXmXmXmX",
"mXmX6X6XmXs.U L _ | #.(._.{.@X@X[.( J _ #XFXDXSXFXMXNX6XmXmXmXmX",
"mXmX6XR.j.U K ) ' | +.#._.{.}.}.@XB.J R `.AXDXLXUXKXMX6XmXmXmXmX",
"mXmXR.g.I G K ) ' +.+.(.(.{.}.$X#X].W J } %XDXDXLXUXKXMX6XmXmXmX",
"mXmXR.u.G D L ) ' | ..#./.'.}.$X%X$XB.H R +XCXCXJXHXHXgXNX6X-X6X",
"mXmXj.U K K T ) { | ..Z.Z.].].+X$X%XZ.G t N.qX4XeX4XsXjX9X-X6X6X",
"mX6Xs.( K K R ) { } ..Z./.'.'.|.|.[.[.[ l.p.0.2X5X5XiXiX<X7XmXmX",
"mXJ.V.T H J R Q { } | ..+.~.).)..X.X&X&X8X1X3XeXeXkXcXnXjX9X6XmX",
"mXJ.B.E H J R ) _ ' ' o.O.O.).[.&X*XSXUXhX>XbXHXHXGXGXbXbXgX8X6X",
"6XK.] E D J K L ` ` o.' @.(.].+XBXIXIXPXgX>XgXxXxXxXbXbXbXfX8Xh.",
"6XK.] W D F P L L _ } X.S.S.A.U.BXLXIXPXgX:XfXvXrXvXcXcXnXzX8XmX",
"mXu.W W S F P R Q / / X.c.A.A.L.+XVXLXJXgX:X9XlXrXwXlXlXlXjX8XmX",
"R.y.q q q D R R ! ~ / c.c.c.n.A.I.I.tXtXjX:X=XjXeXwXaXlXsXuX7X-X",
"-Xe.- + 3 r e M ! A ^ ^ x.M.M.m.F.L.I.I.qX<X=X3X4XwXaXaXsXpX7X-X",
"mXe.:   @ y e M V V ^ ^ x.x.b.v.v.F.F.H.qX1X=X3X4X4X4XlXnXfX8X6X",
"mXa.-   O 4 e t B V Z A A x.x.8.v.D.D.G.2X1X=X3XwXrXxXGXbXgXmXXX",
"mXh.<   X > 0 w M B Z A A 3.4.4.b.8.D.7.7.>.<XzXVXHXHXbXzX9Xh.-X",
"mXR.q..   o 4 0 e N N V Z A 3.3.1.1.*.&.=.$.;.yXVXrXlX1X,X;XR.-X",
"mXmXk.;   o @ 8 0 m N C C c x l f d s s 2 s 8 l.2X0.0.9.=Xh.6X6X",
"mXmX6Xq.o X o 9 8 p 6 6 5 i = 2 2 d l %.*.z 8 c 6.6.5.:.f.mXmXmX",
"mXmXmXg.<     - $ $ % % * = u l x *.,.2.2.x 8 c 5.5.:.p.-XmXmXmX",
"mXmX6XmXa.< - , , , & 5 a j x c ,.,.<.<.<.k 6 z 5.=.;.f.mXmXmXmX",
"mXmXmXmXj.a.v k k p 6 7 j j x x c *.,.,.*.f 5 f $.-.f.-XmXmXmXmX",
"mXmXmXmXmXR.k.-.k k p 7 6 p p l l l l &.&.a * 1 -.i.-X-XmXmXmXmX",
"mXmXmXmXmXmXmXg.t.b h p 5 5 5 a l l l &.=.g < e.g.mXmXmXmXmXmXmX",
"mXmXmXmXmXmXXXXXh.d.t.;.g h i i a f z =.;.i.;X-XmXmXmXmXmXmXmXmX",
"mXmXmXmXmXmXXXXXmXmX6Xj.d.a.w.w.r.t.a.d.-X-XmXmX6XmXmXmXmXmXmXmX",
"mXmXmXmXmXmXXX6XmXmXmXh.6XR.-XR.h.XXh.h.mXmXmXmXmXmXmXmXmXmXmXmX"
};
